<ttFont>
    <TTGlyph name="A" xMin="8" yMin="-4" xMax="676" yMax="660">
      <contour>
        <pt x="572" y="126" on="1"/>
        <pt x="590" y="82" on="0"/>
        <pt x="642" y="30" on="0"/>
        <pt x="676" y="26" on="1"/>
        <pt x="676" y="1" on="1"/>
        <pt x="668" y="-1" on="0"/>
        <pt x="639" y="-4" on="0"/>
        <pt x="628" y="-4" on="1"/>
        <pt x="604" y="-4" on="0"/>
        <pt x="549" y="5" on="0"/>
        <pt x="496" y="32" on="0"/>
        <pt x="449" y="83" on="0"/>
        <pt x="431" y="126" on="1"/>
        <pt x="408" y="182" on="1"/>
        <pt x="142" y="182" on="1"/>
        <pt x="60" y="0" on="1"/>
        <pt x="8" y="0" on="1"/>
        <pt x="303" y="660" on="1"/>
        <pt x="348" y="660" on="1"/>
      </contour>
      <contour>
        <pt x="163" y="227" on="1"/>
        <pt x="389" y="227" on="1"/>
        <pt x="279" y="488" on="1"/>
      </contour>
    </TTGlyph>
    <TTGlyph name="AE" xMin="-22" yMin="0" xMax="849" yMax="660">
      <contour>
        <pt x="724" y="660" on="1"/>
        <pt x="750" y="660" on="0"/>
        <pt x="783" y="646" on="0"/>
        <pt x="802" y="624" on="0"/>
        <pt x="809" y="595" on="0"/>
        <pt x="809" y="580" on="1"/>
        <pt x="809" y="495" on="1"/>
        <pt x="779" y="495" on="1"/>
        <pt x="779" y="559" on="0"/>
        <pt x="714" y="615" on="0"/>
        <pt x="654" y="615" on="1"/>
        <pt x="493" y="615" on="1"/>
        <pt x="493" y="365" on="1"/>
        <pt x="753" y="365" on="1"/>
        <pt x="753" y="320" on="1"/>
        <pt x="493" y="320" on="1"/>
        <pt x="493" y="45" on="1"/>
        <pt x="664" y="45" on="1"/>
        <pt x="719" y="45" on="0"/>
        <pt x="796" y="94" on="0"/>
        <pt x="822" y="159" on="1"/>
        <pt x="849" y="149" on="1"/>
        <pt x="820" y="70" on="1"/>
        <pt x="809" y="38" on="0"/>
        <pt x="774" y="0" on="0"/>
        <pt x="733" y="0" on="1"/>
        <pt x="363" y="0" on="1"/>
        <pt x="363" y="190" on="1"/>
        <pt x="145" y="190" on="1"/>
        <pt x="38" y="0" on="1"/>
        <pt x="-22" y="0" on="1"/>
        <pt x="348" y="660" on="1"/>
      </contour>
      <contour>
        <pt x="363" y="235" on="1"/>
        <pt x="363" y="579" on="1"/>
        <pt x="170" y="235" on="1"/>
      </contour>
    </TTGlyph>
    <TTGlyph name="Aacute" xMin="8" yMin="-4" xMax="676" yMax="840">
      <component glyphName="A" x="0" y="0" flags="0x204"/>
      <component glyphName="acute" x="281" y="0" flags="0x4"/>
    </TTGlyph>
    <TTGlyph name="Acircumflex" xMin="8" yMin="-4" xMax="676" yMax="810">
      <component glyphName="A" x="0" y="0" flags="0x204"/>
      <component glyphName="circumflex" x="158" y="25" flags="0x4"/>
    </TTGlyph>
    <TTGlyph name="Adieresis" xMin="8" yMin="-4" xMax="676" yMax="802">
      <component glyphName="A" x="0" y="0" flags="0x204"/>
      <component glyphName="dieresis" x="183" y="0" flags="0x4"/>
    </TTGlyph>
    <TTGlyph name="Agrave" xMin="8" yMin="-4" xMax="676" yMax="841">
      <component glyphName="A" x="0" y="0" flags="0x204"/>
      <component glyphName="grave.alt1" x="169" y="176" flags="0x4"/>
    </TTGlyph>
    <TTGlyph name="Aring" xMin="8" yMin="-4" xMax="676" yMax="800">
      <contour>
        <pt x="420" y="705" on="1"/>
        <pt x="420" y="672" on="0"/>
        <pt x="383" y="627" on="0"/>
        <pt x="365" y="619" on="1"/>
        <pt x="572" y="126" on="1"/>
        <pt x="590" y="82" on="0"/>
        <pt x="642" y="30" on="0"/>
        <pt x="676" y="26" on="1"/>
        <pt x="676" y="1" on="1"/>
        <pt x="668" y="-1" on="0"/>
        <pt x="639" y="-4" on="0"/>
        <pt x="628" y="-4" on="1"/>
        <pt x="604" y="-4" on="0"/>
        <pt x="549" y="5" on="0"/>
        <pt x="496" y="32" on="0"/>
        <pt x="449" y="83" on="0"/>
        <pt x="431" y="126" on="1"/>
        <pt x="408" y="182" on="1"/>
        <pt x="142" y="182" on="1"/>
        <pt x="60" y="0" on="1"/>
        <pt x="8" y="0" on="1"/>
        <pt x="284" y="619" on="1"/>
        <pt x="266" y="628" on="0"/>
        <pt x="230" y="672" on="0"/>
        <pt x="230" y="705" on="1"/>
        <pt x="230" y="747" on="0"/>
        <pt x="283" y="800" on="0"/>
        <pt x="325" y="800" on="1"/>
        <pt x="367" y="800" on="0"/>
        <pt x="420" y="747" on="0"/>
      </contour>
      <contour>
        <pt x="163" y="227" on="1"/>
        <pt x="389" y="227" on="1"/>
        <pt x="279" y="488" on="1"/>
      </contour>
      <contour>
        <pt x="348" y="660" on="1"/>
        <pt x="370" y="675" on="0"/>
        <pt x="370" y="705" on="1"/>
        <pt x="370" y="728" on="0"/>
        <pt x="344" y="755" on="0"/>
        <pt x="325" y="755" on="1"/>
        <pt x="306" y="755" on="0"/>
        <pt x="280" y="728" on="0"/>
        <pt x="280" y="705" on="1"/>
        <pt x="280" y="675" on="0"/>
        <pt x="303" y="660" on="1"/>
      </contour>
    </TTGlyph>
    <TTGlyph name="Atilde" xMin="8" yMin="-4" xMax="676" yMax="800">
      <component glyphName="A" x="0" y="0" flags="0x204"/>
      <component glyphName="tilde" x="190" y="20" flags="0x4"/>
    </TTGlyph>
    <TTGlyph name="B" xMin="15" yMin="0" xMax="610" yMax="660">
      <contour>
        <pt x="285" y="620" on="1"/>
        <pt x="273" y="620" on="0"/>
        <pt x="251" y="618" on="0"/>
        <pt x="243" y="616" on="1"/>
        <pt x="233" y="614" on="0"/>
        <pt x="225" y="613" on="1"/>
        <pt x="225" y="361" on="1"/>
        <pt x="300" y="361" on="1"/>
        <pt x="361" y="361" on="0"/>
        <pt x="440" y="419" on="0"/>
        <pt x="440" y="490" on="1"/>
        <pt x="440" y="527" on="0"/>
        <pt x="413" y="577" on="0"/>
        <pt x="370" y="607" on="0"/>
        <pt x="314" y="620" on="0"/>
      </contour>
      <contour>
        <pt x="95" y="530" on="1"/>
        <pt x="95" y="575" on="0"/>
        <pt x="70" y="630" on="0"/>
        <pt x="25" y="630" on="1"/>
        <pt x="15" y="630" on="1"/>
        <pt x="15" y="660" on="1"/>
        <pt x="285" y="660" on="1"/>
        <pt x="332" y="660" on="0"/>
        <pt x="436" y="650" on="0"/>
        <pt x="523" y="614" on="0"/>
        <pt x="580" y="544" on="0"/>
        <pt x="580" y="485" on="1"/>
        <pt x="580" y="464" on="0"/>
        <pt x="563" y="420" on="0"/>
        <pt x="528" y="381" on="0"/>
        <pt x="476" y="350" on="0"/>
        <pt x="441" y="341" on="1"/>
        <pt x="490" y="336" on="0"/>
        <pt x="555" y="307" on="0"/>
        <pt x="594" y="265" on="0"/>
        <pt x="610" y="212" on="0"/>
        <pt x="610" y="183" on="1"/>
        <pt x="610" y="126" on="0"/>
        <pt x="558" y="54" on="0"/>
        <pt x="474" y="14" on="0"/>
        <pt x="368" y="0" on="0"/>
        <pt x="315" y="0" on="1"/>
        <pt x="95" y="0" on="1"/>
      </contour>
      <contour>
        <pt x="300" y="40" on="1"/>
        <pt x="383" y="40" on="0"/>
        <pt x="470" y="112" on="0"/>
        <pt x="470" y="178" on="1"/>
        <pt x="470" y="316" on="0"/>
        <pt x="300" y="316" on="1"/>
        <pt x="225" y="316" on="1"/>
        <pt x="225" y="50" on="1"/>
        <pt x="234" y="47" on="0"/>
        <pt x="245" y="45" on="1"/>
        <pt x="265" y="40" on="0"/>
        <pt x="295" y="40" on="1"/>
      </contour>
    </TTGlyph>
    <TTGlyph name="Breve" xMin="20" yMin="510" xMax="302" yMax="625">
      <contour>
        <pt x="161" y="575" on="1"/>
        <pt x="203" y="575" on="0"/>
        <pt x="259" y="606" on="0"/>
        <pt x="274" y="625" on="1"/>
        <pt x="302" y="604" on="1"/>
        <pt x="283" y="562" on="0"/>
        <pt x="210" y="510" on="0"/>
        <pt x="161" y="510" on="1"/>
        <pt x="112" y="510" on="0"/>
        <pt x="39" y="562" on="0"/>
        <pt x="20" y="604" on="1"/>
        <pt x="48" y="625" on="1"/>
        <pt x="63" y="606" on="0"/>
        <pt x="119" y="575" on="0"/>
      </contour>
    </TTGlyph>
    <TTGlyph name="C" xMin="37" yMin="-20" xMax="655" yMax="680">
      <contour>
        <pt x="600" y="447" on="1"/>
        <pt x="581" y="538" on="0"/>
        <pt x="480" y="635" on="0"/>
        <pt x="397" y="635" on="1"/>
        <pt x="351" y="635" on="0"/>
        <pt x="271" y="605" on="0"/>
        <pt x="211" y="532" on="0"/>
        <pt x="177" y="411" on="0"/>
        <pt x="177" y="320" on="1"/>
        <pt x="177" y="263" on="0"/>
        <pt x="201" y="156" on="0"/>
        <pt x="254" y="74" on="0"/>
        <pt x="337" y="25" on="0"/>
        <pt x="397" y="25" on="1"/>
        <pt x="466" y="25" on="0"/>
        <pt x="584" y="98" on="0"/>
        <pt x="620" y="168" on="1"/>
        <pt x="655" y="141" on="1"/>
        <pt x="608" y="58" on="0"/>
        <pt x="472" y="-20" on="0"/>
        <pt x="367" y="-20" on="1"/>
        <pt x="288" y="-20" on="0"/>
        <pt x="165" y="32" on="0"/>
        <pt x="81" y="124" on="0"/>
        <pt x="37" y="248" on="0"/>
        <pt x="37" y="320" on="1"/>
        <pt x="37" y="396" on="0"/>
        <pt x="87" y="527" on="0"/>
        <pt x="175" y="624" on="0"/>
        <pt x="296" y="680" on="0"/>
        <pt x="367" y="680" on="1"/>
        <pt x="461" y="680" on="0"/>
        <pt x="576" y="631" on="0"/>
        <pt x="604" y="599" on="1"/>
        <pt x="624" y="573" on="0"/>
        <pt x="630" y="491" on="0"/>
        <pt x="630" y="447" on="1"/>
      </contour>
    </TTGlyph>
    <TTGlyph name="Ccedilla" xMin="37" yMin="-206" xMax="655" yMax="680">
      <contour>
        <pt x="600" y="447" on="1"/>
        <pt x="581" y="538" on="0"/>
        <pt x="480" y="635" on="0"/>
        <pt x="397" y="635" on="1"/>
        <pt x="351" y="635" on="0"/>
        <pt x="271" y="605" on="0"/>
        <pt x="211" y="532" on="0"/>
        <pt x="177" y="411" on="0"/>
        <pt x="177" y="320" on="1"/>
        <pt x="177" y="263" on="0"/>
        <pt x="201" y="156" on="0"/>
        <pt x="254" y="74" on="0"/>
        <pt x="337" y="25" on="0"/>
        <pt x="397" y="25" on="1"/>
        <pt x="466" y="25" on="0"/>
        <pt x="584" y="98" on="0"/>
        <pt x="620" y="168" on="1"/>
        <pt x="655" y="141" on="1"/>
        <pt x="610" y="61" on="0"/>
        <pt x="483" y="-16" on="0"/>
        <pt x="387" y="-19" on="1"/>
        <pt x="387" y="-50" on="1"/>
        <pt x="429" y="-50" on="0"/>
        <pt x="477" y="-92" on="0"/>
        <pt x="477" y="-128" on="1"/>
        <pt x="477" y="-163" on="0"/>
        <pt x="429" y="-206" on="0"/>
        <pt x="387" y="-206" on="1"/>
        <pt x="317" y="-206" on="1"/>
        <pt x="317" y="-160" on="1"/>
        <pt x="367" y="-160" on="1"/>
        <pt x="386" y="-160" on="0"/>
        <pt x="407" y="-141" on="0"/>
        <pt x="407" y="-128" on="1"/>
        <pt x="407" y="-114" on="0"/>
        <pt x="386" y="-95" on="0"/>
        <pt x="367" y="-95" on="1"/>
        <pt x="322" y="-95" on="1"/>
        <pt x="322" y="-17" on="1"/>
        <pt x="254" y="-10" on="0"/>
        <pt x="148" y="47" on="0"/>
        <pt x="75" y="137" on="0"/>
        <pt x="37" y="253" on="0"/>
        <pt x="37" y="320" on="1"/>
        <pt x="37" y="396" on="0"/>
        <pt x="87" y="527" on="0"/>
        <pt x="175" y="624" on="0"/>
        <pt x="296" y="680" on="0"/>
        <pt x="367" y="680" on="1"/>
        <pt x="461" y="680" on="0"/>
        <pt x="576" y="631" on="0"/>
        <pt x="604" y="599" on="1"/>
        <pt x="624" y="573" on="0"/>
        <pt x="630" y="491" on="0"/>
        <pt x="630" y="447" on="1"/>
      </contour>
    </TTGlyph>
    <TTGlyph name="D" xMin="15" yMin="0" xMax="700" yMax="660">
      <contour>
        <pt x="300" y="620" on="1"/>
        <pt x="285" y="620" on="0"/>
        <pt x="258" y="618" on="0"/>
        <pt x="247" y="616" on="1"/>
        <pt x="235" y="614" on="0"/>
        <pt x="225" y="613" on="1"/>
        <pt x="225" y="47" on="1"/>
        <pt x="235" y="45" on="0"/>
        <pt x="247" y="43" on="1"/>
        <pt x="268" y="40" on="0"/>
        <pt x="300" y="40" on="1"/>
        <pt x="310" y="40" on="1"/>
        <pt x="362" y="40" on="0"/>
        <pt x="450" y="80" on="0"/>
        <pt x="514" y="155" on="0"/>
        <pt x="550" y="263" on="0"/>
        <pt x="550" y="330" on="1"/>
        <pt x="550" y="396" on="0"/>
        <pt x="515" y="503" on="0"/>
        <pt x="451" y="579" on="0"/>
        <pt x="362" y="620" on="0"/>
        <pt x="308" y="620" on="1"/>
      </contour>
      <contour>
        <pt x="287" y="660" on="1"/>
        <pt x="390" y="660" on="0"/>
        <pt x="544" y="615" on="0"/>
        <pt x="648" y="531" on="0"/>
        <pt x="700" y="410" on="0"/>
        <pt x="700" y="334" on="1"/>
        <pt x="700" y="260" on="0"/>
        <pt x="650" y="137" on="0"/>
        <pt x="552" y="49" on="0"/>
        <pt x="407" y="0" on="0"/>
        <pt x="313" y="0" on="1"/>
        <pt x="95" y="0" on="1"/>
        <pt x="95" y="530" on="1"/>
        <pt x="95" y="575" on="0"/>
        <pt x="70" y="630" on="0"/>
        <pt x="25" y="630" on="1"/>
        <pt x="15" y="630" on="1"/>
        <pt x="15" y="660" on="1"/>
      </contour>
    </TTGlyph>
    <TTGlyph name="E" xMin="15" yMin="0" xMax="581" yMax="660">
      <contour>
        <pt x="456" y="660" on="1"/>
        <pt x="482" y="660" on="0"/>
        <pt x="515" y="646" on="0"/>
        <pt x="534" y="624" on="0"/>
        <pt x="541" y="595" on="0"/>
        <pt x="541" y="580" on="1"/>
        <pt x="541" y="495" on="1"/>
        <pt x="511" y="495" on="1"/>
        <pt x="511" y="559" on="0"/>
        <pt x="446" y="615" on="0"/>
        <pt x="386" y="615" on="1"/>
        <pt x="225" y="615" on="1"/>
        <pt x="225" y="365" on="1"/>
        <pt x="485" y="365" on="1"/>
        <pt x="485" y="320" on="1"/>
        <pt x="225" y="320" on="1"/>
        <pt x="225" y="45" on="1"/>
        <pt x="396" y="45" on="1"/>
        <pt x="451" y="45" on="0"/>
        <pt x="528" y="94" on="0"/>
        <pt x="554" y="159" on="1"/>
        <pt x="581" y="149" on="1"/>
        <pt x="552" y="70" on="1"/>
        <pt x="541" y="38" on="0"/>
        <pt x="506" y="0" on="0"/>
        <pt x="465" y="0" on="1"/>
        <pt x="95" y="0" on="1"/>
        <pt x="95" y="530" on="1"/>
        <pt x="95" y="575" on="0"/>
        <pt x="70" y="630" on="0"/>
        <pt x="25" y="630" on="1"/>
        <pt x="15" y="630" on="1"/>
        <pt x="15" y="660" on="1"/>
      </contour>
    </TTGlyph>
    <TTGlyph name="Eacute" xMin="15" yMin="0" xMax="581" yMax="840">
      <component glyphName="E" x="0" y="0" flags="0x204"/>
      <component glyphName="acute" x="260" y="0" flags="0x4"/>
    </TTGlyph>
    <TTGlyph name="Ecircumflex" xMin="15" yMin="0" xMax="581" yMax="847">
      <component glyphName="E" x="0" y="0" flags="0x204"/>
      <component glyphName="circumflex" x="140" y="62" flags="0x4"/>
    </TTGlyph>
    <TTGlyph name="Edieresis" xMin="15" yMin="0" xMax="581" yMax="842">
      <component glyphName="E" x="0" y="0" flags="0x204"/>
      <component glyphName="dieresis.alt2" x="136" y="0" flags="0x4"/>
    </TTGlyph>
    <TTGlyph name="Egrave" xMin="15" yMin="0" xMax="581" yMax="841">
      <component glyphName="E" x="0" y="0" flags="0x204"/>
      <component glyphName="grave.alt1" x="172" y="176" flags="0x4"/>
    </TTGlyph>
    <TTGlyph name="Eth" xMin="15" yMin="0" xMax="700" yMax="660">
      <contour>
        <pt x="287" y="660" on="1"/>
        <pt x="390" y="660" on="0"/>
        <pt x="544" y="615" on="0"/>
        <pt x="648" y="531" on="0"/>
        <pt x="700" y="410" on="0"/>
        <pt x="700" y="334" on="1"/>
        <pt x="700" y="260" on="0"/>
        <pt x="650" y="137" on="0"/>
        <pt x="552" y="49" on="0"/>
        <pt x="407" y="0" on="0"/>
        <pt x="313" y="0" on="1"/>
        <pt x="95" y="0" on="1"/>
        <pt x="95" y="305" on="1"/>
        <pt x="25" y="305" on="1"/>
        <pt x="25" y="355" on="1"/>
        <pt x="95" y="355" on="1"/>
        <pt x="95" y="530" on="1"/>
        <pt x="95" y="575" on="0"/>
        <pt x="70" y="630" on="0"/>
        <pt x="25" y="630" on="1"/>
        <pt x="15" y="630" on="1"/>
        <pt x="15" y="660" on="1"/>
      </contour>
      <contour>
        <pt x="300" y="620" on="1"/>
        <pt x="285" y="620" on="0"/>
        <pt x="258" y="618" on="0"/>
        <pt x="247" y="616" on="1"/>
        <pt x="235" y="614" on="0"/>
        <pt x="225" y="613" on="1"/>
        <pt x="225" y="355" on="1"/>
        <pt x="300" y="355" on="1"/>
        <pt x="300" y="305" on="1"/>
        <pt x="225" y="305" on="1"/>
        <pt x="225" y="47" on="1"/>
        <pt x="235" y="45" on="0"/>
        <pt x="247" y="43" on="1"/>
        <pt x="268" y="40" on="0"/>
        <pt x="300" y="40" on="1"/>
        <pt x="310" y="40" on="1"/>
        <pt x="362" y="40" on="0"/>
        <pt x="450" y="80" on="0"/>
        <pt x="514" y="155" on="0"/>
        <pt x="550" y="263" on="0"/>
        <pt x="550" y="330" on="1"/>
        <pt x="550" y="396" on="0"/>
        <pt x="515" y="503" on="0"/>
        <pt x="451" y="579" on="0"/>
        <pt x="362" y="620" on="0"/>
        <pt x="308" y="620" on="1"/>
      </contour>
    </TTGlyph>
    <TTGlyph name="Euro" xMin="26" yMin="-20" xMax="704" yMax="680">
      <contour>
        <pt x="649" y="447" on="1"/>
        <pt x="630" y="538" on="0"/>
        <pt x="529" y="635" on="0"/>
        <pt x="446" y="635" on="1"/>
        <pt x="405" y="635" on="0"/>
        <pt x="333" y="612" on="0"/>
        <pt x="276" y="557" on="0"/>
        <pt x="237" y="467" on="0"/>
        <pt x="230" y="400" on="1"/>
        <pt x="425" y="400" on="1"/>
        <pt x="413" y="355" on="1"/>
        <pt x="226" y="355" on="1"/>
        <pt x="226" y="320" on="1"/>
        <pt x="226" y="295" on="1"/>
        <pt x="410" y="295" on="1"/>
        <pt x="398" y="250" on="1"/>
        <pt x="230" y="250" on="1"/>
        <pt x="236" y="203" on="0"/>
        <pt x="268" y="122" on="0"/>
        <pt x="320" y="60" on="0"/>
        <pt x="396" y="25" on="0"/>
        <pt x="446" y="25" on="1"/>
        <pt x="515" y="25" on="0"/>
        <pt x="633" y="98" on="0"/>
        <pt x="669" y="168" on="1"/>
        <pt x="704" y="141" on="1"/>
        <pt x="657" y="58" on="0"/>
        <pt x="521" y="-20" on="0"/>
        <pt x="416" y="-20" on="1"/>
        <pt x="347" y="-20" on="0"/>
        <pt x="235" y="20" on="0"/>
        <pt x="153" y="92" on="0"/>
        <pt x="101" y="191" on="0"/>
        <pt x="91" y="250" on="1"/>
        <pt x="26" y="250" on="1"/>
        <pt x="38" y="295" on="1"/>
        <pt x="86" y="295" on="1"/>
        <pt x="86" y="320" on="1"/>
        <pt x="86" y="329" on="0"/>
        <pt x="86" y="346" on="0"/>
        <pt x="87" y="355" on="1"/>
        <pt x="41" y="355" on="1"/>
        <pt x="53" y="400" on="1"/>
        <pt x="93" y="400" on="1"/>
        <pt x="105" y="461" on="0"/>
        <pt x="163" y="563" on="0"/>
        <pt x="248" y="638" on="0"/>
        <pt x="355" y="680" on="0"/>
        <pt x="416" y="680" on="1"/>
        <pt x="510" y="680" on="0"/>
        <pt x="625" y="631" on="0"/>
        <pt x="653" y="599" on="1"/>
        <pt x="673" y="573" on="0"/>
        <pt x="679" y="491" on="0"/>
        <pt x="679" y="447" on="1"/>
      </contour>
    </TTGlyph>
    <TTGlyph name="F" xMin="15" yMin="0" xMax="519" yMax="660">
      <contour>
        <pt x="434" y="660" on="1"/>
        <pt x="460" y="660" on="0"/>
        <pt x="493" y="646" on="0"/>
        <pt x="512" y="624" on="0"/>
        <pt x="519" y="595" on="0"/>
        <pt x="519" y="580" on="1"/>
        <pt x="519" y="495" on="1"/>
        <pt x="489" y="495" on="1"/>
        <pt x="489" y="560" on="0"/>
        <pt x="424" y="615" on="0"/>
        <pt x="364" y="615" on="1"/>
        <pt x="225" y="615" on="1"/>
        <pt x="225" y="360" on="1"/>
        <pt x="445" y="360" on="1"/>
        <pt x="445" y="315" on="1"/>
        <pt x="225" y="315" on="1"/>
        <pt x="225" y="0" on="1"/>
        <pt x="95" y="0" on="1"/>
        <pt x="95" y="530" on="1"/>
        <pt x="95" y="575" on="0"/>
        <pt x="70" y="630" on="0"/>
        <pt x="25" y="630" on="1"/>
        <pt x="15" y="630" on="1"/>
        <pt x="15" y="660" on="1"/>
      </contour>
    </TTGlyph>
    <TTGlyph name="G" xMin="35" yMin="-20" xMax="724" yMax="680">
      <contour>
        <pt x="660" y="47" on="1"/>
        <pt x="602" y="12" on="0"/>
        <pt x="472" y="-20" on="0"/>
        <pt x="395" y="-20" on="1"/>
        <pt x="317" y="-20" on="0"/>
        <pt x="185" y="36" on="0"/>
        <pt x="89" y="133" on="0"/>
        <pt x="35" y="264" on="0"/>
        <pt x="35" y="340" on="1"/>
        <pt x="35" y="412" on="0"/>
        <pt x="82" y="536" on="0"/>
        <pt x="169" y="628" on="0"/>
        <pt x="290" y="680" on="0"/>
        <pt x="365" y="680" on="1"/>
        <pt x="459" y="680" on="0"/>
        <pt x="579" y="631" on="0"/>
        <pt x="607" y="599" on="1"/>
        <pt x="617" y="586" on="0"/>
        <pt x="627" y="552" on="0"/>
        <pt x="632" y="515" on="0"/>
        <pt x="633" y="477" on="0"/>
        <pt x="633" y="460" on="1"/>
        <pt x="603" y="460" on="1"/>
        <pt x="584" y="552" on="0"/>
        <pt x="482" y="635" on="0"/>
        <pt x="395" y="635" on="1"/>
        <pt x="335" y="635" on="0"/>
        <pt x="252" y="586" on="0"/>
        <pt x="199" y="504" on="0"/>
        <pt x="175" y="397" on="0"/>
        <pt x="175" y="340" on="1"/>
        <pt x="175" y="249" on="0"/>
        <pt x="209" y="126" on="0"/>
        <pt x="269" y="52" on="0"/>
        <pt x="349" y="20" on="0"/>
        <pt x="395" y="20" on="1"/>
        <pt x="440" y="20" on="0"/>
        <pt x="504" y="34" on="0"/>
        <pt x="530" y="46" on="1"/>
        <pt x="530" y="224" on="1"/>
        <pt x="530" y="245" on="0"/>
        <pt x="543" y="288" on="0"/>
        <pt x="584" y="323" on="0"/>
        <pt x="660" y="346" on="0"/>
        <pt x="724" y="346" on="1"/>
        <pt x="724" y="321" on="1"/>
        <pt x="690" y="321" on="0"/>
        <pt x="660" y="271" on="0"/>
        <pt x="660" y="226" on="1"/>
      </contour>
    </TTGlyph>
    <TTGlyph name="Gbreve" xMin="35" yMin="-20" xMax="724" yMax="845">
      <component glyphName="G" x="0" y="0" flags="0x204"/>
      <component glyphName="breve" x="216" y="220" flags="0x4"/>
    </TTGlyph>
    <TTGlyph name="H" xMin="15" yMin="0" xMax="705" yMax="660">
      <contour>
        <pt x="495" y="660" on="1"/>
        <pt x="625" y="660" on="1"/>
        <pt x="625" y="130" on="1"/>
        <pt x="625" y="85" on="0"/>
        <pt x="650" y="30" on="0"/>
        <pt x="695" y="30" on="1"/>
        <pt x="705" y="30" on="1"/>
        <pt x="705" y="0" on="1"/>
        <pt x="585" y="0" on="1"/>
        <pt x="559" y="0" on="0"/>
        <pt x="524" y="12" on="0"/>
        <pt x="503" y="42" on="0"/>
        <pt x="495" y="92" on="0"/>
        <pt x="495" y="130" on="1"/>
        <pt x="495" y="320" on="1"/>
        <pt x="225" y="320" on="1"/>
        <pt x="225" y="0" on="1"/>
        <pt x="95" y="0" on="1"/>
        <pt x="95" y="530" on="1"/>
        <pt x="95" y="575" on="0"/>
        <pt x="70" y="630" on="0"/>
        <pt x="25" y="630" on="1"/>
        <pt x="15" y="630" on="1"/>
        <pt x="15" y="660" on="1"/>
        <pt x="135" y="660" on="1"/>
        <pt x="161" y="660" on="0"/>
        <pt x="196" y="647" on="0"/>
        <pt x="217" y="617" on="0"/>
        <pt x="225" y="567" on="0"/>
        <pt x="225" y="530" on="1"/>
        <pt x="225" y="365" on="1"/>
        <pt x="495" y="365" on="1"/>
      </contour>
    </TTGlyph>
    <TTGlyph name="I" xMin="79" yMin="0" xMax="289" yMax="660">
      <contour>
        <pt x="79" y="660" on="1"/>
        <pt x="209" y="660" on="1"/>
        <pt x="209" y="130" on="1"/>
        <pt x="209" y="85" on="0"/>
        <pt x="234" y="30" on="0"/>
        <pt x="279" y="30" on="1"/>
        <pt x="289" y="30" on="1"/>
        <pt x="289" y="0" on="1"/>
        <pt x="169" y="0" on="1"/>
        <pt x="143" y="0" on="0"/>
        <pt x="108" y="12" on="0"/>
        <pt x="87" y="42" on="0"/>
        <pt x="79" y="92" on="0"/>
        <pt x="79" y="130" on="1"/>
      </contour>
    </TTGlyph>
    <TTGlyph name="Iacute" xMin="79" yMin="0" xMax="289" yMax="840">
      <component glyphName="I" x="0" y="0" flags="0x204"/>
      <component glyphName="acute" x="91" y="0" flags="0x4"/>
    </TTGlyph>
    <TTGlyph name="Icircumflex" xMin="0" yMin="0" xMax="290" yMax="820">
      <component glyphName="I" x="0" y="0" flags="0x204"/>
      <component glyphName="circumflex" x="-20" y="35" flags="0x4"/>
    </TTGlyph>
    <TTGlyph name="Idieresis" xMin="5" yMin="0" xMax="289" yMax="827">
      <contour>
        <pt x="79" y="660" on="1"/>
        <pt x="209" y="660" on="1"/>
        <pt x="209" y="130" on="1"/>
        <pt x="209" y="85" on="0"/>
        <pt x="234" y="30" on="0"/>
        <pt x="279" y="30" on="1"/>
        <pt x="289" y="30" on="1"/>
        <pt x="289" y="0" on="1"/>
        <pt x="169" y="0" on="1"/>
        <pt x="143" y="0" on="0"/>
        <pt x="108" y="12" on="0"/>
        <pt x="87" y="42" on="0"/>
        <pt x="79" y="92" on="0"/>
        <pt x="79" y="130" on="1"/>
      </contour>
      <contour>
        <pt x="117" y="771" on="1"/>
        <pt x="117" y="748" on="0"/>
        <pt x="87" y="715" on="0"/>
        <pt x="61" y="715" on="1"/>
        <pt x="35" y="715" on="0"/>
        <pt x="5" y="748" on="0"/>
        <pt x="5" y="771" on="1"/>
        <pt x="5" y="794" on="0"/>
        <pt x="35" y="827" on="0"/>
        <pt x="61" y="827" on="1"/>
        <pt x="87" y="827" on="0"/>
        <pt x="117" y="794" on="0"/>
      </contour>
      <contour>
        <pt x="283" y="771" on="1"/>
        <pt x="283" y="748" on="0"/>
        <pt x="253" y="715" on="0"/>
        <pt x="227" y="715" on="1"/>
        <pt x="201" y="715" on="0"/>
        <pt x="171" y="748" on="0"/>
        <pt x="171" y="771" on="1"/>
        <pt x="171" y="794" on="0"/>
        <pt x="201" y="827" on="0"/>
        <pt x="227" y="827" on="1"/>
        <pt x="253" y="827" on="0"/>
        <pt x="283" y="794" on="0"/>
      </contour>
    </TTGlyph>
    <TTGlyph name="Idotaccent" xMin="74" yMin="0" xMax="289" yMax="846">
      <contour>
        <pt x="79" y="660" on="1"/>
        <pt x="209" y="660" on="1"/>
        <pt x="209" y="130" on="1"/>
        <pt x="209" y="85" on="0"/>
        <pt x="234" y="30" on="0"/>
        <pt x="279" y="30" on="1"/>
        <pt x="289" y="30" on="1"/>
        <pt x="289" y="0" on="1"/>
        <pt x="169" y="0" on="1"/>
        <pt x="143" y="0" on="0"/>
        <pt x="108" y="12" on="0"/>
        <pt x="87" y="42" on="0"/>
        <pt x="79" y="92" on="0"/>
        <pt x="79" y="130" on="1"/>
      </contour>
      <contour>
        <pt x="204" y="770" on="1"/>
        <pt x="204" y="744" on="0"/>
        <pt x="172" y="714" on="0"/>
        <pt x="149" y="714" on="1"/>
        <pt x="111" y="714" on="0"/>
        <pt x="74" y="760" on="0"/>
        <pt x="74" y="790" on="1"/>
        <pt x="74" y="816" on="0"/>
        <pt x="106" y="846" on="0"/>
        <pt x="129" y="846" on="1"/>
        <pt x="167" y="846" on="0"/>
        <pt x="204" y="800" on="0"/>
      </contour>
    </TTGlyph>
    <TTGlyph name="Igrave" xMin="21" yMin="0" xMax="289" yMax="841">
      <component glyphName="I" x="0" y="0" flags="0x204"/>
      <component glyphName="grave.alt1" x="1" y="176" flags="0x4"/>
    </TTGlyph>
    <TTGlyph name="J" xMin="-19" yMin="-137" xMax="204" yMax="660">
      <contour>
        <pt x="204" y="83" on="1"/>
        <pt x="204" y="18" on="0"/>
        <pt x="185" y="-66" on="0"/>
        <pt x="135" y="-117" on="0"/>
        <pt x="48" y="-137" on="0"/>
        <pt x="-19" y="-137" on="1"/>
        <pt x="-19" y="-107" on="1"/>
        <pt x="3" y="-104" on="0"/>
        <pt x="38" y="-84" on="0"/>
        <pt x="62" y="-41" on="0"/>
        <pt x="74" y="30" on="0"/>
        <pt x="74" y="83" on="1"/>
        <pt x="74" y="660" on="1"/>
        <pt x="204" y="660" on="1"/>
      </contour>
    </TTGlyph>
    <TTGlyph name="K" xMin="15" yMin="-10" xMax="704" yMax="660">
      <contour>
        <pt x="95" y="530" on="1"/>
        <pt x="95" y="575" on="0"/>
        <pt x="70" y="630" on="0"/>
        <pt x="25" y="630" on="1"/>
        <pt x="15" y="630" on="1"/>
        <pt x="15" y="660" on="1"/>
        <pt x="135" y="660" on="1"/>
        <pt x="161" y="660" on="0"/>
        <pt x="196" y="647" on="0"/>
        <pt x="217" y="617" on="0"/>
        <pt x="226" y="567" on="0"/>
        <pt x="226" y="530" on="1"/>
        <pt x="226" y="340" on="1"/>
        <pt x="399" y="555" on="1"/>
        <pt x="415" y="576" on="0"/>
        <pt x="452" y="614" on="0"/>
        <pt x="496" y="643" on="0"/>
        <pt x="546" y="660" on="0"/>
        <pt x="576" y="660" on="1"/>
        <pt x="646" y="660" on="1"/>
        <pt x="646" y="625" on="1"/>
        <pt x="589" y="625" on="0"/>
        <pt x="497" y="596" on="0"/>
        <pt x="463" y="554" on="1"/>
        <pt x="314" y="370" on="1"/>
        <pt x="545" y="130" on="1"/>
        <pt x="564" y="109" on="0"/>
        <pt x="608" y="73" on="0"/>
        <pt x="650" y="44" on="0"/>
        <pt x="689" y="26" on="0"/>
        <pt x="704" y="24" on="1"/>
        <pt x="704" y="0" on="1"/>
        <pt x="693" y="-4" on="0"/>
        <pt x="654" y="-10" on="0"/>
        <pt x="631" y="-10" on="1"/>
        <pt x="603" y="-10" on="0"/>
        <pt x="547" y="-1" on="0"/>
        <pt x="487" y="26" on="0"/>
        <pt x="423" y="72" on="0"/>
        <pt x="387" y="110" on="1"/>
        <pt x="226" y="278" on="1"/>
        <pt x="226" y="0" on="1"/>
        <pt x="96" y="0" on="1"/>
      </contour>
    </TTGlyph>
    <TTGlyph name="L" xMin="15" yMin="0" xMax="570" yMax="660">
      <contour>
        <pt x="570" y="45" on="1"/>
        <pt x="570" y="0" on="1"/>
        <pt x="95" y="0" on="1"/>
        <pt x="95" y="530" on="1"/>
        <pt x="95" y="575" on="0"/>
        <pt x="70" y="630" on="0"/>
        <pt x="25" y="630" on="1"/>
        <pt x="15" y="630" on="1"/>
        <pt x="15" y="660" on="1"/>
        <pt x="135" y="660" on="1"/>
        <pt x="161" y="660" on="0"/>
        <pt x="196" y="647" on="0"/>
        <pt x="217" y="617" on="0"/>
        <pt x="225" y="567" on="0"/>
        <pt x="225" y="530" on="1"/>
        <pt x="225" y="45" on="1"/>
      </contour>
    </TTGlyph>
    <TTGlyph name="M" xMin="74" yMin="-45" xMax="847" yMax="660">
      <contour>
        <pt x="774" y="170" on="1"/>
        <pt x="774" y="79" on="0"/>
        <pt x="805" y="-12" on="0"/>
        <pt x="847" y="-20" on="1"/>
        <pt x="847" y="-45" on="1"/>
        <pt x="738" y="-45" on="0"/>
        <pt x="644" y="57" on="0"/>
        <pt x="644" y="170" on="1"/>
        <pt x="644" y="524" on="1"/>
        <pt x="425" y="0" on="1"/>
        <pt x="392" y="0" on="1"/>
        <pt x="124" y="544" on="1"/>
        <pt x="124" y="0" on="1"/>
        <pt x="74" y="0" on="1"/>
        <pt x="74" y="660" on="1"/>
        <pt x="196" y="660" on="1"/>
        <pt x="438" y="169" on="1"/>
        <pt x="643" y="660" on="1"/>
        <pt x="774" y="660" on="1"/>
      </contour>
    </TTGlyph>
    <TTGlyph name="N" xMin="3" yMin="-3" xMax="618" yMax="660">
      <contour>
        <pt x="568" y="200" on="1"/>
        <pt x="568" y="660" on="1"/>
        <pt x="618" y="660" on="1"/>
        <pt x="618" y="-3" on="1"/>
        <pt x="572" y="-3" on="1"/>
        <pt x="148" y="495" on="1"/>
        <pt x="148" y="0" on="1"/>
        <pt x="98" y="0" on="1"/>
        <pt x="98" y="540" on="1"/>
        <pt x="98" y="559" on="0"/>
        <pt x="90" y="592" on="0"/>
        <pt x="69" y="616" on="0"/>
        <pt x="34" y="630" on="0"/>
        <pt x="8" y="630" on="1"/>
        <pt x="3" y="630" on="1"/>
        <pt x="3" y="660" on="1"/>
        <pt x="73" y="660" on="1"/>
        <pt x="130" y="660" on="0"/>
        <pt x="201" y="630" on="0"/>
        <pt x="224" y="600" on="1"/>
      </contour>
    </TTGlyph>
    <TTGlyph name="Ntilde" xMin="3" yMin="-3" xMax="618" yMax="794">
      <component glyphName="N" x="0" y="0" flags="0x204"/>
      <component glyphName="tilde" x="215" y="14" flags="0x4"/>
    </TTGlyph>
    <TTGlyph name="O" xMin="37" yMin="-20" xMax="696" yMax="680">
      <contour>
        <pt x="558" y="330" on="1"/>
        <pt x="558" y="476" on="0"/>
        <pt x="458" y="635" on="0"/>
        <pt x="367" y="635" on="1"/>
        <pt x="276" y="635" on="0"/>
        <pt x="177" y="476" on="0"/>
        <pt x="177" y="330" on="1"/>
        <pt x="177" y="184" on="0"/>
        <pt x="276" y="25" on="0"/>
        <pt x="367" y="25" on="1"/>
        <pt x="458" y="25" on="0"/>
        <pt x="558" y="184" on="0"/>
      </contour>
      <contour>
        <pt x="37" y="330" on="1"/>
        <pt x="37" y="404" on="0"/>
        <pt x="84" y="532" on="0"/>
        <pt x="171" y="626" on="0"/>
        <pt x="292" y="680" on="0"/>
        <pt x="367" y="680" on="1"/>
        <pt x="442" y="680" on="0"/>
        <pt x="563" y="626" on="0"/>
        <pt x="649" y="532" on="0"/>
        <pt x="696" y="404" on="0"/>
        <pt x="696" y="330" on="1"/>
        <pt x="696" y="256" on="0"/>
        <pt x="649" y="128" on="0"/>
        <pt x="563" y="34" on="0"/>
        <pt x="442" y="-20" on="0"/>
        <pt x="367" y="-20" on="1"/>
        <pt x="292" y="-20" on="0"/>
        <pt x="171" y="34" on="0"/>
        <pt x="84" y="128" on="0"/>
        <pt x="37" y="256" on="0"/>
      </contour>
    </TTGlyph>
    <TTGlyph name="OE" xMin="37" yMin="-20" xMax="938" yMax="680">
      <contour>
        <pt x="37" y="330" on="1"/>
        <pt x="37" y="404" on="0"/>
        <pt x="84" y="532" on="0"/>
        <pt x="171" y="626" on="0"/>
        <pt x="292" y="680" on="0"/>
        <pt x="367" y="680" on="1"/>
        <pt x="409" y="680" on="0"/>
        <pt x="459" y="668" on="0"/>
        <pt x="482" y="660" on="1"/>
        <pt x="813" y="660" on="1"/>
        <pt x="839" y="660" on="0"/>
        <pt x="872" y="646" on="0"/>
        <pt x="891" y="624" on="0"/>
        <pt x="898" y="595" on="0"/>
        <pt x="898" y="580" on="1"/>
        <pt x="898" y="495" on="1"/>
        <pt x="868" y="495" on="1"/>
        <pt x="868" y="559" on="0"/>
        <pt x="803" y="615" on="0"/>
        <pt x="743" y="615" on="1"/>
        <pt x="582" y="615" on="1"/>
        <pt x="582" y="365" on="1"/>
        <pt x="842" y="365" on="1"/>
        <pt x="842" y="320" on="1"/>
        <pt x="582" y="320" on="1"/>
        <pt x="582" y="45" on="1"/>
        <pt x="753" y="45" on="1"/>
        <pt x="808" y="45" on="0"/>
        <pt x="885" y="94" on="0"/>
        <pt x="911" y="159" on="1"/>
        <pt x="938" y="149" on="1"/>
        <pt x="909" y="70" on="1"/>
        <pt x="898" y="38" on="0"/>
        <pt x="863" y="0" on="0"/>
        <pt x="822" y="0" on="1"/>
        <pt x="482" y="0" on="1"/>
        <pt x="456" y="-11" on="0"/>
        <pt x="401" y="-20" on="0"/>
        <pt x="367" y="-20" on="1"/>
        <pt x="292" y="-20" on="0"/>
        <pt x="171" y="34" on="0"/>
        <pt x="84" y="128" on="0"/>
        <pt x="37" y="256" on="0"/>
      </contour>
      <contour>
        <pt x="367" y="25" on="1"/>
        <pt x="414" y="25" on="0"/>
        <pt x="452" y="48" on="1"/>
        <pt x="452" y="611" on="1"/>
        <pt x="414" y="635" on="0"/>
        <pt x="367" y="635" on="1"/>
        <pt x="276" y="635" on="0"/>
        <pt x="177" y="476" on="0"/>
        <pt x="177" y="330" on="1"/>
        <pt x="177" y="184" on="0"/>
        <pt x="276" y="25" on="0"/>
      </contour>
    </TTGlyph>
    <TTGlyph name="Oacute" xMin="37" yMin="-20" xMax="696" yMax="864">
      <component glyphName="O" x="0" y="0" flags="0x204"/>
      <component glyphName="acute" x="318" y="24" flags="0x4"/>
    </TTGlyph>
    <TTGlyph name="Ocircumflex" xMin="37" yMin="-20" xMax="696" yMax="856">
      <component glyphName="O" x="0" y="0" flags="0x204"/>
      <component glyphName="circumflex" x="198" y="71" flags="0x4"/>
    </TTGlyph>
    <TTGlyph name="Odieresis" xMin="37" yMin="-20" xMax="696" yMax="847">
      <component glyphName="O" x="0" y="0" flags="0x204"/>
      <component glyphName="dieresis.alt2" x="201" y="5" flags="0x4"/>
    </TTGlyph>
    <TTGlyph name="Ograve" xMin="37" yMin="-20" xMax="696" yMax="863">
      <component glyphName="O" x="0" y="0" flags="0x204"/>
      <component glyphName="grave.alt1" x="218" y="198" flags="0x4"/>
    </TTGlyph>
    <TTGlyph name="Oslash" xMin="37" yMin="-20" xMax="696" yMax="680">
      <contour>
        <pt x="107" y="-20" on="1"/>
        <pt x="152" y="56" on="1"/>
        <pt x="97" y="104" on="0"/>
        <pt x="37" y="245" on="0"/>
        <pt x="37" y="330" on="1"/>
        <pt x="37" y="404" on="0"/>
        <pt x="84" y="532" on="0"/>
        <pt x="171" y="626" on="0"/>
        <pt x="292" y="680" on="0"/>
        <pt x="367" y="680" on="1"/>
        <pt x="445" y="680" on="0"/>
        <pt x="510" y="649" on="1"/>
        <pt x="528" y="680" on="1"/>
        <pt x="620" y="680" on="1"/>
        <pt x="576" y="607" on="1"/>
        <pt x="633" y="559" on="0"/>
        <pt x="696" y="417" on="0"/>
        <pt x="696" y="330" on="1"/>
        <pt x="696" y="256" on="0"/>
        <pt x="649" y="128" on="0"/>
        <pt x="563" y="34" on="0"/>
        <pt x="442" y="-20" on="0"/>
        <pt x="367" y="-20" on="1"/>
        <pt x="325" y="-20" on="0"/>
        <pt x="251" y="-3" on="0"/>
        <pt x="219" y="13" on="1"/>
        <pt x="199" y="-20" on="1"/>
      </contour>
      <contour>
        <pt x="558" y="330" on="1"/>
        <pt x="558" y="389" on="0"/>
        <pt x="541" y="484" on="0"/>
        <pt x="525" y="522" on="1"/>
        <pt x="253" y="70" on="1"/>
        <pt x="298" y="25" on="0"/>
        <pt x="367" y="25" on="1"/>
        <pt x="458" y="25" on="0"/>
        <pt x="558" y="184" on="0"/>
      </contour>
      <contour>
        <pt x="177" y="330" on="1"/>
        <pt x="177" y="220" on="0"/>
        <pt x="206" y="145" on="1"/>
        <pt x="476" y="593" on="1"/>
        <pt x="429" y="635" on="0"/>
        <pt x="367" y="635" on="1"/>
        <pt x="276" y="635" on="0"/>
        <pt x="177" y="476" on="0"/>
      </contour>
    </TTGlyph>
    <TTGlyph name="Otilde" xMin="37" yMin="-20" xMax="696" yMax="838">
      <component glyphName="O" x="0" y="0" flags="0x204"/>
      <component glyphName="tilde" x="229" y="58" flags="0x4"/>
    </TTGlyph>
    <TTGlyph name="P" xMin="15" yMin="0" xMax="560" yMax="660">
      <contour>
        <pt x="290" y="620" on="1"/>
        <pt x="278" y="620" on="0"/>
        <pt x="254" y="618" on="0"/>
        <pt x="245" y="616" on="1"/>
        <pt x="234" y="614" on="0"/>
        <pt x="225" y="613" on="1"/>
        <pt x="225" y="307" on="1"/>
        <pt x="285" y="307" on="1"/>
        <pt x="310" y="307" on="0"/>
        <pt x="359" y="321" on="0"/>
        <pt x="397" y="357" on="0"/>
        <pt x="420" y="418" on="0"/>
        <pt x="420" y="464" on="1"/>
        <pt x="420" y="510" on="0"/>
        <pt x="397" y="570" on="0"/>
        <pt x="360" y="606" on="0"/>
        <pt x="314" y="620" on="0"/>
      </contour>
      <contour>
        <pt x="290" y="660" on="1"/>
        <pt x="312" y="660" on="0"/>
        <pt x="370" y="656" on="0"/>
        <pt x="430" y="641" on="0"/>
        <pt x="487" y="615" on="0"/>
        <pt x="533" y="570" on="0"/>
        <pt x="560" y="505" on="0"/>
        <pt x="560" y="459" on="1"/>
        <pt x="560" y="416" on="0"/>
        <pt x="533" y="354" on="0"/>
        <pt x="489" y="311" on="0"/>
        <pt x="435" y="285" on="0"/>
        <pt x="382" y="271" on="0"/>
        <pt x="335" y="267" on="0"/>
        <pt x="320" y="267" on="1"/>
        <pt x="225" y="267" on="1"/>
        <pt x="225" y="0" on="1"/>
        <pt x="95" y="0" on="1"/>
        <pt x="95" y="530" on="1"/>
        <pt x="95" y="575" on="0"/>
        <pt x="70" y="630" on="0"/>
        <pt x="25" y="630" on="1"/>
        <pt x="15" y="630" on="1"/>
        <pt x="15" y="660" on="1"/>
      </contour>
    </TTGlyph>
    <TTGlyph name="Q" xMin="38" yMin="-205" xMax="697" yMax="680">
      <contour>
        <pt x="38" y="330" on="1"/>
        <pt x="38" y="404" on="0"/>
        <pt x="85" y="532" on="0"/>
        <pt x="172" y="626" on="0"/>
        <pt x="293" y="680" on="0"/>
        <pt x="368" y="680" on="1"/>
        <pt x="443" y="680" on="0"/>
        <pt x="564" y="626" on="0"/>
        <pt x="650" y="532" on="0"/>
        <pt x="697" y="404" on="0"/>
        <pt x="697" y="330" on="1"/>
        <pt x="697" y="268" on="0"/>
        <pt x="664" y="158" on="0"/>
        <pt x="604" y="70" on="0"/>
        <pt x="517" y="8" on="0"/>
        <pt x="463" y="-7" on="1"/>
        <pt x="476" y="-43" on="0"/>
        <pt x="527" y="-106" on="0"/>
        <pt x="592" y="-153" on="0"/>
        <pt x="662" y="-179" on="0"/>
        <pt x="693" y="-179" on="1"/>
        <pt x="693" y="-205" on="1"/>
        <pt x="636" y="-205" on="0"/>
        <pt x="522" y="-184" on="0"/>
        <pt x="412" y="-136" on="0"/>
        <pt x="310" y="-60" on="0"/>
        <pt x="264" y="-4" on="1"/>
        <pt x="212" y="12" on="0"/>
        <pt x="128" y="75" on="0"/>
        <pt x="70" y="162" on="0"/>
        <pt x="38" y="270" on="0"/>
      </contour>
      <contour>
        <pt x="559" y="330" on="1"/>
        <pt x="559" y="476" on="0"/>
        <pt x="459" y="635" on="0"/>
        <pt x="368" y="635" on="1"/>
        <pt x="277" y="635" on="0"/>
        <pt x="178" y="476" on="0"/>
        <pt x="178" y="330" on="1"/>
        <pt x="178" y="184" on="0"/>
        <pt x="277" y="25" on="0"/>
        <pt x="368" y="25" on="1"/>
        <pt x="459" y="25" on="0"/>
        <pt x="559" y="184" on="0"/>
      </contour>
    </TTGlyph>
    <TTGlyph name="R" xMin="15" yMin="-10" xMax="628" yMax="660">
      <contour>
        <pt x="291" y="620" on="1"/>
        <pt x="279" y="620" on="0"/>
        <pt x="255" y="618" on="0"/>
        <pt x="246" y="616" on="1"/>
        <pt x="235" y="614" on="0"/>
        <pt x="226" y="613" on="1"/>
        <pt x="226" y="342" on="1"/>
        <pt x="286" y="342" on="1"/>
        <pt x="310" y="342" on="0"/>
        <pt x="358" y="356" on="0"/>
        <pt x="397" y="388" on="0"/>
        <pt x="421" y="442" on="0"/>
        <pt x="421" y="481" on="1"/>
        <pt x="421" y="520" on="0"/>
        <pt x="397" y="573" on="0"/>
        <pt x="359" y="606" on="0"/>
        <pt x="313" y="620" on="0"/>
      </contour>
      <contour>
        <pt x="266" y="302" on="1"/>
        <pt x="226" y="302" on="1"/>
        <pt x="226" y="0" on="1"/>
        <pt x="95" y="0" on="1"/>
        <pt x="95" y="530" on="1"/>
        <pt x="95" y="575" on="0"/>
        <pt x="70" y="630" on="0"/>
        <pt x="25" y="630" on="1"/>
        <pt x="15" y="630" on="1"/>
        <pt x="15" y="660" on="1"/>
        <pt x="291" y="660" on="1"/>
        <pt x="315" y="660" on="0"/>
        <pt x="373" y="656" on="0"/>
        <pt x="433" y="642" on="0"/>
        <pt x="490" y="617" on="0"/>
        <pt x="534" y="576" on="0"/>
        <pt x="561" y="517" on="0"/>
        <pt x="561" y="476" on="1"/>
        <pt x="561" y="437" on="0"/>
        <pt x="532" y="380" on="0"/>
        <pt x="485" y="341" on="0"/>
        <pt x="427" y="317" on="0"/>
        <pt x="399" y="310" on="1"/>
        <pt x="504" y="135" on="1"/>
        <pt x="523" y="103" on="0"/>
        <pt x="558" y="62" on="0"/>
        <pt x="590" y="38" on="0"/>
        <pt x="617" y="27" on="0"/>
        <pt x="628" y="25" on="1"/>
        <pt x="628" y="0" on="1"/>
        <pt x="620" y="-4" on="0"/>
        <pt x="579" y="-10" on="0"/>
        <pt x="560" y="-10" on="1"/>
        <pt x="534" y="-10" on="0"/>
        <pt x="485" y="4" on="0"/>
        <pt x="438" y="38" on="0"/>
        <pt x="391" y="94" on="0"/>
        <pt x="366" y="135" on="1"/>
      </contour>
    </TTGlyph>
    <TTGlyph name="S" xMin="47" yMin="-17" xMax="524" yMax="678">
      <contour>
        <pt x="273" y="-17" on="1"/>
        <pt x="232" y="-17" on="0"/>
        <pt x="151" y="-1" on="0"/>
        <pt x="87" y="30" on="0"/>
        <pt x="47" y="75" on="0"/>
        <pt x="47" y="103" on="1"/>
        <pt x="47" y="220" on="1"/>
        <pt x="75" y="220" on="1"/>
        <pt x="91" y="116" on="0"/>
        <pt x="188" y="28" on="0"/>
        <pt x="272" y="28" on="1"/>
        <pt x="329" y="28" on="0"/>
        <pt x="398" y="77" on="0"/>
        <pt x="398" y="125" on="1"/>
        <pt x="398" y="168" on="0"/>
        <pt x="343" y="225" on="0"/>
        <pt x="295" y="254" on="1"/>
        <pt x="172" y="328" on="1"/>
        <pt x="104" y="368" on="0"/>
        <pt x="48" y="452" on="0"/>
        <pt x="48" y="507" on="1"/>
        <pt x="48" y="586" on="0"/>
        <pt x="169" y="678" on="0"/>
        <pt x="272" y="678" on="1"/>
        <pt x="313" y="678" on="0"/>
        <pt x="394" y="662" on="0"/>
        <pt x="458" y="631" on="0"/>
        <pt x="498" y="586" on="0"/>
        <pt x="498" y="558" on="1"/>
        <pt x="498" y="441" on="1"/>
        <pt x="470" y="441" on="1"/>
        <pt x="453" y="545" on="0"/>
        <pt x="359" y="633" on="0"/>
        <pt x="283" y="633" on="1"/>
        <pt x="229" y="633" on="0"/>
        <pt x="166" y="581" on="0"/>
        <pt x="166" y="536" on="1"/>
        <pt x="166" y="515" on="0"/>
        <pt x="181" y="482" on="0"/>
        <pt x="208" y="454" on="0"/>
        <pt x="246" y="428" on="0"/>
        <pt x="270" y="414" on="1"/>
        <pt x="393" y="341" on="1"/>
        <pt x="461" y="301" on="0"/>
        <pt x="524" y="224" on="0"/>
        <pt x="524" y="169" on="1"/>
        <pt x="524" y="83" on="0"/>
        <pt x="394" y="-17" on="0"/>
      </contour>
    </TTGlyph>
    <TTGlyph name="Scaron" xMin="47" yMin="-17" xMax="524" yMax="846">
      <component glyphName="S" x="0" y="0" flags="0x204"/>
      <component glyphName="caron" x="102" y="201" flags="0x4"/>
    </TTGlyph>
    <TTGlyph name="Scedilla" xMin="48" yMin="-206" xMax="525" yMax="678">
      <contour>
        <pt x="241" y="-15" on="1"/>
        <pt x="204" y="-12" on="0"/>
        <pt x="134" y="6" on="0"/>
        <pt x="80" y="36" on="0"/>
        <pt x="48" y="77" on="0"/>
        <pt x="48" y="103" on="1"/>
        <pt x="48" y="220" on="1"/>
        <pt x="76" y="220" on="1"/>
        <pt x="92" y="116" on="0"/>
        <pt x="189" y="28" on="0"/>
        <pt x="273" y="28" on="1"/>
        <pt x="330" y="28" on="0"/>
        <pt x="399" y="77" on="0"/>
        <pt x="399" y="125" on="1"/>
        <pt x="399" y="168" on="0"/>
        <pt x="344" y="225" on="0"/>
        <pt x="296" y="254" on="1"/>
        <pt x="173" y="328" on="1"/>
        <pt x="105" y="368" on="0"/>
        <pt x="49" y="452" on="0"/>
        <pt x="49" y="507" on="1"/>
        <pt x="49" y="586" on="0"/>
        <pt x="170" y="678" on="0"/>
        <pt x="273" y="678" on="1"/>
        <pt x="314" y="678" on="0"/>
        <pt x="395" y="662" on="0"/>
        <pt x="459" y="631" on="0"/>
        <pt x="499" y="586" on="0"/>
        <pt x="499" y="558" on="1"/>
        <pt x="499" y="441" on="1"/>
        <pt x="471" y="441" on="1"/>
        <pt x="454" y="545" on="0"/>
        <pt x="360" y="633" on="0"/>
        <pt x="284" y="633" on="1"/>
        <pt x="230" y="633" on="0"/>
        <pt x="167" y="581" on="0"/>
        <pt x="167" y="536" on="1"/>
        <pt x="167" y="515" on="0"/>
        <pt x="182" y="482" on="0"/>
        <pt x="209" y="454" on="0"/>
        <pt x="247" y="428" on="0"/>
        <pt x="271" y="414" on="1"/>
        <pt x="394" y="341" on="1"/>
        <pt x="462" y="301" on="0"/>
        <pt x="525" y="224" on="0"/>
        <pt x="525" y="169" on="1"/>
        <pt x="525" y="89" on="0"/>
        <pt x="412" y="-9" on="0"/>
        <pt x="306" y="-16" on="1"/>
        <pt x="306" y="-50" on="1"/>
        <pt x="348" y="-50" on="0"/>
        <pt x="396" y="-92" on="0"/>
        <pt x="396" y="-128" on="1"/>
        <pt x="396" y="-163" on="0"/>
        <pt x="348" y="-206" on="0"/>
        <pt x="306" y="-206" on="1"/>
        <pt x="236" y="-206" on="1"/>
        <pt x="236" y="-160" on="1"/>
        <pt x="286" y="-160" on="1"/>
        <pt x="305" y="-160" on="0"/>
        <pt x="326" y="-141" on="0"/>
        <pt x="326" y="-128" on="1"/>
        <pt x="326" y="-114" on="0"/>
        <pt x="305" y="-95" on="0"/>
        <pt x="286" y="-95" on="1"/>
        <pt x="241" y="-95" on="1"/>
      </contour>
    </TTGlyph>
    <TTGlyph name="T" xMin="16" yMin="0" xMax="571" yMax="660">
      <contour>
        <pt x="571" y="660" on="1"/>
        <pt x="571" y="615" on="1"/>
        <pt x="362" y="615" on="1"/>
        <pt x="362" y="0" on="1"/>
        <pt x="232" y="0" on="1"/>
        <pt x="232" y="615" on="1"/>
        <pt x="161" y="615" on="1"/>
        <pt x="108" y="615" on="0"/>
        <pt x="46" y="562" on="0"/>
        <pt x="46" y="495" on="1"/>
        <pt x="16" y="495" on="1"/>
        <pt x="16" y="580" on="1"/>
        <pt x="16" y="595" on="0"/>
        <pt x="23" y="624" on="0"/>
        <pt x="42" y="646" on="0"/>
        <pt x="75" y="660" on="0"/>
        <pt x="101" y="660" on="1"/>
      </contour>
    </TTGlyph>
    <TTGlyph name="Thorn" xMin="17" yMin="-30" xMax="537" yMax="690">
      <contour>
        <pt x="227" y="550" on="1"/>
        <pt x="537" y="542" on="0"/>
        <pt x="537" y="315" on="1"/>
        <pt x="537" y="86" on="0"/>
        <pt x="227" y="80" on="1"/>
        <pt x="227" y="-30" on="1"/>
        <pt x="97" y="-30" on="1"/>
        <pt x="97" y="560" on="1"/>
        <pt x="97" y="605" on="0"/>
        <pt x="72" y="660" on="0"/>
        <pt x="27" y="660" on="1"/>
        <pt x="17" y="660" on="1"/>
        <pt x="17" y="690" on="1"/>
        <pt x="137" y="690" on="1"/>
        <pt x="163" y="690" on="0"/>
        <pt x="198" y="677" on="0"/>
        <pt x="219" y="647" on="0"/>
        <pt x="227" y="597" on="0"/>
        <pt x="227" y="560" on="1"/>
      </contour>
      <contour>
        <pt x="397" y="315" on="1"/>
        <pt x="397" y="397" on="0"/>
        <pt x="314" y="499" on="0"/>
        <pt x="227" y="504" on="1"/>
        <pt x="227" y="125" on="1"/>
        <pt x="315" y="131" on="0"/>
        <pt x="397" y="233" on="0"/>
      </contour>
    </TTGlyph>
    <TTGlyph name="U" xMin="22" yMin="-10" xMax="627" yMax="660">
      <contour>
        <pt x="223" y="258" on="1"/>
        <pt x="224" y="154" on="0"/>
        <pt x="303" y="35" on="0"/>
        <pt x="382" y="35" on="1"/>
        <pt x="484" y="35" on="0"/>
        <pt x="577" y="157" on="0"/>
        <pt x="577" y="288" on="1"/>
        <pt x="577" y="660" on="1"/>
        <pt x="627" y="660" on="1"/>
        <pt x="627" y="288" on="1"/>
        <pt x="627" y="217" on="0"/>
        <pt x="599" y="107" on="0"/>
        <pt x="536" y="30" on="0"/>
        <pt x="435" y="-10" on="0"/>
        <pt x="362" y="-10" on="1"/>
        <pt x="92" y="-10" on="0"/>
        <pt x="92" y="288" on="1"/>
        <pt x="92" y="530" on="1"/>
        <pt x="92" y="575" on="0"/>
        <pt x="67" y="630" on="0"/>
        <pt x="22" y="630" on="1"/>
        <pt x="22" y="660" on="1"/>
        <pt x="132" y="660" on="1"/>
        <pt x="158" y="660" on="0"/>
        <pt x="193" y="647" on="0"/>
        <pt x="214" y="617" on="0"/>
        <pt x="222" y="567" on="0"/>
        <pt x="222" y="530" on="1"/>
      </contour>
    </TTGlyph>
    <TTGlyph name="Uacute" xMin="22" yMin="-10" xMax="627" yMax="821">
      <component glyphName="U" x="0" y="0" flags="0x4"/>
      <component glyphName="acute" x="317" y="-19" flags="0x4"/>
    </TTGlyph>
    <TTGlyph name="Ucircumflex" xMin="22" yMin="-10" xMax="627" yMax="806">
      <component glyphName="U" x="0" y="0" flags="0x4"/>
      <component glyphName="circumflex" x="223" y="21" flags="0x4"/>
    </TTGlyph>
    <TTGlyph name="Udieresis" xMin="22" yMin="-10" xMax="627" yMax="793">
      <component glyphName="U" x="0" y="0" flags="0x4"/>
      <component glyphName="dieresis.alt2" x="217" y="-49" flags="0x4"/>
    </TTGlyph>
    <TTGlyph name="Ugrave" xMin="22" yMin="-10" xMax="627" yMax="820">
      <component glyphName="U" x="0" y="0" flags="0x4"/>
      <component glyphName="grave.alt1" x="243" y="155" flags="0x4"/>
    </TTGlyph>
    <TTGlyph name="V" xMin="-33" yMin="-10" xMax="627" yMax="670">
      <contour>
        <pt x="66" y="543" on="1"/>
        <pt x="42" y="599" on="0"/>
        <pt x="-3" y="644" on="0"/>
        <pt x="-33" y="648" on="1"/>
        <pt x="-33" y="668" on="1"/>
        <pt x="-29" y="668" on="0"/>
        <pt x="2" y="670" on="0"/>
        <pt x="9" y="670" on="1"/>
        <pt x="35" y="670" on="0"/>
        <pt x="90" y="662" on="0"/>
        <pt x="142" y="636" on="0"/>
        <pt x="189" y="586" on="0"/>
        <pt x="207" y="543" on="1"/>
        <pt x="365" y="169" on="1"/>
        <pt x="576" y="660" on="1"/>
        <pt x="627" y="660" on="1"/>
        <pt x="339" y="-10" on="1"/>
        <pt x="299" y="-10" on="1"/>
      </contour>
    </TTGlyph>
    <TTGlyph name="W" xMin="-38" yMin="-9" xMax="885" yMax="670">
      <contour>
        <pt x="666" y="179" on="1"/>
        <pt x="837" y="660" on="1"/>
        <pt x="885" y="660" on="1"/>
        <pt x="648" y="-9" on="1"/>
        <pt x="608" y="-9" on="1"/>
        <pt x="454" y="383" on="1"/>
        <pt x="317" y="-9" on="1"/>
        <pt x="277" y="-9" on="1"/>
        <pt x="61" y="543" on="1"/>
        <pt x="38" y="600" on="0"/>
        <pt x="-8" y="644" on="0"/>
        <pt x="-38" y="648" on="1"/>
        <pt x="-38" y="668" on="1"/>
        <pt x="-34" y="668" on="0"/>
        <pt x="-3" y="670" on="0"/>
        <pt x="4" y="670" on="1"/>
        <pt x="30" y="670" on="0"/>
        <pt x="86" y="663" on="0"/>
        <pt x="138" y="637" on="0"/>
        <pt x="185" y="586" on="0"/>
        <pt x="202" y="543" on="1"/>
        <pt x="337" y="198" on="1"/>
        <pt x="427" y="454" on="1"/>
        <pt x="392" y="543" on="1"/>
        <pt x="369" y="600" on="0"/>
        <pt x="316" y="644" on="0"/>
        <pt x="286" y="648" on="1"/>
        <pt x="286" y="668" on="1"/>
        <pt x="290" y="668" on="0"/>
        <pt x="318" y="670" on="0"/>
        <pt x="325" y="670" on="1"/>
        <pt x="351" y="670" on="0"/>
        <pt x="407" y="663" on="0"/>
        <pt x="460" y="637" on="0"/>
        <pt x="506" y="586" on="0"/>
        <pt x="523" y="543" on="1"/>
      </contour>
    </TTGlyph>
    <TTGlyph name="X" xMin="-13" yMin="0" xMax="667" yMax="660">
      <contour>
        <pt x="347" y="416" on="1"/>
        <pt x="540" y="660" on="1"/>
        <pt x="605" y="660" on="1"/>
        <pt x="376" y="371" on="1"/>
        <pt x="533" y="130" on="1"/>
        <pt x="545" y="111" on="0"/>
        <pt x="578" y="73" on="0"/>
        <pt x="613" y="42" on="0"/>
        <pt x="650" y="22" on="0"/>
        <pt x="667" y="20" on="1"/>
        <pt x="667" y="0" on="1"/>
        <pt x="557" y="0" on="1"/>
        <pt x="529" y="0" on="0"/>
        <pt x="480" y="20" on="0"/>
        <pt x="439" y="52" on="0"/>
        <pt x="406" y="91" on="0"/>
        <pt x="394" y="110" on="1"/>
        <pt x="293" y="266" on="1"/>
        <pt x="82" y="0" on="1"/>
        <pt x="17" y="0" on="1"/>
        <pt x="263" y="311" on="1"/>
        <pt x="121" y="530" on="1"/>
        <pt x="109" y="549" on="0"/>
        <pt x="76" y="587" on="0"/>
        <pt x="41" y="618" on="0"/>
        <pt x="4" y="638" on="0"/>
        <pt x="-13" y="640" on="1"/>
        <pt x="-13" y="660" on="1"/>
        <pt x="97" y="660" on="1"/>
        <pt x="125" y="660" on="0"/>
        <pt x="174" y="640" on="0"/>
        <pt x="215" y="608" on="0"/>
        <pt x="248" y="569" on="0"/>
        <pt x="260" y="550" on="1"/>
      </contour>
    </TTGlyph>
    <TTGlyph name="Y" xMin="-31" yMin="0" xMax="636" yMax="660">
      <contour>
        <pt x="377" y="345" on="1"/>
        <pt x="571" y="660" on="1"/>
        <pt x="636" y="660" on="1"/>
        <pt x="409" y="291" on="1"/>
        <pt x="409" y="0" on="1"/>
        <pt x="279" y="0" on="1"/>
        <pt x="279" y="264" on="1"/>
        <pt x="102" y="530" on="1"/>
        <pt x="89" y="549" on="0"/>
        <pt x="57" y="587" on="0"/>
        <pt x="22" y="618" on="0"/>
        <pt x="-14" y="638" on="0"/>
        <pt x="-31" y="640" on="1"/>
        <pt x="-31" y="660" on="1"/>
        <pt x="78" y="660" on="1"/>
        <pt x="106" y="660" on="0"/>
        <pt x="155" y="640" on="0"/>
        <pt x="196" y="608" on="0"/>
        <pt x="229" y="569" on="0"/>
        <pt x="241" y="550" on="1"/>
      </contour>
    </TTGlyph>
    <TTGlyph name="Yacute" xMin="-31" yMin="0" xMax="636" yMax="810">
      <component glyphName="Y" x="0" y="0" flags="0x204"/>
      <component glyphName="acute" x="298" y="-30" flags="0x4"/>
    </TTGlyph>
    <TTGlyph name="Ydieresis" xMin="-31" yMin="0" xMax="636" yMax="802">
      <component glyphName="Y" x="0" y="0" flags="0x204"/>
      <component glyphName="dieresis" x="216" y="0" flags="0x4"/>
    </TTGlyph>
    <TTGlyph name="Z" xMin="31" yMin="0" xMax="581" yMax="660">
      <contour>
        <pt x="581" y="660" on="1"/>
        <pt x="189" y="45" on="1"/>
        <pt x="576" y="45" on="1"/>
        <pt x="576" y="0" on="1"/>
        <pt x="31" y="0" on="1"/>
        <pt x="31" y="32" on="1"/>
        <pt x="403" y="616" on="1"/>
        <pt x="186" y="616" on="1"/>
        <pt x="133" y="616" on="0"/>
        <pt x="71" y="562" on="0"/>
        <pt x="71" y="495" on="1"/>
        <pt x="41" y="495" on="1"/>
        <pt x="41" y="580" on="1"/>
        <pt x="41" y="595" on="0"/>
        <pt x="48" y="624" on="0"/>
        <pt x="67" y="646" on="0"/>
        <pt x="100" y="660" on="0"/>
        <pt x="126" y="660" on="1"/>
      </contour>
    </TTGlyph>
    <TTGlyph name="Zcaron" xMin="31" yMin="0" xMax="581" yMax="836">
      <component glyphName="Z" x="0" y="0" flags="0x4"/>
      <component glyphName="caron" x="150" y="191" flags="0x4"/>
    </TTGlyph>
    <TTGlyph name="a" xMin="29" yMin="-10" xMax="444" yMax="480">
      <contour>
        <pt x="314" y="230" on="1"/>
        <pt x="299" y="230" on="1"/>
        <pt x="227" y="230" on="0"/>
        <pt x="164" y="178" on="0"/>
        <pt x="164" y="125" on="1"/>
        <pt x="164" y="83" on="0"/>
        <pt x="199" y="40" on="0"/>
        <pt x="229" y="40" on="1"/>
        <pt x="252" y="40" on="0"/>
        <pt x="283" y="60" on="0"/>
        <pt x="294" y="72" on="1"/>
        <pt x="306" y="86" on="0"/>
        <pt x="314" y="105" on="1"/>
      </contour>
      <contour>
        <pt x="239" y="480" on="1"/>
        <pt x="337" y="480" on="0"/>
        <pt x="444" y="376" on="0"/>
        <pt x="444" y="270" on="1"/>
        <pt x="444" y="0" on="1"/>
        <pt x="359" y="0" on="1"/>
        <pt x="324" y="45" on="1"/>
        <pt x="319" y="45" on="1"/>
        <pt x="308" y="29" on="0"/>
        <pt x="291" y="17" on="1"/>
        <pt x="277" y="6" on="0"/>
        <pt x="231" y="-10" on="0"/>
        <pt x="199" y="-10" on="1"/>
        <pt x="116" y="-10" on="0"/>
        <pt x="29" y="65" on="0"/>
        <pt x="29" y="125" on="1"/>
        <pt x="29" y="161" on="0"/>
        <pt x="53" y="216" on="0"/>
        <pt x="114" y="255" on="0"/>
        <pt x="218" y="275" on="0"/>
        <pt x="299" y="275" on="1"/>
        <pt x="314" y="275" on="1"/>
        <pt x="314" y="365" on="0"/>
        <pt x="264" y="435" on="0"/>
        <pt x="219" y="435" on="1"/>
        <pt x="202" y="435" on="0"/>
        <pt x="171" y="428" on="0"/>
        <pt x="145" y="408" on="0"/>
        <pt x="125" y="373" on="0"/>
        <pt x="119" y="345" on="1"/>
        <pt x="64" y="345" on="1"/>
        <pt x="64" y="371" on="0"/>
        <pt x="71" y="425" on="0"/>
        <pt x="89" y="445" on="1"/>
        <pt x="107" y="465" on="0"/>
        <pt x="190" y="480" on="0"/>
      </contour>
    </TTGlyph>
    <TTGlyph name="aacute" xMin="29" yMin="-10" xMax="444" yMax="666">
      <component glyphName="a" x="0" y="0" flags="0x204"/>
      <component glyphName="acute" x="181" y="-174" flags="0x4"/>
    </TTGlyph>
    <TTGlyph name="acircumflex" xMin="29" yMin="-10" xMax="444" yMax="656">
      <component glyphName="a" x="0" y="0" flags="0x204"/>
      <component glyphName="circumflex" x="85" y="-129" flags="0x4"/>
    </TTGlyph>
    <TTGlyph name="acute" xMin="20" yMin="700" xMax="181" yMax="840">
      <contour>
        <pt x="75" y="700" on="1"/>
        <pt x="20" y="700" on="1"/>
        <pt x="62" y="840" on="1"/>
        <pt x="181" y="840" on="1"/>
      </contour>
    </TTGlyph>
    <TTGlyph name="acute.alt1" xMin="20" yMin="525" xMax="181" yMax="665">
      <contour>
        <pt x="75" y="525" on="1"/>
        <pt x="20" y="525" on="1"/>
        <pt x="62" y="665" on="1"/>
        <pt x="181" y="665" on="1"/>
      </contour>
    </TTGlyph>
    <TTGlyph name="adieresis" xMin="29" yMin="-10" xMax="444" yMax="647">
      <component glyphName="a" x="0" y="0" flags="0x204"/>
      <component glyphName="dieresis.alt1" x="83" y="0" flags="0x4"/>
    </TTGlyph>
    <TTGlyph name="ae" xMin="28" yMin="-10" xMax="763" yMax="480">
      <contour>
        <pt x="568" y="35" on="1"/>
        <pt x="620" y="35" on="0"/>
        <pt x="685" y="83" on="0"/>
        <pt x="711" y="118" on="1"/>
        <pt x="742" y="95" on="1"/>
        <pt x="731" y="78" on="0"/>
        <pt x="700" y="41" on="0"/>
        <pt x="655" y="10" on="0"/>
        <pt x="594" y="-10" on="0"/>
        <pt x="553" y="-10" on="1"/>
        <pt x="443" y="-10" on="0"/>
        <pt x="383" y="80" on="1"/>
        <pt x="374" y="63" on="0"/>
        <pt x="343" y="31" on="0"/>
        <pt x="300" y="5" on="0"/>
        <pt x="244" y="-10" on="0"/>
        <pt x="208" y="-10" on="1"/>
        <pt x="118" y="-10" on="0"/>
        <pt x="28" y="64" on="0"/>
        <pt x="28" y="120" on="1"/>
        <pt x="28" y="152" on="0"/>
        <pt x="53" y="204" on="0"/>
        <pt x="116" y="242" on="0"/>
        <pt x="222" y="262" on="0"/>
        <pt x="303" y="262" on="1"/>
        <pt x="318" y="262" on="1"/>
        <pt x="318" y="353" on="0"/>
        <pt x="267" y="435" on="0"/>
        <pt x="218" y="435" on="1"/>
        <pt x="201" y="435" on="0"/>
        <pt x="170" y="428" on="0"/>
        <pt x="144" y="408" on="0"/>
        <pt x="124" y="373" on="0"/>
        <pt x="118" y="345" on="1"/>
        <pt x="63" y="345" on="1"/>
        <pt x="63" y="371" on="0"/>
        <pt x="70" y="425" on="0"/>
        <pt x="88" y="445" on="1"/>
        <pt x="97" y="455" on="0"/>
        <pt x="127" y="468" on="0"/>
        <pt x="163" y="476" on="0"/>
        <pt x="201" y="480" on="0"/>
        <pt x="218" y="480" on="1"/>
        <pt x="282" y="480" on="0"/>
        <pt x="370" y="431" on="0"/>
        <pt x="393" y="389" on="1"/>
        <pt x="422" y="435" on="0"/>
        <pt x="505" y="480" on="0"/>
        <pt x="553" y="480" on="1"/>
        <pt x="596" y="480" on="0"/>
        <pt x="673" y="451" on="0"/>
        <pt x="730" y="399" on="0"/>
        <pt x="763" y="325" on="0"/>
        <pt x="763" y="280" on="1"/>
        <pt x="763" y="269" on="0"/>
        <pt x="762" y="246" on="0"/>
        <pt x="761" y="237" on="1"/>
        <pt x="760" y="226" on="0"/>
        <pt x="759" y="217" on="1"/>
        <pt x="458" y="217" on="1"/>
        <pt x="458" y="207" on="1"/>
        <pt x="459" y="114" on="0"/>
        <pt x="520" y="35" on="0"/>
      </contour>
      <contour>
        <pt x="628" y="262" on="1"/>
        <pt x="628" y="354" on="0"/>
        <pt x="580" y="435" on="0"/>
        <pt x="543" y="435" on="1"/>
        <pt x="509" y="435" on="0"/>
        <pt x="458" y="354" on="0"/>
        <pt x="458" y="262" on="1"/>
      </contour>
      <contour>
        <pt x="318" y="217" on="1"/>
        <pt x="303" y="217" on="1"/>
        <pt x="260" y="217" on="0"/>
        <pt x="205" y="204" on="0"/>
        <pt x="174" y="178" on="0"/>
        <pt x="163" y="142" on="0"/>
        <pt x="163" y="120" on="1"/>
        <pt x="163" y="86" on="0"/>
        <pt x="198" y="40" on="0"/>
        <pt x="228" y="40" on="1"/>
        <pt x="252" y="40" on="0"/>
        <pt x="286" y="60" on="0"/>
        <pt x="297" y="72" on="1"/>
        <pt x="309" y="86" on="0"/>
        <pt x="318" y="105" on="1"/>
      </contour>
    </TTGlyph>
    <TTGlyph name="afii10017" xMin="8" yMin="-4" xMax="676" yMax="660">
      <component glyphName="A" x="0" y="0" flags="0x200"/>
    </TTGlyph>
    <TTGlyph name="afii10018" xMin="15" yMin="0" xMax="610" yMax="660">
      <contour>
        <pt x="95" y="530" on="1"/>
        <pt x="95" y="575" on="0"/>
        <pt x="70" y="630" on="0"/>
        <pt x="25" y="630" on="1"/>
        <pt x="15" y="630" on="1"/>
        <pt x="15" y="660" on="1"/>
        <pt x="454" y="660" on="1"/>
        <pt x="480" y="660" on="0"/>
        <pt x="513" y="646" on="0"/>
        <pt x="532" y="624" on="0"/>
        <pt x="539" y="595" on="0"/>
        <pt x="539" y="580" on="1"/>
        <pt x="539" y="495" on="1"/>
        <pt x="509" y="495" on="1"/>
        <pt x="509" y="560" on="0"/>
        <pt x="444" y="615" on="0"/>
        <pt x="384" y="615" on="1"/>
        <pt x="225" y="615" on="1"/>
        <pt x="225" y="380" on="1"/>
        <pt x="315" y="380" on="1"/>
        <pt x="369" y="380" on="0"/>
        <pt x="475" y="366" on="0"/>
        <pt x="558" y="324" on="0"/>
        <pt x="610" y="250" on="0"/>
        <pt x="610" y="190" on="1"/>
        <pt x="610" y="130" on="0"/>
        <pt x="558" y="56" on="0"/>
        <pt x="475" y="14" on="0"/>
        <pt x="369" y="0" on="0"/>
        <pt x="315" y="0" on="1"/>
        <pt x="95" y="0" on="1"/>
      </contour>
      <contour>
        <pt x="295" y="340" on="1"/>
        <pt x="280" y="340" on="0"/>
        <pt x="254" y="337" on="0"/>
        <pt x="245" y="335" on="1"/>
        <pt x="234" y="332" on="0"/>
        <pt x="225" y="330" on="1"/>
        <pt x="225" y="50" on="1"/>
        <pt x="234" y="47" on="0"/>
        <pt x="245" y="45" on="1"/>
        <pt x="265" y="40" on="0"/>
        <pt x="295" y="40" on="1"/>
        <pt x="300" y="40" on="1"/>
        <pt x="390" y="40" on="0"/>
        <pt x="470" y="111" on="0"/>
        <pt x="470" y="190" on="1"/>
        <pt x="470" y="269" on="0"/>
        <pt x="390" y="340" on="0"/>
        <pt x="300" y="340" on="1"/>
      </contour>
    </TTGlyph>
    <TTGlyph name="afii10019" xMin="15" yMin="0" xMax="610" yMax="660">
      <component glyphName="B" x="0" y="0" flags="0x200"/>
    </TTGlyph>
    <TTGlyph name="afii10020" xMin="15" yMin="0" xMax="529" yMax="660">
      <contour>
        <pt x="444" y="660" on="1"/>
        <pt x="470" y="660" on="0"/>
        <pt x="503" y="646" on="0"/>
        <pt x="522" y="624" on="0"/>
        <pt x="529" y="595" on="0"/>
        <pt x="529" y="580" on="1"/>
        <pt x="529" y="495" on="1"/>
        <pt x="499" y="495" on="1"/>
        <pt x="499" y="560" on="0"/>
        <pt x="434" y="615" on="0"/>
        <pt x="374" y="615" on="1"/>
        <pt x="225" y="615" on="1"/>
        <pt x="225" y="0" on="1"/>
        <pt x="95" y="0" on="1"/>
        <pt x="95" y="530" on="1"/>
        <pt x="95" y="575" on="0"/>
        <pt x="70" y="630" on="0"/>
        <pt x="25" y="630" on="1"/>
        <pt x="15" y="630" on="1"/>
        <pt x="15" y="660" on="1"/>
      </contour>
    </TTGlyph>
    <TTGlyph name="afii10021" xMin="-1" yMin="-184" xMax="673" yMax="660">
      <contour>
        <pt x="473" y="45" on="1"/>
        <pt x="473" y="615" on="1"/>
        <pt x="253" y="615" on="1"/>
        <pt x="253" y="513" on="0"/>
        <pt x="245" y="348" on="0"/>
        <pt x="226" y="211" on="0"/>
        <pt x="195" y="96" on="0"/>
        <pt x="173" y="45" on="1"/>
      </contour>
      <contour>
        <pt x="69" y="45" on="1"/>
        <pt x="118" y="151" on="0"/>
        <pt x="154" y="394" on="0"/>
        <pt x="154" y="530" on="1"/>
        <pt x="154" y="575" on="0"/>
        <pt x="129" y="630" on="0"/>
        <pt x="84" y="630" on="1"/>
        <pt x="74" y="630" on="1"/>
        <pt x="74" y="660" on="1"/>
        <pt x="603" y="660" on="1"/>
        <pt x="603" y="45" on="1"/>
        <pt x="638" y="45" on="1"/>
        <pt x="653" y="45" on="0"/>
        <pt x="673" y="25" on="0"/>
        <pt x="673" y="10" on="1"/>
        <pt x="673" y="-184" on="1"/>
        <pt x="623" y="-184" on="1"/>
        <pt x="617" y="-130" on="0"/>
        <pt x="597" y="-59" on="0"/>
        <pt x="566" y="-17" on="0"/>
        <pt x="525" y="0" on="0"/>
        <pt x="498" y="0" on="1"/>
        <pt x="174" y="0" on="1"/>
        <pt x="147" y="0" on="0"/>
        <pt x="106" y="-17" on="0"/>
        <pt x="75" y="-59" on="0"/>
        <pt x="55" y="-130" on="0"/>
        <pt x="49" y="-184" on="1"/>
        <pt x="-1" y="-184" on="1"/>
        <pt x="-1" y="10" on="1"/>
        <pt x="-1" y="25" on="0"/>
        <pt x="19" y="45" on="0"/>
        <pt x="34" y="45" on="1"/>
      </contour>
    </TTGlyph>
    <TTGlyph name="afii10022" xMin="15" yMin="0" xMax="581" yMax="660">
      <component glyphName="E" x="0" y="0" flags="0x200"/>
    </TTGlyph>
    <TTGlyph name="afii10023" xMin="15" yMin="0" xMax="581" yMax="842">
      <component glyphName="E" x="0" y="0" flags="0x204"/>
      <component glyphName="dieresis.alt2" x="136" y="0" flags="0x4"/>
    </TTGlyph>
    <TTGlyph name="afii10024" xMin="-10" yMin="-10" xMax="999" yMax="660">
      <contour>
        <pt x="429" y="660" on="1"/>
        <pt x="560" y="660" on="1"/>
        <pt x="560" y="340" on="1"/>
        <pt x="723" y="555" on="1"/>
        <pt x="739" y="576" on="0"/>
        <pt x="776" y="614" on="0"/>
        <pt x="819" y="643" on="0"/>
        <pt x="870" y="660" on="0"/>
        <pt x="900" y="660" on="1"/>
        <pt x="960" y="660" on="1"/>
        <pt x="960" y="625" on="1"/>
        <pt x="928" y="625" on="0"/>
        <pt x="878" y="618" on="0"/>
        <pt x="838" y="602" on="0"/>
        <pt x="804" y="575" on="0"/>
        <pt x="787" y="554" on="1"/>
        <pt x="648" y="370" on="1"/>
        <pt x="849" y="130" on="1"/>
        <pt x="886" y="86" on="0"/>
        <pt x="969" y="29" on="0"/>
        <pt x="999" y="24" on="1"/>
        <pt x="999" y="0" on="1"/>
        <pt x="988" y="-4" on="0"/>
        <pt x="957" y="-10" on="0"/>
        <pt x="935" y="-10" on="1"/>
        <pt x="903" y="-10" on="0"/>
        <pt x="843" y="0" on="0"/>
        <pt x="784" y="28" on="0"/>
        <pt x="723" y="79" on="0"/>
        <pt x="691" y="120" on="1"/>
        <pt x="560" y="285" on="1"/>
        <pt x="560" y="0" on="1"/>
        <pt x="429" y="0" on="1"/>
        <pt x="429" y="285" on="1"/>
        <pt x="298" y="120" on="1"/>
        <pt x="266" y="79" on="0"/>
        <pt x="205" y="28" on="0"/>
        <pt x="146" y="0" on="0"/>
        <pt x="86" y="-10" on="0"/>
        <pt x="54" y="-10" on="1"/>
        <pt x="32" y="-10" on="0"/>
        <pt x="1" y="-4" on="0"/>
        <pt x="-10" y="0" on="1"/>
        <pt x="-10" y="24" on="1"/>
        <pt x="20" y="29" on="0"/>
        <pt x="103" y="86" on="0"/>
        <pt x="140" y="130" on="1"/>
        <pt x="341" y="370" on="1"/>
        <pt x="202" y="554" on="1"/>
        <pt x="185" y="575" on="0"/>
        <pt x="151" y="602" on="0"/>
        <pt x="111" y="618" on="0"/>
        <pt x="61" y="625" on="0"/>
        <pt x="29" y="625" on="1"/>
        <pt x="29" y="660" on="1"/>
        <pt x="89" y="660" on="1"/>
        <pt x="119" y="660" on="0"/>
        <pt x="170" y="643" on="0"/>
        <pt x="213" y="614" on="0"/>
        <pt x="250" y="576" on="0"/>
        <pt x="266" y="555" on="1"/>
        <pt x="429" y="340" on="1"/>
      </contour>
    </TTGlyph>
    <TTGlyph name="afii10025" xMin="19" yMin="-20" xMax="549" yMax="680">
      <contour>
        <pt x="154" y="360" on="1"/>
        <pt x="239" y="360" on="1"/>
        <pt x="266" y="360" on="0"/>
        <pt x="319" y="377" on="0"/>
        <pt x="362" y="412" on="0"/>
        <pt x="389" y="464" on="0"/>
        <pt x="389" y="500" on="1"/>
        <pt x="389" y="536" on="0"/>
        <pt x="364" y="587" on="0"/>
        <pt x="326" y="620" on="0"/>
        <pt x="281" y="635" on="0"/>
        <pt x="260" y="635" on="1"/>
        <pt x="192" y="635" on="0"/>
        <pt x="99" y="545" on="0"/>
        <pt x="80" y="470" on="1"/>
        <pt x="49" y="470" on="1"/>
        <pt x="49" y="515" on="0"/>
        <pt x="55" y="587" on="0"/>
        <pt x="74" y="610" on="1"/>
        <pt x="87" y="626" on="0"/>
        <pt x="130" y="652" on="0"/>
        <pt x="182" y="670" on="0"/>
        <pt x="239" y="680" on="0"/>
        <pt x="265" y="680" on="1"/>
        <pt x="310" y="680" on="0"/>
        <pt x="402" y="667" on="0"/>
        <pt x="477" y="630" on="0"/>
        <pt x="524" y="561" on="0"/>
        <pt x="524" y="505" on="1"/>
        <pt x="524" y="481" on="0"/>
        <pt x="504" y="432" on="0"/>
        <pt x="465" y="388" on="0"/>
        <pt x="407" y="354" on="0"/>
        <pt x="370" y="345" on="1"/>
        <pt x="419" y="339" on="0"/>
        <pt x="487" y="304" on="0"/>
        <pt x="530" y="256" on="0"/>
        <pt x="549" y="198" on="0"/>
        <pt x="549" y="170" on="1"/>
        <pt x="549" y="116" on="0"/>
        <pt x="499" y="43" on="0"/>
        <pt x="420" y="-1" on="0"/>
        <pt x="325" y="-20" on="0"/>
        <pt x="280" y="-20" on="1"/>
        <pt x="189" y="-20" on="0"/>
        <pt x="64" y="47" on="0"/>
        <pt x="19" y="115" on="1"/>
        <pt x="49" y="140" on="1"/>
        <pt x="66" y="117" on="0"/>
        <pt x="106" y="76" on="0"/>
        <pt x="156" y="44" on="0"/>
        <pt x="217" y="25" on="0"/>
        <pt x="255" y="25" on="1"/>
        <pt x="287" y="25" on="0"/>
        <pt x="343" y="43" on="0"/>
        <pt x="385" y="79" on="0"/>
        <pt x="409" y="131" on="0"/>
        <pt x="409" y="165" on="1"/>
        <pt x="409" y="237" on="0"/>
        <pt x="318" y="315" on="0"/>
        <pt x="239" y="315" on="1"/>
        <pt x="154" y="315" on="1"/>
      </contour>
    </TTGlyph>
    <TTGlyph name="afii10026" xMin="15" yMin="0" xMax="635" yMax="660">
      <contour>
        <pt x="95" y="530" on="1"/>
        <pt x="95" y="575" on="0"/>
        <pt x="70" y="630" on="0"/>
        <pt x="25" y="630" on="1"/>
        <pt x="15" y="630" on="1"/>
        <pt x="15" y="660" on="1"/>
        <pt x="135" y="660" on="1"/>
        <pt x="161" y="660" on="0"/>
        <pt x="196" y="647" on="0"/>
        <pt x="217" y="617" on="0"/>
        <pt x="225" y="567" on="0"/>
        <pt x="225" y="530" on="1"/>
        <pt x="225" y="130" on="1"/>
        <pt x="515" y="660" on="1"/>
        <pt x="635" y="660" on="1"/>
        <pt x="635" y="0" on="1"/>
        <pt x="505" y="0" on="1"/>
        <pt x="505" y="530" on="1"/>
        <pt x="215" y="0" on="1"/>
        <pt x="95" y="0" on="1"/>
      </contour>
    </TTGlyph>
    <TTGlyph name="afii10027" xMin="15" yMin="0" xMax="635" yMax="820">
      <component glyphName="afii10026" x="0" y="0" flags="0x204"/>
      <component glyphName="breve" x="203" y="195" flags="0x4"/>
    </TTGlyph>
    <TTGlyph name="afii10028" xMin="15" yMin="-10" xMax="704" yMax="660">
      <component glyphName="K" x="0" y="0" flags="0x200"/>
    </TTGlyph>
    <TTGlyph name="afii10029" xMin="-8" yMin="-15" xMax="605" yMax="660">
      <contour>
        <pt x="150" y="530" on="1"/>
        <pt x="150" y="575" on="0"/>
        <pt x="125" y="630" on="0"/>
        <pt x="80" y="630" on="1"/>
        <pt x="70" y="630" on="1"/>
        <pt x="70" y="660" on="1"/>
        <pt x="605" y="660" on="1"/>
        <pt x="605" y="0" on="1"/>
        <pt x="475" y="0" on="1"/>
        <pt x="475" y="615" on="1"/>
        <pt x="259" y="615" on="1"/>
        <pt x="259" y="530" on="1"/>
        <pt x="259" y="371" on="0"/>
        <pt x="228" y="160" on="0"/>
        <pt x="173" y="36" on="0"/>
        <pt x="97" y="-15" on="0"/>
        <pt x="52" y="-15" on="1"/>
        <pt x="33" y="-15" on="0"/>
        <pt x="3" y="-10" on="0"/>
        <pt x="-8" y="-6" on="1"/>
        <pt x="-8" y="25" on="1"/>
        <pt x="24" y="32" on="0"/>
        <pt x="81" y="77" on="0"/>
        <pt x="124" y="186" on="0"/>
        <pt x="150" y="376" on="0"/>
      </contour>
    </TTGlyph>
    <TTGlyph name="afii10030" xMin="74" yMin="-45" xMax="847" yMax="660">
      <component glyphName="M" x="0" y="0" flags="0x200"/>
    </TTGlyph>
    <TTGlyph name="afii10031" xMin="15" yMin="0" xMax="705" yMax="660">
      <component glyphName="H" x="0" y="0" flags="0x200"/>
    </TTGlyph>
    <TTGlyph name="afii10032" xMin="37" yMin="-20" xMax="696" yMax="680">
      <component glyphName="O" x="0" y="0" flags="0x200"/>
    </TTGlyph>
    <TTGlyph name="afii10033" xMin="15" yMin="0" xMax="615" yMax="660">
      <contour>
        <pt x="95" y="530" on="1"/>
        <pt x="95" y="575" on="0"/>
        <pt x="70" y="630" on="0"/>
        <pt x="25" y="630" on="1"/>
        <pt x="15" y="630" on="1"/>
        <pt x="15" y="660" on="1"/>
        <pt x="615" y="660" on="1"/>
        <pt x="615" y="0" on="1"/>
        <pt x="485" y="0" on="1"/>
        <pt x="485" y="615" on="1"/>
        <pt x="225" y="615" on="1"/>
        <pt x="225" y="0" on="1"/>
        <pt x="95" y="0" on="1"/>
      </contour>
    </TTGlyph>
    <TTGlyph name="afii10034" xMin="15" yMin="0" xMax="560" yMax="660">
      <component glyphName="P" x="0" y="0" flags="0x200"/>
    </TTGlyph>
    <TTGlyph name="afii10035" xMin="37" yMin="-20" xMax="655" yMax="680">
      <component glyphName="C" x="0" y="0" flags="0x200"/>
    </TTGlyph>
    <TTGlyph name="afii10036" xMin="16" yMin="0" xMax="571" yMax="660">
      <component glyphName="T" x="0" y="0" flags="0x200"/>
    </TTGlyph>
    <TTGlyph name="afii10037" xMin="-31" yMin="-10" xMax="612" yMax="660">
      <contour>
        <pt x="93" y="530" on="1"/>
        <pt x="71" y="578" on="0"/>
        <pt x="9" y="636" on="0"/>
        <pt x="-31" y="640" on="1"/>
        <pt x="-31" y="660" on="1"/>
        <pt x="69" y="660" on="1"/>
        <pt x="126" y="660" on="0"/>
        <pt x="210" y="598" on="0"/>
        <pt x="232" y="550" on="1"/>
        <pt x="370" y="268" on="1"/>
        <pt x="547" y="660" on="1"/>
        <pt x="612" y="660" on="1"/>
        <pt x="356" y="95" on="1"/>
        <pt x="335" y="46" on="0"/>
        <pt x="252" y="-10" on="0"/>
        <pt x="192" y="-10" on="1"/>
        <pt x="142" y="-10" on="1"/>
        <pt x="142" y="26" on="1"/>
        <pt x="164" y="26" on="0"/>
        <pt x="209" y="31" on="0"/>
        <pt x="248" y="46" on="0"/>
        <pt x="281" y="73" on="0"/>
        <pt x="291" y="95" on="1"/>
        <pt x="298" y="110" on="1"/>
      </contour>
    </TTGlyph>
    <TTGlyph name="afii10038" xMin="26" yMin="-40" xMax="796" yMax="700">
      <contour>
        <pt x="166" y="315" on="1"/>
        <pt x="166" y="266" on="0"/>
        <pt x="188" y="180" on="0"/>
        <pt x="233" y="117" on="0"/>
        <pt x="301" y="80" on="0"/>
        <pt x="346" y="80" on="1"/>
        <pt x="346" y="550" on="1"/>
        <pt x="301" y="550" on="0"/>
        <pt x="233" y="513" on="0"/>
        <pt x="188" y="450" on="0"/>
        <pt x="166" y="364" on="0"/>
      </contour>
      <contour>
        <pt x="656" y="315" on="1"/>
        <pt x="656" y="364" on="0"/>
        <pt x="633" y="450" on="0"/>
        <pt x="588" y="513" on="0"/>
        <pt x="521" y="550" on="0"/>
        <pt x="476" y="550" on="1"/>
        <pt x="476" y="80" on="1"/>
        <pt x="521" y="80" on="0"/>
        <pt x="588" y="117" on="0"/>
        <pt x="633" y="180" on="0"/>
        <pt x="656" y="266" on="0"/>
      </contour>
      <contour>
        <pt x="476" y="595" on="1"/>
        <pt x="555" y="595" on="0"/>
        <pt x="674" y="555" on="0"/>
        <pt x="755" y="482" on="0"/>
        <pt x="796" y="379" on="0"/>
        <pt x="796" y="315" on="1"/>
        <pt x="796" y="251" on="0"/>
        <pt x="755" y="148" on="0"/>
        <pt x="674" y="75" on="0"/>
        <pt x="555" y="35" on="0"/>
        <pt x="476" y="35" on="1"/>
        <pt x="476" y="-40" on="1"/>
        <pt x="346" y="-40" on="1"/>
        <pt x="346" y="35" on="1"/>
        <pt x="267" y="35" on="0"/>
        <pt x="148" y="75" on="0"/>
        <pt x="67" y="148" on="0"/>
        <pt x="26" y="251" on="0"/>
        <pt x="26" y="315" on="1"/>
        <pt x="26" y="379" on="0"/>
        <pt x="67" y="482" on="0"/>
        <pt x="148" y="555" on="0"/>
        <pt x="267" y="595" on="0"/>
        <pt x="346" y="595" on="1"/>
        <pt x="346" y="608" on="0"/>
        <pt x="341" y="635" on="0"/>
        <pt x="326" y="656" on="0"/>
        <pt x="298" y="670" on="0"/>
        <pt x="276" y="670" on="1"/>
        <pt x="266" y="670" on="1"/>
        <pt x="266" y="700" on="1"/>
        <pt x="386" y="700" on="1"/>
        <pt x="438" y="700" on="0"/>
        <pt x="476" y="652" on="0"/>
      </contour>
    </TTGlyph>
    <TTGlyph name="afii10039" xMin="-13" yMin="0" xMax="667" yMax="660">
      <component glyphName="X" x="0" y="0" flags="0x200"/>
    </TTGlyph>
    <TTGlyph name="afii10040" xMin="15" yMin="-185" xMax="685" yMax="660">
      <contour>
        <pt x="95" y="530" on="1"/>
        <pt x="95" y="575" on="0"/>
        <pt x="70" y="630" on="0"/>
        <pt x="25" y="630" on="1"/>
        <pt x="15" y="630" on="1"/>
        <pt x="15" y="660" on="1"/>
        <pt x="135" y="660" on="1"/>
        <pt x="161" y="660" on="0"/>
        <pt x="196" y="647" on="0"/>
        <pt x="217" y="617" on="0"/>
        <pt x="225" y="567" on="0"/>
        <pt x="225" y="530" on="1"/>
        <pt x="225" y="45" on="1"/>
        <pt x="485" y="45" on="1"/>
        <pt x="485" y="660" on="1"/>
        <pt x="615" y="660" on="1"/>
        <pt x="615" y="45" on="1"/>
        <pt x="650" y="45" on="1"/>
        <pt x="665" y="45" on="0"/>
        <pt x="685" y="25" on="0"/>
        <pt x="685" y="10" on="1"/>
        <pt x="685" y="-185" on="1"/>
        <pt x="635" y="-185" on="1"/>
        <pt x="629" y="-131" on="0"/>
        <pt x="609" y="-59" on="0"/>
        <pt x="578" y="-17" on="0"/>
        <pt x="537" y="0" on="0"/>
        <pt x="510" y="0" on="1"/>
        <pt x="95" y="0" on="1"/>
      </contour>
    </TTGlyph>
    <TTGlyph name="afii10041" xMin="-1" yMin="0" xMax="589" yMax="660">
      <contour>
        <pt x="79" y="530" on="1"/>
        <pt x="79" y="575" on="0"/>
        <pt x="54" y="630" on="0"/>
        <pt x="9" y="630" on="1"/>
        <pt x="-1" y="630" on="1"/>
        <pt x="-1" y="660" on="1"/>
        <pt x="119" y="660" on="1"/>
        <pt x="145" y="660" on="0"/>
        <pt x="180" y="647" on="0"/>
        <pt x="201" y="617" on="0"/>
        <pt x="209" y="567" on="0"/>
        <pt x="209" y="530" on="1"/>
        <pt x="209" y="450" on="1"/>
        <pt x="209" y="367" on="0"/>
        <pt x="289" y="285" on="0"/>
        <pt x="349" y="285" on="1"/>
        <pt x="380" y="285" on="0"/>
        <pt x="436" y="296" on="0"/>
        <pt x="459" y="305" on="1"/>
        <pt x="459" y="660" on="1"/>
        <pt x="589" y="660" on="1"/>
        <pt x="589" y="0" on="1"/>
        <pt x="459" y="0" on="1"/>
        <pt x="459" y="260" on="1"/>
        <pt x="436" y="250" on="0"/>
        <pt x="367" y="240" on="0"/>
        <pt x="330" y="240" on="1"/>
        <pt x="209" y="240" on="0"/>
        <pt x="79" y="347" on="0"/>
        <pt x="79" y="460" on="1"/>
      </contour>
    </TTGlyph>
    <TTGlyph name="afii10042" xMin="15" yMin="0" xMax="875" yMax="660">
      <contour>
        <pt x="95" y="530" on="1"/>
        <pt x="95" y="575" on="0"/>
        <pt x="70" y="630" on="0"/>
        <pt x="25" y="630" on="1"/>
        <pt x="15" y="630" on="1"/>
        <pt x="15" y="660" on="1"/>
        <pt x="135" y="660" on="1"/>
        <pt x="161" y="660" on="0"/>
        <pt x="196" y="647" on="0"/>
        <pt x="217" y="617" on="0"/>
        <pt x="225" y="567" on="0"/>
        <pt x="225" y="530" on="1"/>
        <pt x="225" y="45" on="1"/>
        <pt x="420" y="45" on="1"/>
        <pt x="420" y="660" on="1"/>
        <pt x="550" y="660" on="1"/>
        <pt x="550" y="45" on="1"/>
        <pt x="745" y="45" on="1"/>
        <pt x="745" y="660" on="1"/>
        <pt x="875" y="660" on="1"/>
        <pt x="875" y="0" on="1"/>
        <pt x="95" y="0" on="1"/>
      </contour>
    </TTGlyph>
    <TTGlyph name="afii10043" xMin="15" yMin="-185" xMax="945" yMax="660">
      <contour>
        <pt x="95" y="0" on="1"/>
        <pt x="95" y="530" on="1"/>
        <pt x="95" y="575" on="0"/>
        <pt x="70" y="630" on="0"/>
        <pt x="25" y="630" on="1"/>
        <pt x="15" y="630" on="1"/>
        <pt x="15" y="660" on="1"/>
        <pt x="135" y="660" on="1"/>
        <pt x="161" y="660" on="0"/>
        <pt x="196" y="647" on="0"/>
        <pt x="217" y="617" on="0"/>
        <pt x="225" y="567" on="0"/>
        <pt x="225" y="530" on="1"/>
        <pt x="225" y="45" on="1"/>
        <pt x="420" y="45" on="1"/>
        <pt x="420" y="660" on="1"/>
        <pt x="550" y="660" on="1"/>
        <pt x="550" y="45" on="1"/>
        <pt x="745" y="45" on="1"/>
        <pt x="745" y="660" on="1"/>
        <pt x="875" y="660" on="1"/>
        <pt x="875" y="45" on="1"/>
        <pt x="910" y="45" on="1"/>
        <pt x="925" y="45" on="0"/>
        <pt x="945" y="25" on="0"/>
        <pt x="945" y="10" on="1"/>
        <pt x="945" y="-185" on="1"/>
        <pt x="895" y="-185" on="1"/>
        <pt x="889" y="-131" on="0"/>
        <pt x="869" y="-59" on="0"/>
        <pt x="838" y="-17" on="0"/>
        <pt x="797" y="0" on="0"/>
        <pt x="770" y="0" on="1"/>
      </contour>
    </TTGlyph>
    <TTGlyph name="afii10044" xMin="24" yMin="0" xMax="705" yMax="660">
      <contour>
        <pt x="320" y="390" on="1"/>
        <pt x="410" y="390" on="1"/>
        <pt x="464" y="390" on="0"/>
        <pt x="570" y="373" on="0"/>
        <pt x="653" y="329" on="0"/>
        <pt x="705" y="253" on="0"/>
        <pt x="705" y="195" on="1"/>
        <pt x="705" y="137" on="0"/>
        <pt x="653" y="61" on="0"/>
        <pt x="570" y="17" on="0"/>
        <pt x="464" y="0" on="0"/>
        <pt x="410" y="0" on="1"/>
        <pt x="190" y="0" on="1"/>
        <pt x="190" y="615" on="1"/>
        <pt x="179" y="615" on="1"/>
        <pt x="122" y="615" on="0"/>
        <pt x="68" y="543" on="0"/>
        <pt x="64" y="460" on="1"/>
        <pt x="24" y="460" on="1"/>
        <pt x="24" y="625" on="1"/>
        <pt x="24" y="640" on="0"/>
        <pt x="44" y="660" on="0"/>
        <pt x="59" y="660" on="1"/>
        <pt x="320" y="660" on="1"/>
      </contour>
      <contour>
        <pt x="390" y="350" on="1"/>
        <pt x="375" y="350" on="0"/>
        <pt x="349" y="347" on="0"/>
        <pt x="340" y="345" on="1"/>
        <pt x="329" y="342" on="0"/>
        <pt x="320" y="340" on="1"/>
        <pt x="320" y="50" on="1"/>
        <pt x="329" y="47" on="0"/>
        <pt x="340" y="45" on="1"/>
        <pt x="360" y="40" on="0"/>
        <pt x="390" y="40" on="1"/>
        <pt x="395" y="40" on="1"/>
        <pt x="485" y="40" on="0"/>
        <pt x="565" y="120" on="0"/>
        <pt x="565" y="195" on="1"/>
        <pt x="565" y="270" on="0"/>
        <pt x="485" y="350" on="0"/>
        <pt x="395" y="350" on="1"/>
      </contour>
    </TTGlyph>
    <TTGlyph name="afii10045" xMin="15" yMin="0" xMax="879" yMax="660">
      <contour>
        <pt x="290" y="350" on="1"/>
        <pt x="276" y="350" on="0"/>
        <pt x="253" y="347" on="0"/>
        <pt x="244" y="345" on="1"/>
        <pt x="233" y="342" on="0"/>
        <pt x="225" y="340" on="1"/>
        <pt x="225" y="50" on="1"/>
        <pt x="233" y="47" on="0"/>
        <pt x="244" y="45" on="1"/>
        <pt x="264" y="40" on="0"/>
        <pt x="290" y="40" on="1"/>
        <pt x="380" y="40" on="0"/>
        <pt x="460" y="120" on="0"/>
        <pt x="460" y="195" on="1"/>
        <pt x="460" y="270" on="0"/>
        <pt x="380" y="350" on="0"/>
      </contour>
      <contour>
        <pt x="225" y="390" on="1"/>
        <pt x="305" y="390" on="1"/>
        <pt x="359" y="390" on="0"/>
        <pt x="465" y="373" on="0"/>
        <pt x="548" y="329" on="0"/>
        <pt x="600" y="253" on="0"/>
        <pt x="600" y="195" on="1"/>
        <pt x="600" y="137" on="0"/>
        <pt x="548" y="61" on="0"/>
        <pt x="465" y="17" on="0"/>
        <pt x="359" y="0" on="0"/>
        <pt x="305" y="0" on="1"/>
        <pt x="95" y="0" on="1"/>
        <pt x="95" y="530" on="1"/>
        <pt x="95" y="575" on="0"/>
        <pt x="70" y="630" on="0"/>
        <pt x="25" y="630" on="1"/>
        <pt x="15" y="630" on="1"/>
        <pt x="15" y="660" on="1"/>
        <pt x="135" y="660" on="1"/>
        <pt x="161" y="660" on="0"/>
        <pt x="196" y="647" on="0"/>
        <pt x="217" y="617" on="0"/>
        <pt x="225" y="567" on="0"/>
        <pt x="225" y="530" on="1"/>
      </contour>
      <contour>
        <pt x="799" y="130" on="1"/>
        <pt x="799" y="85" on="0"/>
        <pt x="824" y="30" on="0"/>
        <pt x="869" y="30" on="1"/>
        <pt x="879" y="30" on="1"/>
        <pt x="879" y="0" on="1"/>
        <pt x="759" y="0" on="1"/>
        <pt x="733" y="0" on="0"/>
        <pt x="698" y="12" on="0"/>
        <pt x="677" y="42" on="0"/>
        <pt x="669" y="92" on="0"/>
        <pt x="669" y="130" on="1"/>
        <pt x="669" y="660" on="1"/>
        <pt x="799" y="660" on="1"/>
      </contour>
    </TTGlyph>
    <TTGlyph name="afii10046" xMin="15" yMin="0" xMax="610" yMax="660">
      <contour>
        <pt x="295" y="350" on="1"/>
        <pt x="280" y="350" on="0"/>
        <pt x="254" y="347" on="0"/>
        <pt x="245" y="345" on="1"/>
        <pt x="234" y="342" on="0"/>
        <pt x="225" y="340" on="1"/>
        <pt x="225" y="50" on="1"/>
        <pt x="234" y="47" on="0"/>
        <pt x="245" y="45" on="1"/>
        <pt x="265" y="40" on="0"/>
        <pt x="295" y="40" on="1"/>
        <pt x="300" y="40" on="1"/>
        <pt x="390" y="40" on="0"/>
        <pt x="470" y="120" on="0"/>
        <pt x="470" y="195" on="1"/>
        <pt x="470" y="270" on="0"/>
        <pt x="390" y="350" on="0"/>
        <pt x="300" y="350" on="1"/>
      </contour>
      <contour>
        <pt x="225" y="390" on="1"/>
        <pt x="315" y="390" on="1"/>
        <pt x="369" y="390" on="0"/>
        <pt x="475" y="373" on="0"/>
        <pt x="558" y="329" on="0"/>
        <pt x="610" y="253" on="0"/>
        <pt x="610" y="195" on="1"/>
        <pt x="610" y="137" on="0"/>
        <pt x="558" y="61" on="0"/>
        <pt x="475" y="17" on="0"/>
        <pt x="369" y="0" on="0"/>
        <pt x="315" y="0" on="1"/>
        <pt x="95" y="0" on="1"/>
        <pt x="95" y="530" on="1"/>
        <pt x="95" y="575" on="0"/>
        <pt x="70" y="630" on="0"/>
        <pt x="25" y="630" on="1"/>
        <pt x="15" y="630" on="1"/>
        <pt x="15" y="660" on="1"/>
        <pt x="135" y="660" on="1"/>
        <pt x="161" y="660" on="0"/>
        <pt x="196" y="647" on="0"/>
        <pt x="217" y="617" on="0"/>
        <pt x="225" y="567" on="0"/>
        <pt x="225" y="530" on="1"/>
      </contour>
    </TTGlyph>
    <TTGlyph name="afii10047" xMin="25" yMin="-20" xMax="643" yMax="680">
      <contour>
        <pt x="50" y="447" on="1"/>
        <pt x="50" y="491" on="0"/>
        <pt x="56" y="573" on="0"/>
        <pt x="76" y="599" on="1"/>
        <pt x="104" y="631" on="0"/>
        <pt x="219" y="680" on="0"/>
        <pt x="313" y="680" on="1"/>
        <pt x="384" y="680" on="0"/>
        <pt x="505" y="624" on="0"/>
        <pt x="593" y="527" on="0"/>
        <pt x="643" y="396" on="0"/>
        <pt x="643" y="320" on="1"/>
        <pt x="643" y="248" on="0"/>
        <pt x="599" y="124" on="0"/>
        <pt x="515" y="32" on="0"/>
        <pt x="392" y="-20" on="0"/>
        <pt x="313" y="-20" on="1"/>
        <pt x="208" y="-20" on="0"/>
        <pt x="72" y="58" on="0"/>
        <pt x="25" y="141" on="1"/>
        <pt x="60" y="168" on="1"/>
        <pt x="96" y="98" on="0"/>
        <pt x="214" y="25" on="0"/>
        <pt x="283" y="25" on="1"/>
        <pt x="341" y="25" on="0"/>
        <pt x="424" y="72" on="0"/>
        <pt x="476" y="151" on="0"/>
        <pt x="502" y="254" on="0"/>
        <pt x="503" y="310" on="1"/>
        <pt x="193" y="310" on="1"/>
        <pt x="193" y="355" on="1"/>
        <pt x="502" y="355" on="1"/>
        <pt x="499" y="436" on="0"/>
        <pt x="462" y="543" on="0"/>
        <pt x="403" y="608" on="0"/>
        <pt x="326" y="635" on="0"/>
        <pt x="283" y="635" on="1"/>
        <pt x="200" y="635" on="0"/>
        <pt x="99" y="538" on="0"/>
        <pt x="80" y="447" on="1"/>
      </contour>
    </TTGlyph>
    <TTGlyph name="afii10048" xMin="15" yMin="-20" xMax="879" yMax="680">
      <contour>
        <pt x="580" y="-20" on="1"/>
        <pt x="518" y="-20" on="0"/>
        <pt x="410" y="29" on="0"/>
        <pt x="329" y="119" on="0"/>
        <pt x="281" y="244" on="0"/>
        <pt x="280" y="320" on="1"/>
        <pt x="225" y="320" on="1"/>
        <pt x="225" y="0" on="1"/>
        <pt x="95" y="0" on="1"/>
        <pt x="95" y="530" on="1"/>
        <pt x="95" y="575" on="0"/>
        <pt x="70" y="630" on="0"/>
        <pt x="25" y="630" on="1"/>
        <pt x="15" y="630" on="1"/>
        <pt x="15" y="660" on="1"/>
        <pt x="135" y="660" on="1"/>
        <pt x="161" y="660" on="0"/>
        <pt x="196" y="647" on="0"/>
        <pt x="217" y="617" on="0"/>
        <pt x="225" y="567" on="0"/>
        <pt x="225" y="530" on="1"/>
        <pt x="225" y="365" on="1"/>
        <pt x="281" y="365" on="1"/>
        <pt x="287" y="436" on="0"/>
        <pt x="337" y="552" on="0"/>
        <pt x="416" y="635" on="0"/>
        <pt x="520" y="680" on="0"/>
        <pt x="580" y="680" on="1"/>
        <pt x="643" y="680" on="0"/>
        <pt x="753" y="629" on="0"/>
        <pt x="833" y="537" on="0"/>
        <pt x="879" y="408" on="0"/>
        <pt x="879" y="330" on="1"/>
        <pt x="879" y="252" on="0"/>
        <pt x="833" y="123" on="0"/>
        <pt x="753" y="31" on="0"/>
        <pt x="643" y="-20" on="0"/>
      </contour>
      <contour>
        <pt x="741" y="330" on="1"/>
        <pt x="741" y="406" on="0"/>
        <pt x="716" y="520" on="0"/>
        <pt x="673" y="597" on="0"/>
        <pt x="614" y="635" on="0"/>
        <pt x="580" y="635" on="1"/>
        <pt x="546" y="635" on="0"/>
        <pt x="487" y="597" on="0"/>
        <pt x="444" y="520" on="0"/>
        <pt x="420" y="406" on="0"/>
        <pt x="420" y="330" on="1"/>
        <pt x="420" y="254" on="0"/>
        <pt x="444" y="140" on="0"/>
        <pt x="487" y="63" on="0"/>
        <pt x="546" y="25" on="0"/>
        <pt x="580" y="25" on="1"/>
        <pt x="614" y="25" on="0"/>
        <pt x="673" y="63" on="0"/>
        <pt x="716" y="140" on="0"/>
        <pt x="741" y="254" on="0"/>
      </contour>
    </TTGlyph>
    <TTGlyph name="afii10049" xMin="9" yMin="-16" xMax="612" yMax="660">
      <contour>
        <pt x="336" y="620" on="1"/>
        <pt x="314" y="620" on="0"/>
        <pt x="268" y="601" on="0"/>
        <pt x="230" y="563" on="0"/>
        <pt x="206" y="505" on="0"/>
        <pt x="206" y="466" on="1"/>
        <pt x="206" y="426" on="0"/>
        <pt x="230" y="368" on="0"/>
        <pt x="269" y="330" on="0"/>
        <pt x="317" y="312" on="0"/>
        <pt x="341" y="312" on="1"/>
        <pt x="401" y="312" on="1"/>
        <pt x="401" y="613" on="1"/>
        <pt x="392" y="614" on="0"/>
        <pt x="381" y="616" on="1"/>
        <pt x="372" y="618" on="0"/>
        <pt x="348" y="620" on="0"/>
      </contour>
      <contour>
        <pt x="267" y="129" on="1"/>
        <pt x="216" y="48" on="0"/>
        <pt x="126" y="-16" on="0"/>
        <pt x="77" y="-16" on="1"/>
        <pt x="58" y="-16" on="0"/>
        <pt x="17" y="-10" on="0"/>
        <pt x="9" y="-6" on="1"/>
        <pt x="9" y="19" on="1"/>
        <pt x="20" y="21" on="0"/>
        <pt x="47" y="32" on="0"/>
        <pt x="78" y="57" on="0"/>
        <pt x="113" y="98" on="0"/>
        <pt x="133" y="129" on="1"/>
        <pt x="228" y="280" on="1"/>
        <pt x="200" y="286" on="0"/>
        <pt x="143" y="314" on="0"/>
        <pt x="96" y="359" on="0"/>
        <pt x="66" y="421" on="0"/>
        <pt x="66" y="461" on="1"/>
        <pt x="66" y="522" on="0"/>
        <pt x="120" y="600" on="0"/>
        <pt x="201" y="644" on="0"/>
        <pt x="296" y="660" on="0"/>
        <pt x="336" y="660" on="1"/>
        <pt x="612" y="660" on="1"/>
        <pt x="612" y="630" on="1"/>
        <pt x="602" y="630" on="1"/>
        <pt x="557" y="630" on="0"/>
        <pt x="532" y="575" on="0"/>
        <pt x="532" y="530" on="1"/>
        <pt x="532" y="0" on="1"/>
        <pt x="401" y="0" on="1"/>
        <pt x="401" y="272" on="1"/>
        <pt x="357" y="272" on="1"/>
      </contour>
    </TTGlyph>
    <TTGlyph name="afii10050" xMin="15" yMin="0" xMax="529" yMax="780">
      <contour>
        <pt x="225" y="615" on="1"/>
        <pt x="225" y="0" on="1"/>
        <pt x="95" y="0" on="1"/>
        <pt x="95" y="530" on="1"/>
        <pt x="95" y="575" on="0"/>
        <pt x="70" y="630" on="0"/>
        <pt x="25" y="630" on="1"/>
        <pt x="15" y="630" on="1"/>
        <pt x="15" y="660" on="1"/>
        <pt x="374" y="660" on="1"/>
        <pt x="434" y="660" on="0"/>
        <pt x="499" y="715" on="0"/>
        <pt x="499" y="780" on="1"/>
        <pt x="529" y="780" on="1"/>
        <pt x="529" y="695" on="1"/>
        <pt x="529" y="680" on="0"/>
        <pt x="522" y="651" on="0"/>
        <pt x="503" y="629" on="0"/>
        <pt x="470" y="615" on="0"/>
        <pt x="444" y="615" on="1"/>
      </contour>
    </TTGlyph>
    <TTGlyph name="afii10051" xMin="-6" yMin="-40" xMax="614" yMax="660">
      <contour>
        <pt x="484" y="200" on="1"/>
        <pt x="484" y="252" on="0"/>
        <pt x="465" y="322" on="0"/>
        <pt x="434" y="363" on="0"/>
        <pt x="395" y="380" on="0"/>
        <pt x="374" y="380" on="1"/>
        <pt x="336" y="380" on="0"/>
        <pt x="267" y="360" on="0"/>
        <pt x="244" y="345" on="1"/>
        <pt x="244" y="0" on="1"/>
        <pt x="114" y="0" on="1"/>
        <pt x="114" y="615" on="1"/>
        <pt x="-6" y="615" on="1"/>
        <pt x="-6" y="660" on="1"/>
        <pt x="364" y="660" on="1"/>
        <pt x="364" y="615" on="1"/>
        <pt x="244" y="615" on="1"/>
        <pt x="244" y="390" on="1"/>
        <pt x="267" y="405" on="0"/>
        <pt x="348" y="430" on="0"/>
        <pt x="394" y="430" on="1"/>
        <pt x="441" y="430" on="0"/>
        <pt x="521" y="410" on="0"/>
        <pt x="580" y="359" on="0"/>
        <pt x="614" y="269" on="0"/>
        <pt x="614" y="200" on="1"/>
        <pt x="614" y="134" on="0"/>
        <pt x="585" y="43" on="0"/>
        <pt x="529" y="-14" on="0"/>
        <pt x="450" y="-40" on="0"/>
        <pt x="399" y="-40" on="1"/>
        <pt x="399" y="-15" on="1"/>
        <pt x="439" y="-15" on="0"/>
        <pt x="484" y="89" on="0"/>
      </contour>
    </TTGlyph>
    <TTGlyph name="afii10052" xMin="15" yMin="0" xMax="529" yMax="843">
      <component glyphName="afii10020" x="0" y="0" flags="0x204"/>
      <component glyphName="acute" x="209" y="3" flags="0x4"/>
    </TTGlyph>
    <TTGlyph name="afii10053" xMin="37" yMin="-20" xMax="655" yMax="680">
      <contour>
        <pt x="600" y="447" on="1"/>
        <pt x="581" y="538" on="0"/>
        <pt x="480" y="635" on="0"/>
        <pt x="397" y="635" on="1"/>
        <pt x="353" y="635" on="0"/>
        <pt x="277" y="608" on="0"/>
        <pt x="218" y="543" on="0"/>
        <pt x="181" y="436" on="0"/>
        <pt x="178" y="355" on="1"/>
        <pt x="487" y="355" on="1"/>
        <pt x="487" y="310" on="1"/>
        <pt x="177" y="310" on="1"/>
        <pt x="178" y="254" on="0"/>
        <pt x="204" y="151" on="0"/>
        <pt x="256" y="72" on="0"/>
        <pt x="339" y="25" on="0"/>
        <pt x="397" y="25" on="1"/>
        <pt x="466" y="25" on="0"/>
        <pt x="584" y="98" on="0"/>
        <pt x="620" y="168" on="1"/>
        <pt x="655" y="141" on="1"/>
        <pt x="608" y="58" on="0"/>
        <pt x="472" y="-20" on="0"/>
        <pt x="367" y="-20" on="1"/>
        <pt x="288" y="-20" on="0"/>
        <pt x="165" y="32" on="0"/>
        <pt x="81" y="124" on="0"/>
        <pt x="37" y="248" on="0"/>
        <pt x="37" y="320" on="1"/>
        <pt x="37" y="396" on="0"/>
        <pt x="87" y="527" on="0"/>
        <pt x="175" y="624" on="0"/>
        <pt x="296" y="680" on="0"/>
        <pt x="367" y="680" on="1"/>
        <pt x="461" y="680" on="0"/>
        <pt x="576" y="631" on="0"/>
        <pt x="604" y="599" on="1"/>
        <pt x="624" y="573" on="0"/>
        <pt x="630" y="491" on="0"/>
        <pt x="630" y="447" on="1"/>
      </contour>
    </TTGlyph>
    <TTGlyph name="afii10054" xMin="47" yMin="-17" xMax="524" yMax="678">
      <component glyphName="S" x="0" y="0" flags="0x200"/>
    </TTGlyph>
    <TTGlyph name="afii10055" xMin="79" yMin="0" xMax="289" yMax="660">
      <component glyphName="I" x="0" y="0" flags="0x200"/>
    </TTGlyph>
    <TTGlyph name="afii10056" xMin="5" yMin="0" xMax="289" yMax="827">
      <component glyphName="Idieresis" x="0" y="0" flags="0x200"/>
    </TTGlyph>
    <TTGlyph name="afii10057" xMin="-19" yMin="-137" xMax="204" yMax="660">
      <component glyphName="J" x="0" y="0" flags="0x200"/>
    </TTGlyph>
    <TTGlyph name="afii10058" xMin="-8" yMin="-15" xMax="971" yMax="660">
      <contour>
        <pt x="260" y="530" on="1"/>
        <pt x="260" y="371" on="0"/>
        <pt x="229" y="160" on="0"/>
        <pt x="173" y="36" on="0"/>
        <pt x="97" y="-15" on="0"/>
        <pt x="52" y="-15" on="1"/>
        <pt x="33" y="-15" on="0"/>
        <pt x="3" y="-10" on="0"/>
        <pt x="-8" y="-6" on="1"/>
        <pt x="-8" y="25" on="1"/>
        <pt x="24" y="32" on="0"/>
        <pt x="81" y="77" on="0"/>
        <pt x="124" y="186" on="0"/>
        <pt x="150" y="376" on="0"/>
        <pt x="150" y="530" on="1"/>
        <pt x="150" y="552" on="0"/>
        <pt x="145" y="589" on="0"/>
        <pt x="131" y="616" on="0"/>
        <pt x="103" y="630" on="0"/>
        <pt x="81" y="630" on="1"/>
        <pt x="71" y="630" on="1"/>
        <pt x="71" y="660" on="1"/>
        <pt x="596" y="660" on="1"/>
        <pt x="596" y="390" on="1"/>
        <pt x="686" y="390" on="1"/>
        <pt x="736" y="390" on="0"/>
        <pt x="838" y="373" on="0"/>
        <pt x="920" y="329" on="0"/>
        <pt x="971" y="253" on="0"/>
        <pt x="971" y="195" on="1"/>
        <pt x="971" y="137" on="0"/>
        <pt x="920" y="61" on="0"/>
        <pt x="838" y="17" on="0"/>
        <pt x="736" y="0" on="0"/>
        <pt x="686" y="0" on="1"/>
        <pt x="466" y="0" on="1"/>
        <pt x="466" y="615" on="1"/>
        <pt x="260" y="615" on="1"/>
      </contour>
      <contour>
        <pt x="666" y="350" on="1"/>
        <pt x="651" y="350" on="0"/>
        <pt x="625" y="347" on="0"/>
        <pt x="616" y="345" on="1"/>
        <pt x="605" y="342" on="0"/>
        <pt x="596" y="340" on="1"/>
        <pt x="596" y="50" on="1"/>
        <pt x="605" y="47" on="0"/>
        <pt x="616" y="45" on="1"/>
        <pt x="636" y="40" on="0"/>
        <pt x="666" y="40" on="1"/>
        <pt x="671" y="40" on="1"/>
        <pt x="753" y="40" on="0"/>
        <pt x="831" y="120" on="0"/>
        <pt x="831" y="195" on="1"/>
        <pt x="831" y="270" on="0"/>
        <pt x="753" y="350" on="0"/>
        <pt x="671" y="350" on="1"/>
      </contour>
    </TTGlyph>
    <TTGlyph name="afii10059" xMin="15" yMin="0" xMax="990" yMax="660">
      <contour>
        <pt x="225" y="365" on="1"/>
        <pt x="476" y="365" on="1"/>
        <pt x="476" y="660" on="1"/>
        <pt x="606" y="660" on="1"/>
        <pt x="606" y="370" on="1"/>
        <pt x="695" y="370" on="1"/>
        <pt x="749" y="370" on="0"/>
        <pt x="855" y="353" on="0"/>
        <pt x="938" y="311" on="0"/>
        <pt x="990" y="239" on="0"/>
        <pt x="990" y="185" on="1"/>
        <pt x="990" y="131" on="0"/>
        <pt x="938" y="59" on="0"/>
        <pt x="855" y="17" on="0"/>
        <pt x="749" y="0" on="0"/>
        <pt x="695" y="0" on="1"/>
        <pt x="476" y="0" on="1"/>
        <pt x="476" y="320" on="1"/>
        <pt x="225" y="320" on="1"/>
        <pt x="225" y="0" on="1"/>
        <pt x="95" y="0" on="1"/>
        <pt x="95" y="530" on="1"/>
        <pt x="95" y="575" on="0"/>
        <pt x="70" y="630" on="0"/>
        <pt x="25" y="630" on="1"/>
        <pt x="15" y="630" on="1"/>
        <pt x="15" y="660" on="1"/>
        <pt x="135" y="660" on="1"/>
        <pt x="161" y="660" on="0"/>
        <pt x="196" y="647" on="0"/>
        <pt x="217" y="617" on="0"/>
        <pt x="225" y="567" on="0"/>
        <pt x="225" y="530" on="1"/>
      </contour>
      <contour>
        <pt x="675" y="330" on="1"/>
        <pt x="648" y="330" on="0"/>
        <pt x="609" y="322" on="0"/>
        <pt x="605" y="320" on="1"/>
        <pt x="605" y="50" on="1"/>
        <pt x="614" y="47" on="0"/>
        <pt x="625" y="45" on="1"/>
        <pt x="645" y="40" on="0"/>
        <pt x="675" y="40" on="1"/>
        <pt x="680" y="40" on="1"/>
        <pt x="770" y="40" on="0"/>
        <pt x="850" y="117" on="0"/>
        <pt x="850" y="185" on="1"/>
        <pt x="850" y="253" on="0"/>
        <pt x="770" y="330" on="0"/>
        <pt x="680" y="330" on="1"/>
      </contour>
    </TTGlyph>
    <TTGlyph name="afii10060" xMin="-6" yMin="0" xMax="614" yMax="660">
      <contour>
        <pt x="244" y="0" on="1"/>
        <pt x="114" y="0" on="1"/>
        <pt x="114" y="615" on="1"/>
        <pt x="-6" y="615" on="1"/>
        <pt x="-6" y="660" on="1"/>
        <pt x="364" y="660" on="1"/>
        <pt x="364" y="615" on="1"/>
        <pt x="244" y="615" on="1"/>
        <pt x="244" y="390" on="1"/>
        <pt x="267" y="405" on="0"/>
        <pt x="348" y="430" on="0"/>
        <pt x="394" y="430" on="1"/>
        <pt x="433" y="430" on="0"/>
        <pt x="512" y="415" on="0"/>
        <pt x="575" y="374" on="0"/>
        <pt x="614" y="304" on="0"/>
        <pt x="614" y="250" on="1"/>
        <pt x="614" y="0" on="1"/>
        <pt x="484" y="0" on="1"/>
        <pt x="484" y="250" on="1"/>
        <pt x="484" y="287" on="0"/>
        <pt x="468" y="337" on="0"/>
        <pt x="439" y="367" on="0"/>
        <pt x="398" y="380" on="0"/>
        <pt x="374" y="380" on="1"/>
        <pt x="336" y="380" on="0"/>
        <pt x="267" y="360" on="0"/>
        <pt x="244" y="345" on="1"/>
      </contour>
    </TTGlyph>
    <TTGlyph name="afii10061" xMin="15" yMin="-10" xMax="704" yMax="816">
      <component glyphName="K" x="0" y="0" flags="0x204"/>
      <component glyphName="acute" x="267" y="-24" flags="0x4"/>
    </TTGlyph>
    <TTGlyph name="afii10062" xMin="-31" yMin="-10" xMax="612" yMax="780">
      <component glyphName="afii10037" x="0" y="0" flags="0x204"/>
      <component glyphName="breve" x="191" y="155" flags="0x4"/>
    </TTGlyph>
    <TTGlyph name="afii10065" xMin="29" yMin="-10" xMax="444" yMax="480">
      <component glyphName="a" x="0" y="0" flags="0x200"/>
    </TTGlyph>
    <TTGlyph name="afii10066" xMin="45" yMin="-10" xMax="505" yMax="695">
      <contour>
        <pt x="275" y="395" on="1"/>
        <pt x="260" y="395" on="0"/>
        <pt x="227" y="378" on="0"/>
        <pt x="198" y="337" on="0"/>
        <pt x="180" y="267" on="0"/>
        <pt x="180" y="215" on="1"/>
        <pt x="180" y="161" on="0"/>
        <pt x="198" y="91" on="0"/>
        <pt x="227" y="50" on="0"/>
        <pt x="260" y="35" on="0"/>
        <pt x="275" y="35" on="1"/>
        <pt x="290" y="35" on="0"/>
        <pt x="323" y="50" on="0"/>
        <pt x="352" y="91" on="0"/>
        <pt x="370" y="161" on="0"/>
        <pt x="370" y="215" on="1"/>
        <pt x="370" y="267" on="0"/>
        <pt x="352" y="337" on="0"/>
        <pt x="323" y="378" on="0"/>
        <pt x="290" y="395" on="0"/>
      </contour>
      <contour>
        <pt x="261" y="513" on="1"/>
        <pt x="231" y="506" on="0"/>
        <pt x="178" y="476" on="0"/>
        <pt x="137" y="427" on="0"/>
        <pt x="112" y="357" on="0"/>
        <pt x="110" y="310" on="1"/>
        <pt x="115" y="310" on="1"/>
        <pt x="138" y="370" on="0"/>
        <pt x="223" y="440" on="0"/>
        <pt x="295" y="440" on="1"/>
        <pt x="340" y="440" on="0"/>
        <pt x="417" y="413" on="0"/>
        <pt x="473" y="358" on="0"/>
        <pt x="505" y="273" on="0"/>
        <pt x="505" y="215" on="1"/>
        <pt x="505" y="99" on="0"/>
        <pt x="380" y="-10" on="0"/>
        <pt x="275" y="-10" on="1"/>
        <pt x="170" y="-10" on="0"/>
        <pt x="45" y="120" on="0"/>
        <pt x="45" y="240" on="1"/>
        <pt x="45" y="270" on="1"/>
        <pt x="45" y="366" on="0"/>
        <pt x="70" y="490" on="0"/>
        <pt x="117" y="566" on="0"/>
        <pt x="182" y="604" on="0"/>
        <pt x="221" y="613" on="1"/>
        <pt x="360" y="645" on="1"/>
        <pt x="402" y="655" on="0"/>
        <pt x="451" y="676" on="0"/>
        <pt x="455" y="695" on="1"/>
        <pt x="485" y="695" on="1"/>
        <pt x="485" y="615" on="1"/>
        <pt x="485" y="596" on="0"/>
        <pt x="462" y="558" on="0"/>
        <pt x="425" y="550" on="1"/>
      </contour>
    </TTGlyph>
    <TTGlyph name="afii10067" xMin="-1" yMin="0" xMax="489" yMax="470">
      <contour>
        <pt x="249" y="430" on="1"/>
        <pt x="241" y="430" on="0"/>
        <pt x="215" y="427" on="0"/>
        <pt x="204" y="423" on="1"/>
        <pt x="204" y="270" on="1"/>
        <pt x="239" y="270" on="1"/>
        <pt x="277" y="270" on="0"/>
        <pt x="334" y="312" on="0"/>
        <pt x="334" y="350" on="1"/>
        <pt x="334" y="371" on="0"/>
        <pt x="319" y="401" on="0"/>
        <pt x="294" y="421" on="0"/>
        <pt x="264" y="430" on="0"/>
      </contour>
      <contour>
        <pt x="74" y="340" on="1"/>
        <pt x="74" y="385" on="0"/>
        <pt x="49" y="440" on="0"/>
        <pt x="4" y="440" on="1"/>
        <pt x="-1" y="440" on="1"/>
        <pt x="-1" y="470" on="1"/>
        <pt x="267" y="470" on="1"/>
        <pt x="357" y="470" on="0"/>
        <pt x="469" y="410" on="0"/>
        <pt x="469" y="350" on="1"/>
        <pt x="469" y="305" on="0"/>
        <pt x="402" y="253" on="0"/>
        <pt x="342" y="245" on="1"/>
        <pt x="406" y="237" on="0"/>
        <pt x="489" y="179" on="0"/>
        <pt x="489" y="130" on="1"/>
        <pt x="489" y="62" on="0"/>
        <pt x="373" y="0" on="0"/>
        <pt x="267" y="0" on="1"/>
        <pt x="74" y="0" on="1"/>
      </contour>
      <contour>
        <pt x="249" y="40" on="1"/>
        <pt x="294" y="40" on="0"/>
        <pt x="354" y="85" on="0"/>
        <pt x="354" y="130" on="1"/>
        <pt x="354" y="178" on="0"/>
        <pt x="292" y="225" on="0"/>
        <pt x="239" y="225" on="1"/>
        <pt x="204" y="225" on="1"/>
        <pt x="204" y="47" on="1"/>
        <pt x="215" y="43" on="0"/>
        <pt x="241" y="40" on="0"/>
      </contour>
    </TTGlyph>
    <TTGlyph name="afii10068" xMin="-1" yMin="0" xMax="419" yMax="470">
      <contour>
        <pt x="74" y="340" on="1"/>
        <pt x="74" y="385" on="0"/>
        <pt x="49" y="440" on="0"/>
        <pt x="4" y="440" on="1"/>
        <pt x="-1" y="440" on="1"/>
        <pt x="-1" y="470" on="1"/>
        <pt x="344" y="470" on="1"/>
        <pt x="366" y="470" on="0"/>
        <pt x="396" y="456" on="0"/>
        <pt x="412" y="434" on="0"/>
        <pt x="419" y="405" on="0"/>
        <pt x="419" y="390" on="1"/>
        <pt x="419" y="320" on="1"/>
        <pt x="389" y="320" on="1"/>
        <pt x="389" y="377" on="0"/>
        <pt x="339" y="425" on="0"/>
        <pt x="294" y="425" on="1"/>
        <pt x="204" y="425" on="1"/>
        <pt x="204" y="0" on="1"/>
        <pt x="74" y="0" on="1"/>
      </contour>
    </TTGlyph>
    <TTGlyph name="afii10069" xMin="9" yMin="-160" xMax="575" yMax="470">
      <contour>
        <pt x="380" y="45" on="1"/>
        <pt x="380" y="425" on="1"/>
        <pt x="239" y="425" on="1"/>
        <pt x="239" y="361" on="0"/>
        <pt x="233" y="254" on="0"/>
        <pt x="220" y="163" on="0"/>
        <pt x="199" y="82" on="0"/>
        <pt x="184" y="45" on="1"/>
      </contour>
      <contour>
        <pt x="171" y="0" on="1"/>
        <pt x="147" y="0" on="0"/>
        <pt x="109" y="-13" on="0"/>
        <pt x="81" y="-49" on="0"/>
        <pt x="63" y="-111" on="0"/>
        <pt x="59" y="-160" on="1"/>
        <pt x="9" y="-160" on="1"/>
        <pt x="9" y="10" on="1"/>
        <pt x="9" y="25" on="0"/>
        <pt x="29" y="45" on="0"/>
        <pt x="44" y="45" on="1"/>
        <pt x="80" y="45" on="1"/>
        <pt x="114" y="120" on="0"/>
        <pt x="140" y="282" on="0"/>
        <pt x="140" y="350" on="1"/>
        <pt x="140" y="369" on="0"/>
        <pt x="135" y="402" on="0"/>
        <pt x="119" y="426" on="0"/>
        <pt x="89" y="440" on="0"/>
        <pt x="65" y="440" on="1"/>
        <pt x="65" y="470" on="1"/>
        <pt x="510" y="470" on="1"/>
        <pt x="510" y="45" on="1"/>
        <pt x="540" y="45" on="1"/>
        <pt x="555" y="45" on="0"/>
        <pt x="575" y="25" on="0"/>
        <pt x="575" y="10" on="1"/>
        <pt x="575" y="-160" on="1"/>
        <pt x="525" y="-160" on="1"/>
        <pt x="521" y="-111" on="0"/>
        <pt x="503" y="-49" on="0"/>
        <pt x="475" y="-13" on="0"/>
        <pt x="437" y="0" on="0"/>
        <pt x="413" y="0" on="1"/>
      </contour>
    </TTGlyph>
    <TTGlyph name="afii10070" xMin="37" yMin="-10" xMax="477" yMax="480">
      <component glyphName="e" x="0" y="0" flags="0x200"/>
    </TTGlyph>
    <TTGlyph name="afii10071" xMin="37" yMin="-10" xMax="477" yMax="647">
      <component glyphName="e" x="0" y="0" flags="0x204"/>
      <component glyphName="dieresis.alt1" x="86" y="0" flags="0x4"/>
    </TTGlyph>
    <TTGlyph name="afii10072" xMin="1" yMin="-10" xMax="739" yMax="470">
      <contour>
        <pt x="305" y="470" on="1"/>
        <pt x="435" y="470" on="1"/>
        <pt x="435" y="245" on="1"/>
        <pt x="546" y="393" on="1"/>
        <pt x="575" y="431" on="0"/>
        <pt x="637" y="470" on="0"/>
        <pt x="690" y="470" on="1"/>
        <pt x="710" y="470" on="1"/>
        <pt x="710" y="444" on="1"/>
        <pt x="680" y="444" on="0"/>
        <pt x="630" y="421" on="0"/>
        <pt x="610" y="394" on="1"/>
        <pt x="522" y="276" on="1"/>
        <pt x="646" y="100" on="1"/>
        <pt x="671" y="65" on="0"/>
        <pt x="718" y="29" on="0"/>
        <pt x="739" y="24" on="1"/>
        <pt x="739" y="0" on="1"/>
        <pt x="731" y="-4" on="0"/>
        <pt x="689" y="-10" on="0"/>
        <pt x="670" y="-10" on="1"/>
        <pt x="628" y="-10" on="0"/>
        <pt x="556" y="29" on="0"/>
        <pt x="521" y="80" on="1"/>
        <pt x="435" y="203" on="1"/>
        <pt x="435" y="0" on="1"/>
        <pt x="305" y="0" on="1"/>
        <pt x="305" y="203" on="1"/>
        <pt x="219" y="80" on="1"/>
        <pt x="184" y="29" on="0"/>
        <pt x="112" y="-10" on="0"/>
        <pt x="70" y="-10" on="1"/>
        <pt x="51" y="-10" on="0"/>
        <pt x="9" y="-4" on="0"/>
        <pt x="1" y="0" on="1"/>
        <pt x="1" y="24" on="1"/>
        <pt x="22" y="29" on="0"/>
        <pt x="69" y="65" on="0"/>
        <pt x="94" y="100" on="1"/>
        <pt x="218" y="276" on="1"/>
        <pt x="130" y="394" on="1"/>
        <pt x="110" y="421" on="0"/>
        <pt x="60" y="444" on="0"/>
        <pt x="30" y="444" on="1"/>
        <pt x="30" y="470" on="1"/>
        <pt x="50" y="470" on="1"/>
        <pt x="103" y="470" on="0"/>
        <pt x="165" y="431" on="0"/>
        <pt x="194" y="393" on="1"/>
        <pt x="305" y="245" on="1"/>
      </contour>
    </TTGlyph>
    <TTGlyph name="afii10073" xMin="30" yMin="-10" xMax="425" yMax="480">
      <contour>
        <pt x="120" y="265" on="1"/>
        <pt x="170" y="265" on="1"/>
        <pt x="230" y="265" on="0"/>
        <pt x="275" y="305" on="0"/>
        <pt x="275" y="350" on="1"/>
        <pt x="275" y="372" on="0"/>
        <pt x="260" y="405" on="0"/>
        <pt x="235" y="425" on="0"/>
        <pt x="202" y="435" on="0"/>
        <pt x="185" y="435" on="1"/>
        <pt x="140" y="435" on="0"/>
        <pt x="78" y="374" on="0"/>
        <pt x="75" y="325" on="1"/>
        <pt x="45" y="325" on="1"/>
        <pt x="45" y="367" on="0"/>
        <pt x="51" y="426" on="0"/>
        <pt x="70" y="445" on="1"/>
        <pt x="89" y="464" on="0"/>
        <pt x="165" y="480" on="0"/>
        <pt x="210" y="480" on="1"/>
        <pt x="300" y="480" on="0"/>
        <pt x="410" y="417" on="0"/>
        <pt x="410" y="350" on="1"/>
        <pt x="410" y="305" on="0"/>
        <pt x="344" y="248" on="0"/>
        <pt x="290" y="240" on="1"/>
        <pt x="352" y="232" on="0"/>
        <pt x="425" y="170" on="0"/>
        <pt x="425" y="125" on="1"/>
        <pt x="425" y="89" on="0"/>
        <pt x="395" y="38" on="0"/>
        <pt x="340" y="5" on="0"/>
        <pt x="263" y="-10" on="0"/>
        <pt x="215" y="-10" on="1"/>
        <pt x="144" y="-10" on="0"/>
        <pt x="56" y="36" on="0"/>
        <pt x="30" y="70" on="1"/>
        <pt x="60" y="95" on="1"/>
        <pt x="67" y="86" on="0"/>
        <pt x="89" y="65" on="0"/>
        <pt x="119" y="47" on="0"/>
        <pt x="159" y="35" on="0"/>
        <pt x="185" y="35" on="1"/>
        <pt x="230" y="35" on="0"/>
        <pt x="290" y="76" on="0"/>
        <pt x="290" y="125" on="1"/>
        <pt x="290" y="172" on="0"/>
        <pt x="240" y="220" on="0"/>
        <pt x="170" y="220" on="1"/>
        <pt x="120" y="220" on="1"/>
      </contour>
    </TTGlyph>
    <TTGlyph name="afii10074" xMin="-1" yMin="0" xMax="509" yMax="470">
      <contour>
        <pt x="79" y="340" on="1"/>
        <pt x="79" y="385" on="0"/>
        <pt x="54" y="440" on="0"/>
        <pt x="9" y="440" on="1"/>
        <pt x="-1" y="440" on="1"/>
        <pt x="-1" y="470" on="1"/>
        <pt x="119" y="470" on="1"/>
        <pt x="145" y="470" on="0"/>
        <pt x="180" y="457" on="0"/>
        <pt x="201" y="427" on="0"/>
        <pt x="209" y="377" on="0"/>
        <pt x="209" y="340" on="1"/>
        <pt x="209" y="125" on="1"/>
        <pt x="389" y="470" on="1"/>
        <pt x="509" y="470" on="1"/>
        <pt x="509" y="0" on="1"/>
        <pt x="379" y="0" on="1"/>
        <pt x="379" y="345" on="1"/>
        <pt x="199" y="0" on="1"/>
        <pt x="79" y="0" on="1"/>
      </contour>
    </TTGlyph>
    <TTGlyph name="afii10075" xMin="-1" yMin="0" xMax="509" yMax="625">
      <component glyphName="afii10074" x="0" y="0" flags="0x204"/>
      <component glyphName="breve" x="124" y="0" flags="0x4"/>
    </TTGlyph>
    <TTGlyph name="afii10076" xMin="-1" yMin="-10" xMax="523" yMax="470">
      <contour>
        <pt x="209" y="196" on="1"/>
        <pt x="209" y="0" on="1"/>
        <pt x="79" y="0" on="1"/>
        <pt x="79" y="340" on="1"/>
        <pt x="79" y="385" on="0"/>
        <pt x="54" y="440" on="0"/>
        <pt x="9" y="440" on="1"/>
        <pt x="-1" y="440" on="1"/>
        <pt x="-1" y="470" on="1"/>
        <pt x="119" y="470" on="1"/>
        <pt x="145" y="470" on="0"/>
        <pt x="180" y="457" on="0"/>
        <pt x="201" y="427" on="0"/>
        <pt x="209" y="377" on="0"/>
        <pt x="209" y="340" on="1"/>
        <pt x="209" y="245" on="1"/>
        <pt x="330" y="393" on="1"/>
        <pt x="345" y="411" on="0"/>
        <pt x="374" y="440" on="0"/>
        <pt x="407" y="460" on="0"/>
        <pt x="448" y="470" on="0"/>
        <pt x="474" y="470" on="1"/>
        <pt x="494" y="470" on="1"/>
        <pt x="494" y="444" on="1"/>
        <pt x="464" y="444" on="0"/>
        <pt x="416" y="420" on="0"/>
        <pt x="394" y="394" on="1"/>
        <pt x="297" y="276" on="1"/>
        <pt x="430" y="100" on="1"/>
        <pt x="456" y="65" on="0"/>
        <pt x="502" y="29" on="0"/>
        <pt x="523" y="24" on="1"/>
        <pt x="523" y="0" on="1"/>
        <pt x="515" y="-4" on="0"/>
        <pt x="473" y="-10" on="0"/>
        <pt x="454" y="-10" on="1"/>
        <pt x="412" y="-10" on="0"/>
        <pt x="338" y="25" on="0"/>
        <pt x="305" y="70" on="1"/>
      </contour>
    </TTGlyph>
    <TTGlyph name="afii10077" xMin="6" yMin="-15" xMax="507" yMax="470">
      <contour>
        <pt x="236" y="350" on="1"/>
        <pt x="236" y="249" on="0"/>
        <pt x="211" y="109" on="0"/>
        <pt x="166" y="23" on="0"/>
        <pt x="103" y="-15" on="0"/>
        <pt x="66" y="-15" on="1"/>
        <pt x="50" y="-15" on="0"/>
        <pt x="14" y="-9" on="0"/>
        <pt x="6" y="-6" on="1"/>
        <pt x="6" y="23" on="1"/>
        <pt x="32" y="27" on="0"/>
        <pt x="78" y="58" on="0"/>
        <pt x="112" y="129" on="0"/>
        <pt x="132" y="252" on="0"/>
        <pt x="132" y="350" on="1"/>
        <pt x="132" y="369" on="0"/>
        <pt x="127" y="402" on="0"/>
        <pt x="110" y="426" on="0"/>
        <pt x="81" y="440" on="0"/>
        <pt x="57" y="440" on="1"/>
        <pt x="57" y="470" on="1"/>
        <pt x="507" y="470" on="1"/>
        <pt x="507" y="0" on="1"/>
        <pt x="377" y="0" on="1"/>
        <pt x="377" y="425" on="1"/>
        <pt x="236" y="425" on="1"/>
      </contour>
    </TTGlyph>
    <TTGlyph name="afii10078" xMin="60" yMin="-25" xMax="664" yMax="480">
      <contour>
        <pt x="591" y="170" on="1"/>
        <pt x="591" y="87" on="0"/>
        <pt x="623" y="7" on="0"/>
        <pt x="664" y="0" on="1"/>
        <pt x="664" y="-25" on="1"/>
        <pt x="555" y="-25" on="0"/>
        <pt x="461" y="72" on="0"/>
        <pt x="461" y="170" on="1"/>
        <pt x="461" y="344" on="1"/>
        <pt x="317" y="0" on="1"/>
        <pt x="284" y="0" on="1"/>
        <pt x="110" y="354" on="1"/>
        <pt x="110" y="1" on="1"/>
        <pt x="60" y="1" on="1"/>
        <pt x="60" y="470" on="1"/>
        <pt x="182" y="470" on="1"/>
        <pt x="330" y="169" on="1"/>
        <pt x="460" y="480" on="1"/>
        <pt x="591" y="480" on="1"/>
      </contour>
    </TTGlyph>
    <TTGlyph name="afii10079" xMin="-1" yMin="0" xMax="579" yMax="470">
      <contour>
        <pt x="369" y="215" on="1"/>
        <pt x="209" y="215" on="1"/>
        <pt x="209" y="0" on="1"/>
        <pt x="79" y="0" on="1"/>
        <pt x="79" y="340" on="1"/>
        <pt x="79" y="385" on="0"/>
        <pt x="54" y="440" on="0"/>
        <pt x="9" y="440" on="1"/>
        <pt x="-1" y="440" on="1"/>
        <pt x="-1" y="470" on="1"/>
        <pt x="119" y="470" on="1"/>
        <pt x="145" y="470" on="0"/>
        <pt x="180" y="457" on="0"/>
        <pt x="201" y="427" on="0"/>
        <pt x="209" y="377" on="0"/>
        <pt x="209" y="340" on="1"/>
        <pt x="209" y="260" on="1"/>
        <pt x="369" y="260" on="1"/>
        <pt x="369" y="470" on="1"/>
        <pt x="499" y="470" on="1"/>
        <pt x="499" y="130" on="1"/>
        <pt x="499" y="85" on="0"/>
        <pt x="524" y="30" on="0"/>
        <pt x="569" y="30" on="1"/>
        <pt x="579" y="30" on="1"/>
        <pt x="579" y="0" on="1"/>
        <pt x="459" y="0" on="1"/>
        <pt x="433" y="0" on="0"/>
        <pt x="398" y="12" on="0"/>
        <pt x="377" y="42" on="0"/>
        <pt x="369" y="92" on="0"/>
        <pt x="369" y="130" on="1"/>
      </contour>
    </TTGlyph>
    <TTGlyph name="afii10080" xMin="36" yMin="-10" xMax="516" yMax="480">
      <component glyphName="o" x="0" y="0" flags="0x200"/>
    </TTGlyph>
    <TTGlyph name="afii10081" xMin="-1" yMin="0" xMax="494" yMax="470">
      <contour>
        <pt x="74" y="340" on="1"/>
        <pt x="74" y="385" on="0"/>
        <pt x="49" y="440" on="0"/>
        <pt x="4" y="440" on="1"/>
        <pt x="-1" y="440" on="1"/>
        <pt x="-1" y="470" on="1"/>
        <pt x="494" y="470" on="1"/>
        <pt x="494" y="0" on="1"/>
        <pt x="364" y="0" on="1"/>
        <pt x="364" y="425" on="1"/>
        <pt x="204" y="425" on="1"/>
        <pt x="204" y="0" on="1"/>
        <pt x="74" y="0" on="1"/>
      </contour>
    </TTGlyph>
    <TTGlyph name="afii10082" xMin="1" yMin="-190" xMax="530" yMax="480">
      <component glyphName="p" x="0" y="0" flags="0x0"/>
    </TTGlyph>
    <TTGlyph name="afii10083" xMin="36" yMin="-10" xMax="470" yMax="480">
      <component glyphName="c" x="0" y="0" flags="0x0"/>
    </TTGlyph>
    <TTGlyph name="afii10084" xMin="22" yMin="0" xMax="458" yMax="470">
      <contour>
        <pt x="147" y="425" on="1"/>
        <pt x="102" y="425" on="0"/>
        <pt x="52" y="377" on="0"/>
        <pt x="52" y="320" on="1"/>
        <pt x="22" y="320" on="1"/>
        <pt x="22" y="390" on="1"/>
        <pt x="22" y="405" on="0"/>
        <pt x="29" y="434" on="0"/>
        <pt x="45" y="456" on="0"/>
        <pt x="74" y="470" on="0"/>
        <pt x="97" y="470" on="1"/>
        <pt x="458" y="470" on="1"/>
        <pt x="458" y="425" on="1"/>
        <pt x="307" y="425" on="1"/>
        <pt x="307" y="0" on="1"/>
        <pt x="177" y="0" on="1"/>
        <pt x="177" y="425" on="1"/>
      </contour>
    </TTGlyph>
    <TTGlyph name="afii10085" xMin="-16" yMin="-200" xMax="492" yMax="480">
      <component glyphName="y" x="0" y="0" flags="0x0"/>
    </TTGlyph>
    <TTGlyph name="afii10086" xMin="37" yMin="-190" xMax="667" yMax="660">
      <contour>
        <pt x="412" y="25" on="1"/>
        <pt x="435" y="29" on="0"/>
        <pt x="478" y="59" on="0"/>
        <pt x="512" y="111" on="0"/>
        <pt x="532" y="186" on="0"/>
        <pt x="532" y="235" on="1"/>
        <pt x="532" y="284" on="0"/>
        <pt x="512" y="359" on="0"/>
        <pt x="478" y="411" on="0"/>
        <pt x="435" y="441" on="0"/>
        <pt x="412" y="445" on="1"/>
      </contour>
      <contour>
        <pt x="292" y="445" on="1"/>
        <pt x="269" y="441" on="0"/>
        <pt x="226" y="411" on="0"/>
        <pt x="192" y="359" on="0"/>
        <pt x="172" y="284" on="0"/>
        <pt x="172" y="235" on="1"/>
        <pt x="172" y="186" on="0"/>
        <pt x="192" y="111" on="0"/>
        <pt x="226" y="59" on="0"/>
        <pt x="269" y="29" on="0"/>
        <pt x="292" y="25" on="1"/>
      </contour>
      <contour>
        <pt x="287" y="530" on="1"/>
        <pt x="287" y="575" on="0"/>
        <pt x="262" y="630" on="0"/>
        <pt x="217" y="630" on="1"/>
        <pt x="207" y="630" on="1"/>
        <pt x="207" y="660" on="1"/>
        <pt x="327" y="660" on="1"/>
        <pt x="353" y="660" on="0"/>
        <pt x="388" y="647" on="0"/>
        <pt x="409" y="617" on="0"/>
        <pt x="417" y="567" on="0"/>
        <pt x="417" y="530" on="1"/>
        <pt x="417" y="480" on="1"/>
        <pt x="477" y="476" on="0"/>
        <pt x="570" y="437" on="0"/>
        <pt x="634" y="372" on="0"/>
        <pt x="667" y="286" on="0"/>
        <pt x="667" y="235" on="1"/>
        <pt x="667" y="184" on="0"/>
        <pt x="634" y="98" on="0"/>
        <pt x="570" y="33" on="0"/>
        <pt x="477" y="-6" on="0"/>
        <pt x="417" y="-10" on="1"/>
        <pt x="417" y="-190" on="1"/>
        <pt x="287" y="-190" on="1"/>
        <pt x="287" y="-10" on="1"/>
        <pt x="227" y="-6" on="0"/>
        <pt x="134" y="33" on="0"/>
        <pt x="70" y="98" on="0"/>
        <pt x="37" y="184" on="0"/>
        <pt x="37" y="235" on="1"/>
        <pt x="37" y="286" on="0"/>
        <pt x="70" y="372" on="0"/>
        <pt x="134" y="437" on="0"/>
        <pt x="227" y="476" on="0"/>
        <pt x="287" y="480" on="1"/>
      </contour>
    </TTGlyph>
    <TTGlyph name="afii10087" xMin="3" yMin="0" xMax="493" yMax="470">
      <component glyphName="x" x="0" y="0" flags="0x200"/>
    </TTGlyph>
    <TTGlyph name="afii10088" xMin="-1" yMin="-160" xMax="564" yMax="470">
      <contour>
        <pt x="79" y="0" on="1"/>
        <pt x="79" y="340" on="1"/>
        <pt x="79" y="385" on="0"/>
        <pt x="54" y="440" on="0"/>
        <pt x="9" y="440" on="1"/>
        <pt x="-1" y="440" on="1"/>
        <pt x="-1" y="470" on="1"/>
        <pt x="119" y="470" on="1"/>
        <pt x="145" y="470" on="0"/>
        <pt x="180" y="457" on="0"/>
        <pt x="201" y="427" on="0"/>
        <pt x="209" y="377" on="0"/>
        <pt x="209" y="340" on="1"/>
        <pt x="209" y="45" on="1"/>
        <pt x="369" y="45" on="1"/>
        <pt x="369" y="470" on="1"/>
        <pt x="499" y="470" on="1"/>
        <pt x="499" y="45" on="1"/>
        <pt x="529" y="45" on="1"/>
        <pt x="544" y="45" on="0"/>
        <pt x="564" y="25" on="0"/>
        <pt x="564" y="10" on="1"/>
        <pt x="564" y="-160" on="1"/>
        <pt x="519" y="-160" on="1"/>
        <pt x="515" y="-111" on="0"/>
        <pt x="497" y="-49" on="0"/>
        <pt x="469" y="-13" on="0"/>
        <pt x="431" y="0" on="0"/>
        <pt x="407" y="0" on="1"/>
      </contour>
    </TTGlyph>
    <TTGlyph name="afii10089" xMin="4" yMin="0" xMax="494" yMax="470">
      <contour>
        <pt x="84" y="340" on="1"/>
        <pt x="84" y="385" on="0"/>
        <pt x="59" y="440" on="0"/>
        <pt x="14" y="440" on="1"/>
        <pt x="4" y="440" on="1"/>
        <pt x="4" y="470" on="1"/>
        <pt x="124" y="470" on="1"/>
        <pt x="150" y="470" on="0"/>
        <pt x="185" y="457" on="0"/>
        <pt x="206" y="427" on="0"/>
        <pt x="214" y="377" on="0"/>
        <pt x="214" y="340" on="1"/>
        <pt x="214" y="310" on="1"/>
        <pt x="214" y="253" on="0"/>
        <pt x="259" y="205" on="0"/>
        <pt x="297" y="205" on="1"/>
        <pt x="320" y="205" on="0"/>
        <pt x="349" y="213" on="0"/>
        <pt x="364" y="221" on="1"/>
        <pt x="364" y="470" on="1"/>
        <pt x="494" y="470" on="1"/>
        <pt x="494" y="0" on="1"/>
        <pt x="364" y="0" on="1"/>
        <pt x="364" y="178" on="1"/>
        <pt x="349" y="171" on="0"/>
        <pt x="300" y="160" on="0"/>
        <pt x="274" y="160" on="1"/>
        <pt x="235" y="160" on="0"/>
        <pt x="165" y="176" on="0"/>
        <pt x="114" y="212" on="0"/>
        <pt x="84" y="269" on="0"/>
        <pt x="84" y="310" on="1"/>
      </contour>
    </TTGlyph>
    <TTGlyph name="afii10090" xMin="-1" yMin="0" xMax="699" yMax="470">
      <contour>
        <pt x="79" y="340" on="1"/>
        <pt x="79" y="385" on="0"/>
        <pt x="54" y="440" on="0"/>
        <pt x="9" y="440" on="1"/>
        <pt x="-1" y="440" on="1"/>
        <pt x="-1" y="470" on="1"/>
        <pt x="119" y="470" on="1"/>
        <pt x="145" y="470" on="0"/>
        <pt x="180" y="457" on="0"/>
        <pt x="201" y="427" on="0"/>
        <pt x="209" y="377" on="0"/>
        <pt x="209" y="340" on="1"/>
        <pt x="209" y="45" on="1"/>
        <pt x="324" y="45" on="1"/>
        <pt x="324" y="470" on="1"/>
        <pt x="454" y="470" on="1"/>
        <pt x="454" y="45" on="1"/>
        <pt x="569" y="45" on="1"/>
        <pt x="569" y="470" on="1"/>
        <pt x="699" y="470" on="1"/>
        <pt x="699" y="0" on="1"/>
        <pt x="79" y="0" on="1"/>
      </contour>
    </TTGlyph>
    <TTGlyph name="afii10091" xMin="-1" yMin="-160" xMax="764" yMax="470">
      <contour>
        <pt x="729" y="45" on="1"/>
        <pt x="744" y="45" on="0"/>
        <pt x="764" y="25" on="0"/>
        <pt x="764" y="10" on="1"/>
        <pt x="764" y="-160" on="1"/>
        <pt x="719" y="-160" on="1"/>
        <pt x="715" y="-111" on="0"/>
        <pt x="697" y="-49" on="0"/>
        <pt x="669" y="-13" on="0"/>
        <pt x="631" y="0" on="0"/>
        <pt x="607" y="0" on="1"/>
        <pt x="79" y="0" on="1"/>
        <pt x="79" y="340" on="1"/>
        <pt x="79" y="385" on="0"/>
        <pt x="54" y="440" on="0"/>
        <pt x="9" y="440" on="1"/>
        <pt x="-1" y="440" on="1"/>
        <pt x="-1" y="470" on="1"/>
        <pt x="119" y="470" on="1"/>
        <pt x="145" y="470" on="0"/>
        <pt x="180" y="457" on="0"/>
        <pt x="201" y="427" on="0"/>
        <pt x="209" y="377" on="0"/>
        <pt x="209" y="340" on="1"/>
        <pt x="209" y="45" on="1"/>
        <pt x="324" y="45" on="1"/>
        <pt x="324" y="470" on="1"/>
        <pt x="454" y="470" on="1"/>
        <pt x="454" y="45" on="1"/>
        <pt x="569" y="45" on="1"/>
        <pt x="569" y="470" on="1"/>
        <pt x="699" y="470" on="1"/>
        <pt x="699" y="45" on="1"/>
      </contour>
    </TTGlyph>
    <TTGlyph name="afii10092" xMin="28" yMin="0" xMax="578" yMax="470">
      <contour>
        <pt x="168" y="425" on="1"/>
        <pt x="115" y="421" on="0"/>
        <pt x="72" y="355" on="0"/>
        <pt x="68" y="290" on="1"/>
        <pt x="28" y="290" on="1"/>
        <pt x="28" y="435" on="1"/>
        <pt x="28" y="450" on="0"/>
        <pt x="48" y="470" on="0"/>
        <pt x="63" y="470" on="1"/>
        <pt x="298" y="470" on="1"/>
        <pt x="298" y="280" on="1"/>
        <pt x="373" y="280" on="1"/>
        <pt x="467" y="280" on="0"/>
        <pt x="578" y="208" on="0"/>
        <pt x="578" y="140" on="1"/>
        <pt x="578" y="72" on="0"/>
        <pt x="467" y="0" on="0"/>
        <pt x="373" y="0" on="1"/>
        <pt x="168" y="0" on="1"/>
      </contour>
      <contour>
        <pt x="298" y="47" on="1"/>
        <pt x="309" y="43" on="0"/>
        <pt x="335" y="40" on="0"/>
        <pt x="343" y="40" on="1"/>
        <pt x="364" y="40" on="0"/>
        <pt x="400" y="50" on="0"/>
        <pt x="427" y="73" on="0"/>
        <pt x="443" y="111" on="0"/>
        <pt x="443" y="140" on="1"/>
        <pt x="443" y="168" on="0"/>
        <pt x="427" y="207" on="0"/>
        <pt x="400" y="230" on="0"/>
        <pt x="364" y="240" on="0"/>
        <pt x="343" y="240" on="1"/>
        <pt x="335" y="240" on="0"/>
        <pt x="309" y="237" on="0"/>
        <pt x="298" y="233" on="1"/>
      </contour>
    </TTGlyph>
    <TTGlyph name="afii10093" xMin="-1" yMin="0" xMax="739" yMax="470">
      <contour>
        <pt x="209" y="47" on="1"/>
        <pt x="220" y="43" on="0"/>
        <pt x="246" y="40" on="0"/>
        <pt x="254" y="40" on="1"/>
        <pt x="271" y="40" on="0"/>
        <pt x="303" y="50" on="0"/>
        <pt x="329" y="73" on="0"/>
        <pt x="344" y="111" on="0"/>
        <pt x="344" y="140" on="1"/>
        <pt x="344" y="168" on="0"/>
        <pt x="329" y="207" on="0"/>
        <pt x="303" y="230" on="0"/>
        <pt x="271" y="240" on="0"/>
        <pt x="254" y="240" on="1"/>
        <pt x="246" y="240" on="0"/>
        <pt x="220" y="237" on="0"/>
        <pt x="209" y="233" on="1"/>
      </contour>
      <contour>
        <pt x="79" y="340" on="1"/>
        <pt x="79" y="385" on="0"/>
        <pt x="54" y="440" on="0"/>
        <pt x="9" y="440" on="1"/>
        <pt x="-1" y="440" on="1"/>
        <pt x="-1" y="470" on="1"/>
        <pt x="119" y="470" on="1"/>
        <pt x="145" y="470" on="0"/>
        <pt x="180" y="457" on="0"/>
        <pt x="201" y="427" on="0"/>
        <pt x="209" y="377" on="0"/>
        <pt x="209" y="340" on="1"/>
        <pt x="209" y="280" on="1"/>
        <pt x="274" y="280" on="1"/>
        <pt x="368" y="280" on="0"/>
        <pt x="479" y="208" on="0"/>
        <pt x="479" y="140" on="1"/>
        <pt x="479" y="72" on="0"/>
        <pt x="368" y="0" on="0"/>
        <pt x="274" y="0" on="1"/>
        <pt x="79" y="0" on="1"/>
      </contour>
      <contour>
        <pt x="659" y="130" on="1"/>
        <pt x="659" y="85" on="0"/>
        <pt x="684" y="30" on="0"/>
        <pt x="729" y="30" on="1"/>
        <pt x="739" y="30" on="1"/>
        <pt x="739" y="0" on="1"/>
        <pt x="619" y="0" on="1"/>
        <pt x="593" y="0" on="0"/>
        <pt x="558" y="12" on="0"/>
        <pt x="537" y="42" on="0"/>
        <pt x="529" y="92" on="0"/>
        <pt x="529" y="130" on="1"/>
        <pt x="529" y="470" on="1"/>
        <pt x="659" y="470" on="1"/>
      </contour>
    </TTGlyph>
    <TTGlyph name="afii10094" xMin="-1" yMin="0" xMax="489" yMax="470">
      <contour>
        <pt x="209" y="47" on="1"/>
        <pt x="220" y="43" on="0"/>
        <pt x="246" y="40" on="0"/>
        <pt x="254" y="40" on="1"/>
        <pt x="275" y="40" on="0"/>
        <pt x="311" y="50" on="0"/>
        <pt x="338" y="73" on="0"/>
        <pt x="354" y="111" on="0"/>
        <pt x="354" y="140" on="1"/>
        <pt x="354" y="168" on="0"/>
        <pt x="338" y="207" on="0"/>
        <pt x="311" y="230" on="0"/>
        <pt x="275" y="240" on="0"/>
        <pt x="254" y="240" on="1"/>
        <pt x="246" y="240" on="0"/>
        <pt x="220" y="237" on="0"/>
        <pt x="209" y="233" on="1"/>
      </contour>
      <contour>
        <pt x="79" y="340" on="1"/>
        <pt x="79" y="385" on="0"/>
        <pt x="54" y="440" on="0"/>
        <pt x="9" y="440" on="1"/>
        <pt x="-1" y="440" on="1"/>
        <pt x="-1" y="470" on="1"/>
        <pt x="119" y="470" on="1"/>
        <pt x="145" y="470" on="0"/>
        <pt x="180" y="457" on="0"/>
        <pt x="201" y="427" on="0"/>
        <pt x="209" y="377" on="0"/>
        <pt x="209" y="340" on="1"/>
        <pt x="209" y="280" on="1"/>
        <pt x="284" y="280" on="1"/>
        <pt x="378" y="280" on="0"/>
        <pt x="489" y="208" on="0"/>
        <pt x="489" y="140" on="1"/>
        <pt x="489" y="72" on="0"/>
        <pt x="378" y="0" on="0"/>
        <pt x="284" y="0" on="1"/>
        <pt x="79" y="0" on="1"/>
      </contour>
    </TTGlyph>
    <TTGlyph name="afii10095" xMin="31" yMin="-10" xMax="465" yMax="480">
      <contour>
        <pt x="210" y="435" on="1"/>
        <pt x="150" y="435" on="0"/>
        <pt x="79" y="369" on="0"/>
        <pt x="75" y="305" on="1"/>
        <pt x="45" y="305" on="1"/>
        <pt x="45" y="362" on="0"/>
        <pt x="51" y="426" on="0"/>
        <pt x="70" y="445" on="1"/>
        <pt x="89" y="464" on="0"/>
        <pt x="168" y="480" on="0"/>
        <pt x="225" y="480" on="1"/>
        <pt x="285" y="480" on="0"/>
        <pt x="375" y="441" on="0"/>
        <pt x="435" y="374" on="0"/>
        <pt x="465" y="285" on="0"/>
        <pt x="465" y="235" on="1"/>
        <pt x="465" y="185" on="0"/>
        <pt x="435" y="96" on="0"/>
        <pt x="375" y="29" on="0"/>
        <pt x="285" y="-10" on="0"/>
        <pt x="225" y="-10" on="1"/>
        <pt x="182" y="-10" on="0"/>
        <pt x="119" y="10" on="0"/>
        <pt x="73" y="41" on="0"/>
        <pt x="42" y="78" on="0"/>
        <pt x="31" y="95" on="1"/>
        <pt x="62" y="118" on="1"/>
        <pt x="75" y="101" on="0"/>
        <pt x="103" y="70" on="0"/>
        <pt x="137" y="48" on="0"/>
        <pt x="179" y="35" on="0"/>
        <pt x="205" y="35" on="1"/>
        <pt x="262" y="35" on="0"/>
        <pt x="325" y="121" on="0"/>
        <pt x="329" y="210" on="1"/>
        <pt x="140" y="210" on="1"/>
        <pt x="140" y="255" on="1"/>
        <pt x="329" y="255" on="1"/>
        <pt x="325" y="346" on="0"/>
        <pt x="260" y="435" on="0"/>
      </contour>
    </TTGlyph>
    <TTGlyph name="afii10096" xMin="-1" yMin="-10" xMax="699" yMax="480">
      <contour>
        <pt x="474" y="-10" on="1"/>
        <pt x="426" y="-10" on="0"/>
        <pt x="346" y="24" on="0"/>
        <pt x="287" y="85" on="0"/>
        <pt x="252" y="167" on="0"/>
        <pt x="249" y="215" on="1"/>
        <pt x="209" y="215" on="1"/>
        <pt x="209" y="0" on="1"/>
        <pt x="79" y="0" on="1"/>
        <pt x="79" y="340" on="1"/>
        <pt x="79" y="385" on="0"/>
        <pt x="54" y="440" on="0"/>
        <pt x="9" y="440" on="1"/>
        <pt x="-1" y="440" on="1"/>
        <pt x="-1" y="470" on="1"/>
        <pt x="119" y="470" on="1"/>
        <pt x="145" y="470" on="0"/>
        <pt x="180" y="457" on="0"/>
        <pt x="201" y="427" on="0"/>
        <pt x="209" y="377" on="0"/>
        <pt x="209" y="340" on="1"/>
        <pt x="209" y="260" on="1"/>
        <pt x="250" y="260" on="1"/>
        <pt x="254" y="307" on="0"/>
        <pt x="289" y="387" on="0"/>
        <pt x="347" y="446" on="0"/>
        <pt x="426" y="480" on="0"/>
        <pt x="474" y="480" on="1"/>
        <pt x="525" y="480" on="0"/>
        <pt x="608" y="442" on="0"/>
        <pt x="667" y="376" on="0"/>
        <pt x="699" y="286" on="0"/>
        <pt x="699" y="235" on="1"/>
        <pt x="699" y="184" on="0"/>
        <pt x="667" y="94" on="0"/>
        <pt x="608" y="28" on="0"/>
        <pt x="525" y="-10" on="0"/>
      </contour>
      <contour>
        <pt x="564" y="235" on="1"/>
        <pt x="564" y="278" on="0"/>
        <pt x="553" y="351" on="0"/>
        <pt x="530" y="405" on="0"/>
        <pt x="496" y="435" on="0"/>
        <pt x="474" y="435" on="1"/>
        <pt x="451" y="435" on="0"/>
        <pt x="418" y="405" on="0"/>
        <pt x="395" y="351" on="0"/>
        <pt x="384" y="278" on="0"/>
        <pt x="384" y="235" on="1"/>
        <pt x="384" y="192" on="0"/>
        <pt x="395" y="119" on="0"/>
        <pt x="418" y="65" on="0"/>
        <pt x="451" y="35" on="0"/>
        <pt x="474" y="35" on="1"/>
        <pt x="496" y="35" on="0"/>
        <pt x="530" y="65" on="0"/>
        <pt x="553" y="119" on="0"/>
        <pt x="564" y="192" on="0"/>
      </contour>
    </TTGlyph>
    <TTGlyph name="afii10097" xMin="15" yMin="-15" xMax="525" yMax="470">
      <contour>
        <pt x="275" y="235" on="1"/>
        <pt x="294" y="235" on="0"/>
        <pt x="320" y="243" on="0"/>
        <pt x="320" y="242" on="1"/>
        <pt x="320" y="423" on="1"/>
        <pt x="320" y="422" on="0"/>
        <pt x="294" y="430" on="0"/>
        <pt x="275" y="430" on="1"/>
        <pt x="256" y="430" on="0"/>
        <pt x="222" y="420" on="0"/>
        <pt x="196" y="398" on="0"/>
        <pt x="180" y="362" on="0"/>
        <pt x="180" y="335" on="1"/>
        <pt x="180" y="282" on="0"/>
        <pt x="237" y="235" on="0"/>
      </contour>
      <contour>
        <pt x="450" y="0" on="1"/>
        <pt x="320" y="0" on="1"/>
        <pt x="320" y="194" on="1"/>
        <pt x="276" y="194" on="1"/>
        <pt x="216" y="75" on="1"/>
        <pt x="205" y="52" on="0"/>
        <pt x="180" y="19" on="0"/>
        <pt x="148" y="-4" on="0"/>
        <pt x="107" y="-15" on="0"/>
        <pt x="80" y="-15" on="1"/>
        <pt x="61" y="-15" on="0"/>
        <pt x="26" y="-9" on="0"/>
        <pt x="15" y="-5" on="1"/>
        <pt x="15" y="21" on="1"/>
        <pt x="42" y="25" on="0"/>
        <pt x="84" y="68" on="0"/>
        <pt x="100" y="95" on="1"/>
        <pt x="160" y="199" on="1"/>
        <pt x="107" y="207" on="0"/>
        <pt x="45" y="276" on="0"/>
        <pt x="45" y="325" on="1"/>
        <pt x="45" y="364" on="0"/>
        <pt x="77" y="420" on="0"/>
        <pt x="136" y="454" on="0"/>
        <pt x="217" y="470" on="0"/>
        <pt x="265" y="470" on="1"/>
        <pt x="525" y="470" on="1"/>
        <pt x="525" y="440" on="1"/>
        <pt x="520" y="440" on="1"/>
        <pt x="475" y="440" on="0"/>
        <pt x="450" y="385" on="0"/>
        <pt x="450" y="340" on="1"/>
      </contour>
    </TTGlyph>
    <TTGlyph name="afii10098" xMin="-1" yMin="0" xMax="419" yMax="575">
      <contour>
        <pt x="204" y="425" on="1"/>
        <pt x="204" y="0" on="1"/>
        <pt x="74" y="0" on="1"/>
        <pt x="74" y="340" on="1"/>
        <pt x="74" y="385" on="0"/>
        <pt x="49" y="440" on="0"/>
        <pt x="4" y="440" on="1"/>
        <pt x="-1" y="440" on="1"/>
        <pt x="-1" y="470" on="1"/>
        <pt x="294" y="470" on="1"/>
        <pt x="339" y="470" on="0"/>
        <pt x="389" y="518" on="0"/>
        <pt x="389" y="575" on="1"/>
        <pt x="419" y="575" on="1"/>
        <pt x="419" y="505" on="1"/>
        <pt x="419" y="490" on="0"/>
        <pt x="412" y="461" on="0"/>
        <pt x="396" y="439" on="0"/>
        <pt x="366" y="425" on="0"/>
        <pt x="344" y="425" on="1"/>
      </contour>
    </TTGlyph>
    <TTGlyph name="afii10099" xMin="-10" yMin="-140" xMax="490" yMax="660">
      <contour>
        <pt x="490" y="55" on="1"/>
        <pt x="490" y="-43" on="0"/>
        <pt x="386" y="-140" on="0"/>
        <pt x="277" y="-140" on="1"/>
        <pt x="277" y="-115" on="1"/>
        <pt x="319" y="-107" on="0"/>
        <pt x="360" y="-28" on="0"/>
        <pt x="360" y="55" on="1"/>
        <pt x="360" y="250" on="1"/>
        <pt x="360" y="287" on="0"/>
        <pt x="348" y="337" on="0"/>
        <pt x="326" y="367" on="0"/>
        <pt x="297" y="380" on="0"/>
        <pt x="280" y="380" on="1"/>
        <pt x="257" y="380" on="0"/>
        <pt x="209" y="353" on="0"/>
        <pt x="190" y="332" on="1"/>
        <pt x="190" y="0" on="1"/>
        <pt x="60" y="0" on="1"/>
        <pt x="60" y="495" on="1"/>
        <pt x="-10" y="495" on="1"/>
        <pt x="-10" y="540" on="1"/>
        <pt x="60" y="540" on="1"/>
        <pt x="60" y="600" on="1"/>
        <pt x="110" y="660" on="1"/>
        <pt x="190" y="660" on="1"/>
        <pt x="190" y="540" on="1"/>
        <pt x="290" y="540" on="1"/>
        <pt x="290" y="495" on="1"/>
        <pt x="190" y="495" on="1"/>
        <pt x="190" y="380" on="1"/>
        <pt x="213" y="403" on="0"/>
        <pt x="276" y="430" on="0"/>
        <pt x="310" y="430" on="1"/>
        <pt x="346" y="430" on="0"/>
        <pt x="411" y="415" on="0"/>
        <pt x="460" y="374" on="0"/>
        <pt x="490" y="304" on="0"/>
        <pt x="490" y="250" on="1"/>
      </contour>
    </TTGlyph>
    <TTGlyph name="afii10100" xMin="-1" yMin="0" xMax="419" yMax="653">
      <component glyphName="afii10068" x="0" y="0" flags="0x204"/>
      <component glyphName="acute" x="173" y="-187" flags="0x4"/>
    </TTGlyph>
    <TTGlyph name="afii10101" xMin="36" yMin="-10" xMax="470" yMax="480">
      <contour>
        <pt x="291" y="435" on="1"/>
        <pt x="241" y="435" on="0"/>
        <pt x="176" y="346" on="0"/>
        <pt x="172" y="255" on="1"/>
        <pt x="361" y="255" on="1"/>
        <pt x="361" y="210" on="1"/>
        <pt x="172" y="210" on="1"/>
        <pt x="176" y="121" on="0"/>
        <pt x="239" y="35" on="0"/>
        <pt x="296" y="35" on="1"/>
        <pt x="348" y="35" on="0"/>
        <pt x="413" y="83" on="0"/>
        <pt x="439" y="118" on="1"/>
        <pt x="470" y="95" on="1"/>
        <pt x="459" y="78" on="0"/>
        <pt x="428" y="41" on="0"/>
        <pt x="382" y="10" on="0"/>
        <pt x="319" y="-10" on="0"/>
        <pt x="276" y="-10" on="1"/>
        <pt x="216" y="-10" on="0"/>
        <pt x="126" y="29" on="0"/>
        <pt x="66" y="96" on="0"/>
        <pt x="36" y="185" on="0"/>
        <pt x="36" y="235" on="1"/>
        <pt x="36" y="285" on="0"/>
        <pt x="66" y="374" on="0"/>
        <pt x="126" y="441" on="0"/>
        <pt x="216" y="480" on="0"/>
        <pt x="276" y="480" on="1"/>
        <pt x="333" y="480" on="0"/>
        <pt x="412" y="464" on="0"/>
        <pt x="431" y="445" on="1"/>
        <pt x="450" y="426" on="0"/>
        <pt x="456" y="362" on="0"/>
        <pt x="456" y="305" on="1"/>
        <pt x="426" y="305" on="1"/>
        <pt x="422" y="369" on="0"/>
        <pt x="351" y="435" on="0"/>
      </contour>
    </TTGlyph>
    <TTGlyph name="afii10102" xMin="39" yMin="-10" xMax="434" yMax="480">
      <component glyphName="s" x="0" y="0" flags="0x200"/>
    </TTGlyph>
    <TTGlyph name="afii10103" xMin="-1" yMin="0" xMax="209" yMax="656">
      <component glyphName="i" x="0" y="0" flags="0x200"/>
    </TTGlyph>
    <TTGlyph name="afii10104" xMin="-21" yMin="0" xMax="294" yMax="666">
      <component glyphName="idieresis" x="0" y="0" flags="0x200"/>
    </TTGlyph>
    <TTGlyph name="afii10105" xMin="-9" yMin="-190" xMax="209" yMax="656">
      <component glyphName="j" x="0" y="0" flags="0x200"/>
    </TTGlyph>
    <TTGlyph name="afii10106" xMin="6" yMin="-15" xMax="775" yMax="470">
      <contour>
        <pt x="495" y="47" on="1"/>
        <pt x="506" y="43" on="0"/>
        <pt x="532" y="40" on="0"/>
        <pt x="540" y="40" on="1"/>
        <pt x="561" y="40" on="0"/>
        <pt x="597" y="50" on="0"/>
        <pt x="624" y="73" on="0"/>
        <pt x="640" y="111" on="0"/>
        <pt x="640" y="140" on="1"/>
        <pt x="640" y="168" on="0"/>
        <pt x="624" y="207" on="0"/>
        <pt x="597" y="230" on="0"/>
        <pt x="561" y="240" on="0"/>
        <pt x="540" y="240" on="1"/>
        <pt x="532" y="240" on="0"/>
        <pt x="506" y="237" on="0"/>
        <pt x="495" y="233" on="1"/>
      </contour>
      <contour>
        <pt x="132" y="350" on="1"/>
        <pt x="132" y="369" on="0"/>
        <pt x="127" y="402" on="0"/>
        <pt x="110" y="426" on="0"/>
        <pt x="81" y="440" on="0"/>
        <pt x="57" y="440" on="1"/>
        <pt x="57" y="470" on="1"/>
        <pt x="495" y="470" on="1"/>
        <pt x="495" y="280" on="1"/>
        <pt x="570" y="280" on="1"/>
        <pt x="664" y="280" on="0"/>
        <pt x="775" y="208" on="0"/>
        <pt x="775" y="140" on="1"/>
        <pt x="775" y="72" on="0"/>
        <pt x="664" y="0" on="0"/>
        <pt x="570" y="0" on="1"/>
        <pt x="365" y="0" on="1"/>
        <pt x="365" y="425" on="1"/>
        <pt x="236" y="425" on="1"/>
        <pt x="236" y="350" on="1"/>
        <pt x="236" y="249" on="0"/>
        <pt x="211" y="109" on="0"/>
        <pt x="166" y="23" on="0"/>
        <pt x="103" y="-15" on="0"/>
        <pt x="66" y="-15" on="1"/>
        <pt x="50" y="-15" on="0"/>
        <pt x="14" y="-9" on="0"/>
        <pt x="6" y="-6" on="1"/>
        <pt x="6" y="23" on="1"/>
        <pt x="32" y="27" on="0"/>
        <pt x="78" y="58" on="0"/>
        <pt x="112" y="129" on="0"/>
        <pt x="132" y="252" on="0"/>
      </contour>
    </TTGlyph>
    <TTGlyph name="afii10107" xMin="-1" yMin="0" xMax="769" yMax="470">
      <contour>
        <pt x="359" y="225" on="1"/>
        <pt x="209" y="225" on="1"/>
        <pt x="209" y="0" on="1"/>
        <pt x="79" y="0" on="1"/>
        <pt x="79" y="340" on="1"/>
        <pt x="79" y="385" on="0"/>
        <pt x="54" y="440" on="0"/>
        <pt x="9" y="440" on="1"/>
        <pt x="-1" y="440" on="1"/>
        <pt x="-1" y="470" on="1"/>
        <pt x="119" y="470" on="1"/>
        <pt x="145" y="470" on="0"/>
        <pt x="180" y="457" on="0"/>
        <pt x="201" y="427" on="0"/>
        <pt x="209" y="377" on="0"/>
        <pt x="209" y="340" on="1"/>
        <pt x="209" y="270" on="1"/>
        <pt x="359" y="270" on="1"/>
        <pt x="359" y="470" on="1"/>
        <pt x="489" y="470" on="1"/>
        <pt x="489" y="270" on="1"/>
        <pt x="564" y="270" on="1"/>
        <pt x="658" y="270" on="0"/>
        <pt x="769" y="199" on="0"/>
        <pt x="769" y="135" on="1"/>
        <pt x="769" y="71" on="0"/>
        <pt x="658" y="0" on="0"/>
        <pt x="564" y="0" on="1"/>
        <pt x="359" y="0" on="1"/>
      </contour>
      <contour>
        <pt x="489" y="47" on="1"/>
        <pt x="500" y="43" on="0"/>
        <pt x="526" y="40" on="0"/>
        <pt x="534" y="40" on="1"/>
        <pt x="555" y="40" on="0"/>
        <pt x="591" y="50" on="0"/>
        <pt x="618" y="72" on="0"/>
        <pt x="634" y="108" on="0"/>
        <pt x="634" y="135" on="1"/>
        <pt x="634" y="162" on="0"/>
        <pt x="618" y="198" on="0"/>
        <pt x="591" y="220" on="0"/>
        <pt x="555" y="230" on="0"/>
        <pt x="534" y="230" on="1"/>
        <pt x="526" y="230" on="0"/>
        <pt x="500" y="227" on="0"/>
        <pt x="489" y="223" on="1"/>
      </contour>
    </TTGlyph>
    <TTGlyph name="afii10108" xMin="-10" yMin="0" xMax="490" yMax="660">
      <contour>
        <pt x="190" y="495" on="1"/>
        <pt x="190" y="380" on="1"/>
        <pt x="213" y="403" on="0"/>
        <pt x="276" y="430" on="0"/>
        <pt x="310" y="430" on="1"/>
        <pt x="346" y="430" on="0"/>
        <pt x="411" y="415" on="0"/>
        <pt x="460" y="374" on="0"/>
        <pt x="490" y="304" on="0"/>
        <pt x="490" y="250" on="1"/>
        <pt x="490" y="0" on="1"/>
        <pt x="360" y="0" on="1"/>
        <pt x="360" y="250" on="1"/>
        <pt x="360" y="287" on="0"/>
        <pt x="348" y="337" on="0"/>
        <pt x="326" y="367" on="0"/>
        <pt x="297" y="380" on="0"/>
        <pt x="280" y="380" on="1"/>
        <pt x="257" y="380" on="0"/>
        <pt x="209" y="353" on="0"/>
        <pt x="190" y="332" on="1"/>
        <pt x="190" y="0" on="1"/>
        <pt x="60" y="0" on="1"/>
        <pt x="60" y="495" on="1"/>
        <pt x="-10" y="495" on="1"/>
        <pt x="-10" y="540" on="1"/>
        <pt x="60" y="540" on="1"/>
        <pt x="60" y="600" on="1"/>
        <pt x="110" y="660" on="1"/>
        <pt x="190" y="660" on="1"/>
        <pt x="190" y="540" on="1"/>
        <pt x="290" y="540" on="1"/>
        <pt x="290" y="495" on="1"/>
      </contour>
    </TTGlyph>
    <TTGlyph name="afii10109" xMin="-1" yMin="-10" xMax="523" yMax="623">
      <component glyphName="afii10076" x="0" y="0" flags="0x204"/>
      <component glyphName="acute" x="216" y="-217" flags="0x4"/>
    </TTGlyph>
    <TTGlyph name="afii10110" xMin="-16" yMin="-200" xMax="492" yMax="611">
      <component glyphName="y" x="0" y="0" flags="0x4"/>
      <component glyphName="breve" x="133" y="-14" flags="0x4"/>
    </TTGlyph>
    <TTGlyph name="afii10145" xMin="15" yMin="-175" xMax="615" yMax="660">
      <contour>
        <pt x="95" y="530" on="1"/>
        <pt x="95" y="575" on="0"/>
        <pt x="70" y="630" on="0"/>
        <pt x="25" y="630" on="1"/>
        <pt x="15" y="630" on="1"/>
        <pt x="15" y="660" on="1"/>
        <pt x="135" y="660" on="1"/>
        <pt x="161" y="660" on="0"/>
        <pt x="196" y="647" on="0"/>
        <pt x="217" y="617" on="0"/>
        <pt x="225" y="567" on="0"/>
        <pt x="225" y="530" on="1"/>
        <pt x="225" y="45" on="1"/>
        <pt x="485" y="45" on="1"/>
        <pt x="485" y="660" on="1"/>
        <pt x="615" y="660" on="1"/>
        <pt x="615" y="0" on="1"/>
        <pt x="405" y="0" on="1"/>
        <pt x="390" y="-175" on="1"/>
        <pt x="320" y="-175" on="1"/>
        <pt x="305" y="0" on="1"/>
        <pt x="95" y="0" on="1"/>
      </contour>
    </TTGlyph>
    <TTGlyph name="afii10193" xMin="-1" yMin="-150" xMax="499" yMax="470">
      <contour>
        <pt x="79" y="340" on="1"/>
        <pt x="79" y="385" on="0"/>
        <pt x="54" y="440" on="0"/>
        <pt x="9" y="440" on="1"/>
        <pt x="-1" y="440" on="1"/>
        <pt x="-1" y="470" on="1"/>
        <pt x="119" y="470" on="1"/>
        <pt x="145" y="470" on="0"/>
        <pt x="180" y="457" on="0"/>
        <pt x="201" y="427" on="0"/>
        <pt x="209" y="377" on="0"/>
        <pt x="209" y="340" on="1"/>
        <pt x="209" y="45" on="1"/>
        <pt x="369" y="45" on="1"/>
        <pt x="369" y="470" on="1"/>
        <pt x="499" y="470" on="1"/>
        <pt x="499" y="0" on="1"/>
        <pt x="334" y="0" on="1"/>
        <pt x="319" y="-150" on="1"/>
        <pt x="259" y="-150" on="1"/>
        <pt x="244" y="0" on="1"/>
        <pt x="79" y="0" on="1"/>
      </contour>
    </TTGlyph>
    <TTGlyph name="afii61352" xMin="9" yMin="-3" xMax="1004" yMax="680">
      <contour>
        <pt x="574" y="200" on="1"/>
        <pt x="574" y="660" on="1"/>
        <pt x="624" y="660" on="1"/>
        <pt x="624" y="-3" on="1"/>
        <pt x="578" y="-3" on="1"/>
        <pt x="154" y="495" on="1"/>
        <pt x="154" y="0" on="1"/>
        <pt x="104" y="0" on="1"/>
        <pt x="104" y="540" on="1"/>
        <pt x="104" y="559" on="0"/>
        <pt x="96" y="592" on="0"/>
        <pt x="75" y="616" on="0"/>
        <pt x="40" y="630" on="0"/>
        <pt x="14" y="630" on="1"/>
        <pt x="9" y="630" on="1"/>
        <pt x="9" y="660" on="1"/>
        <pt x="79" y="660" on="1"/>
        <pt x="136" y="660" on="0"/>
        <pt x="207" y="630" on="0"/>
        <pt x="230" y="600" on="1"/>
      </contour>
      <contour>
        <pt x="834" y="630" on="1"/>
        <pt x="796" y="630" on="0"/>
        <pt x="744" y="573" on="0"/>
        <pt x="744" y="520" on="1"/>
        <pt x="744" y="467" on="0"/>
        <pt x="796" y="410" on="0"/>
        <pt x="834" y="410" on="1"/>
        <pt x="872" y="410" on="0"/>
        <pt x="924" y="467" on="0"/>
        <pt x="924" y="520" on="1"/>
        <pt x="924" y="573" on="0"/>
        <pt x="872" y="630" on="0"/>
      </contour>
      <contour>
        <pt x="834" y="680" on="1"/>
        <pt x="875" y="680" on="0"/>
        <pt x="939" y="655" on="0"/>
        <pt x="982" y="612" on="0"/>
        <pt x="1004" y="554" on="0"/>
        <pt x="1004" y="520" on="1"/>
        <pt x="1004" y="486" on="0"/>
        <pt x="982" y="428" on="0"/>
        <pt x="939" y="385" on="0"/>
        <pt x="875" y="360" on="0"/>
        <pt x="834" y="360" on="1"/>
        <pt x="793" y="360" on="0"/>
        <pt x="729" y="385" on="0"/>
        <pt x="686" y="428" on="0"/>
        <pt x="664" y="486" on="0"/>
        <pt x="664" y="520" on="1"/>
        <pt x="664" y="554" on="0"/>
        <pt x="686" y="612" on="0"/>
        <pt x="729" y="655" on="0"/>
        <pt x="793" y="680" on="0"/>
      </contour>
      <contour>
        <pt x="994" y="247" on="1"/>
        <pt x="674" y="247" on="1"/>
        <pt x="674" y="312" on="1"/>
        <pt x="994" y="312" on="1"/>
      </contour>
    </TTGlyph>
    <TTGlyph name="agrave" xMin="29" yMin="-10" xMax="444" yMax="665">
      <component glyphName="a" x="0" y="0" flags="0x204"/>
      <component glyphName="grave.alt1" x="95" y="0" flags="0x4"/>
    </TTGlyph>
    <TTGlyph name="ampersand" xMin="32" yMin="-20" xMax="625" yMax="680">
      <contour>
        <pt x="32" y="135" on="1"/>
        <pt x="32" y="169" on="0"/>
        <pt x="57" y="224" on="0"/>
        <pt x="100" y="270" on="0"/>
        <pt x="157" y="309" on="0"/>
        <pt x="190" y="326" on="1"/>
        <pt x="183" y="332" on="0"/>
        <pt x="146" y="369" on="0"/>
        <pt x="108" y="423" on="0"/>
        <pt x="79" y="489" on="0"/>
        <pt x="79" y="524" on="1"/>
        <pt x="79" y="598" on="0"/>
        <pt x="185" y="680" on="0"/>
        <pt x="279" y="680" on="1"/>
        <pt x="370" y="680" on="0"/>
        <pt x="464" y="602" on="0"/>
        <pt x="464" y="540" on="1"/>
        <pt x="464" y="509" on="0"/>
        <pt x="439" y="454" on="0"/>
        <pt x="396" y="404" on="0"/>
        <pt x="340" y="360" on="0"/>
        <pt x="309" y="340" on="1"/>
        <pt x="494" y="140" on="1"/>
        <pt x="512" y="160" on="0"/>
        <pt x="543" y="204" on="0"/>
        <pt x="554" y="221" on="1"/>
        <pt x="567" y="241" on="0"/>
        <pt x="578" y="261" on="1"/>
        <pt x="616" y="236" on="1"/>
        <pt x="607" y="215" on="0"/>
        <pt x="594" y="193" on="1"/>
        <pt x="583" y="174" on="0"/>
        <pt x="550" y="127" on="0"/>
        <pt x="528" y="103" on="1"/>
        <pt x="625" y="0" on="1"/>
        <pt x="489" y="0" on="1"/>
        <pt x="451" y="38" on="1"/>
        <pt x="451" y="38" on="0"/>
        <pt x="426" y="20" on="0"/>
        <pt x="380" y="-2" on="0"/>
        <pt x="316" y="-20" on="0"/>
        <pt x="279" y="-20" on="1"/>
        <pt x="210" y="-20" on="0"/>
        <pt x="115" y="5" on="0"/>
        <pt x="57" y="47" on="0"/>
        <pt x="32" y="103" on="0"/>
      </contour>
      <contour>
        <pt x="288" y="20" on="1"/>
        <pt x="318" y="20" on="0"/>
        <pt x="368" y="36" on="0"/>
        <pt x="385" y="46" on="1"/>
        <pt x="405" y="57" on="0"/>
        <pt x="421" y="72" on="1"/>
        <pt x="370" y="128" on="0"/>
        <pt x="281" y="222" on="0"/>
        <pt x="230" y="278" on="1"/>
        <pt x="203" y="254" on="0"/>
        <pt x="162" y="187" on="0"/>
        <pt x="162" y="145" on="1"/>
        <pt x="162" y="88" on="0"/>
        <pt x="225" y="20" on="0"/>
      </contour>
      <contour>
        <pt x="209" y="524" on="1"/>
        <pt x="209" y="497" on="0"/>
        <pt x="222" y="452" on="0"/>
        <pt x="241" y="416" on="0"/>
        <pt x="263" y="390" on="0"/>
        <pt x="272" y="381" on="1"/>
        <pt x="304" y="410" on="0"/>
        <pt x="344" y="481" on="0"/>
        <pt x="344" y="530" on="1"/>
        <pt x="344" y="561" on="0"/>
        <pt x="332" y="603" on="0"/>
        <pt x="313" y="629" on="0"/>
        <pt x="290" y="640" on="0"/>
        <pt x="279" y="640" on="1"/>
        <pt x="245" y="640" on="0"/>
        <pt x="209" y="591" on="0"/>
      </contour>
    </TTGlyph>
    <TTGlyph name="aring" xMin="29" yMin="-10" xMax="444" yMax="710">
      <component glyphName="a" x="0" y="0" flags="0x204"/>
      <component glyphName="ring" x="128" y="0" flags="0x4"/>
    </TTGlyph>
    <TTGlyph name="asciicircum" xMin="20" yMin="330" xMax="494" yMax="680">
      <contour>
        <pt x="279" y="680" on="1"/>
        <pt x="494" y="330" on="1"/>
        <pt x="396" y="330" on="1"/>
        <pt x="257" y="557" on="1"/>
        <pt x="118" y="330" on="1"/>
        <pt x="20" y="330" on="1"/>
        <pt x="235" y="680" on="1"/>
      </contour>
    </TTGlyph>
    <TTGlyph name="asciitilde" xMin="51" yMin="167" xMax="561" yMax="343">
      <contour>
        <pt x="171" y="343" on="1"/>
        <pt x="216" y="343" on="0"/>
        <pt x="292" y="316" on="0"/>
        <pt x="327" y="300" on="1"/>
        <pt x="359" y="286" on="0"/>
        <pt x="417" y="263" on="0"/>
        <pt x="441" y="263" on="1"/>
        <pt x="483" y="263" on="0"/>
        <pt x="521" y="293" on="0"/>
        <pt x="521" y="323" on="1"/>
        <pt x="561" y="323" on="1"/>
        <pt x="561" y="245" on="0"/>
        <pt x="503" y="167" on="0"/>
        <pt x="441" y="167" on="1"/>
        <pt x="396" y="167" on="0"/>
        <pt x="320" y="194" on="0"/>
        <pt x="285" y="210" on="1"/>
        <pt x="253" y="224" on="0"/>
        <pt x="195" y="247" on="0"/>
        <pt x="171" y="247" on="1"/>
        <pt x="129" y="247" on="0"/>
        <pt x="91" y="217" on="0"/>
        <pt x="91" y="187" on="1"/>
        <pt x="51" y="187" on="1"/>
        <pt x="51" y="265" on="0"/>
        <pt x="109" y="343" on="0"/>
      </contour>
    </TTGlyph>
    <TTGlyph name="asterisk" xMin="38" yMin="324" xMax="396" yMax="660">
      <contour>
        <pt x="161" y="660" on="1"/>
        <pt x="273" y="660" on="1"/>
        <pt x="249" y="539" on="1"/>
        <pt x="347" y="628" on="1"/>
        <pt x="396" y="542" on="1"/>
        <pt x="252" y="492" on="1"/>
        <pt x="396" y="442" on="1"/>
        <pt x="347" y="356" on="1"/>
        <pt x="248" y="446" on="1"/>
        <pt x="273" y="324" on="1"/>
        <pt x="161" y="324" on="1"/>
        <pt x="185" y="445" on="1"/>
        <pt x="87" y="356" on="1"/>
        <pt x="38" y="442" on="1"/>
        <pt x="182" y="492" on="1"/>
        <pt x="38" y="542" on="1"/>
        <pt x="87" y="628" on="1"/>
        <pt x="185" y="539" on="1"/>
      </contour>
    </TTGlyph>
    <TTGlyph name="at" xMin="34" yMin="-180" xMax="846" yMax="680">
      <contour>
        <pt x="414" y="450" on="1"/>
        <pt x="380" y="450" on="0"/>
        <pt x="325" y="409" on="0"/>
        <pt x="314" y="360" on="1"/>
        <pt x="259" y="360" on="1"/>
        <pt x="259" y="429" on="0"/>
        <pt x="295" y="465" on="1"/>
        <pt x="310" y="480" on="0"/>
        <pt x="389" y="495" on="0"/>
        <pt x="434" y="495" on="1"/>
        <pt x="530" y="495" on="0"/>
        <pt x="635" y="391" on="0"/>
        <pt x="635" y="285" on="1"/>
        <pt x="635" y="102" on="1"/>
        <pt x="635" y="80" on="0"/>
        <pt x="654" y="51" on="0"/>
        <pt x="675" y="51" on="1"/>
        <pt x="698" y="51" on="0"/>
        <pt x="736" y="72" on="0"/>
        <pt x="762" y="122" on="0"/>
        <pt x="776" y="206" on="0"/>
        <pt x="776" y="270" on="1"/>
        <pt x="776" y="359" on="0"/>
        <pt x="728" y="496" on="0"/>
        <pt x="639" y="588" on="0"/>
        <pt x="515" y="635" on="0"/>
        <pt x="440" y="635" on="1"/>
        <pt x="365" y="635" on="0"/>
        <pt x="241" y="587" on="0"/>
        <pt x="152" y="491" on="0"/>
        <pt x="104" y="347" on="0"/>
        <pt x="104" y="250" on="1"/>
        <pt x="104" y="153" on="0"/>
        <pt x="152" y="9" on="0"/>
        <pt x="241" y="-87" on="0"/>
        <pt x="365" y="-135" on="0"/>
        <pt x="440" y="-135" on="1"/>
        <pt x="535" y="-135" on="0"/>
        <pt x="691" y="-86" on="0"/>
        <pt x="757" y="-40" on="1"/>
        <pt x="783" y="-80" on="1"/>
        <pt x="720" y="-124" on="0"/>
        <pt x="553" y="-180" on="0"/>
        <pt x="440" y="-180" on="1"/>
        <pt x="350" y="-180" on="0"/>
        <pt x="201" y="-125" on="0"/>
        <pt x="94" y="-17" on="0"/>
        <pt x="34" y="144" on="0"/>
        <pt x="34" y="250" on="1"/>
        <pt x="34" y="356" on="0"/>
        <pt x="94" y="517" on="0"/>
        <pt x="201" y="625" on="0"/>
        <pt x="350" y="680" on="0"/>
        <pt x="440" y="680" on="1"/>
        <pt x="530" y="680" on="0"/>
        <pt x="679" y="626" on="0"/>
        <pt x="786" y="521" on="0"/>
        <pt x="846" y="368" on="0"/>
        <pt x="846" y="270" on="1"/>
        <pt x="846" y="139" on="0"/>
        <pt x="744" y="5" on="0"/>
        <pt x="635" y="5" on="1"/>
        <pt x="622" y="5" on="0"/>
        <pt x="587" y="7" on="0"/>
        <pt x="551" y="18" on="0"/>
        <pt x="519" y="40" on="0"/>
        <pt x="510" y="60" on="1"/>
        <pt x="505" y="60" on="1"/>
        <pt x="495" y="44" on="0"/>
        <pt x="479" y="32" on="1"/>
        <pt x="465" y="21" on="0"/>
        <pt x="422" y="5" on="0"/>
        <pt x="390" y="5" on="1"/>
        <pt x="307" y="5" on="0"/>
        <pt x="220" y="80" on="0"/>
        <pt x="220" y="140" on="1"/>
        <pt x="220" y="174" on="0"/>
        <pt x="244" y="228" on="0"/>
        <pt x="305" y="267" on="0"/>
        <pt x="409" y="288" on="0"/>
        <pt x="490" y="288" on="1"/>
        <pt x="505" y="288" on="1"/>
        <pt x="505" y="337" on="0"/>
        <pt x="492" y="400" on="0"/>
        <pt x="468" y="436" on="0"/>
        <pt x="435" y="450" on="0"/>
      </contour>
      <contour>
        <pt x="505" y="242" on="1"/>
        <pt x="490" y="242" on="1"/>
        <pt x="449" y="242" on="0"/>
        <pt x="395" y="230" on="0"/>
        <pt x="363" y="205" on="0"/>
        <pt x="350" y="166" on="0"/>
        <pt x="350" y="140" on="1"/>
        <pt x="350" y="55" on="0"/>
        <pt x="420" y="55" on="1"/>
        <pt x="443" y="55" on="0"/>
        <pt x="474" y="75" on="0"/>
        <pt x="485" y="87" on="1"/>
        <pt x="497" y="101" on="0"/>
        <pt x="505" y="120" on="1"/>
      </contour>
    </TTGlyph>
    <TTGlyph name="atilde" xMin="29" yMin="-10" xMax="444" yMax="636">
      <component glyphName="a" x="0" y="0" flags="0x204"/>
      <component glyphName="tilde" x="108" y="-144" flags="0x4"/>
    </TTGlyph>
    <TTGlyph name="b" xMin="-20" yMin="-10" xMax="510" yMax="660">
      <contour>
        <pt x="190" y="100" on="1"/>
        <pt x="199" y="81" on="0"/>
        <pt x="212" y="67" on="1"/>
        <pt x="223" y="55" on="0"/>
        <pt x="257" y="35" on="0"/>
        <pt x="280" y="35" on="1"/>
        <pt x="306" y="35" on="0"/>
        <pt x="342" y="65" on="0"/>
        <pt x="365" y="119" on="0"/>
        <pt x="375" y="192" on="0"/>
        <pt x="375" y="235" on="1"/>
        <pt x="375" y="278" on="0"/>
        <pt x="365" y="351" on="0"/>
        <pt x="341" y="405" on="0"/>
        <pt x="303" y="435" on="0"/>
        <pt x="275" y="435" on="1"/>
        <pt x="256" y="435" on="0"/>
        <pt x="225" y="425" on="0"/>
        <pt x="214" y="420" on="1"/>
        <pt x="201" y="413" on="0"/>
        <pt x="190" y="405" on="1"/>
      </contour>
      <contour>
        <pt x="60" y="530" on="1"/>
        <pt x="60" y="575" on="0"/>
        <pt x="35" y="630" on="0"/>
        <pt x="-10" y="630" on="1"/>
        <pt x="-20" y="630" on="1"/>
        <pt x="-20" y="660" on="1"/>
        <pt x="100" y="660" on="1"/>
        <pt x="126" y="660" on="0"/>
        <pt x="161" y="647" on="0"/>
        <pt x="182" y="617" on="0"/>
        <pt x="190" y="567" on="0"/>
        <pt x="190" y="530" on="1"/>
        <pt x="190" y="450" on="1"/>
        <pt x="202" y="458" on="0"/>
        <pt x="218" y="465" on="1"/>
        <pt x="232" y="470" on="0"/>
        <pt x="270" y="480" on="0"/>
        <pt x="295" y="480" on="1"/>
        <pt x="349" y="480" on="0"/>
        <pt x="430" y="442" on="0"/>
        <pt x="484" y="376" on="0"/>
        <pt x="510" y="286" on="0"/>
        <pt x="510" y="235" on="1"/>
        <pt x="510" y="184" on="0"/>
        <pt x="484" y="94" on="0"/>
        <pt x="431" y="28" on="0"/>
        <pt x="352" y="-10" on="0"/>
        <pt x="300" y="-10" on="1"/>
        <pt x="270" y="-10" on="0"/>
        <pt x="226" y="6" on="0"/>
        <pt x="212" y="17" on="1"/>
        <pt x="195" y="29" on="0"/>
        <pt x="185" y="45" on="1"/>
        <pt x="180" y="45" on="1"/>
        <pt x="145" y="0" on="1"/>
        <pt x="60" y="0" on="1"/>
      </contour>
    </TTGlyph>
    <TTGlyph name="backslash" xMin="21" yMin="0" xMax="454" yMax="660">
      <contour>
        <pt x="342" y="0" on="1"/>
        <pt x="21" y="660" on="1"/>
        <pt x="133" y="660" on="1"/>
        <pt x="454" y="0" on="1"/>
      </contour>
    </TTGlyph>
    <TTGlyph name="bar" xMin="66" yMin="-190" xMax="196" yMax="680">
      <contour>
        <pt x="196" y="680" on="1"/>
        <pt x="196" y="-190" on="1"/>
        <pt x="66" y="-190" on="1"/>
        <pt x="66" y="680" on="1"/>
      </contour>
    </TTGlyph>
    <TTGlyph name="braceleft" xMin="3" yMin="-211" xMax="293" yMax="691">
      <contour>
        <pt x="113" y="240" on="1"/>
        <pt x="176" y="223" on="0"/>
        <pt x="233" y="157" on="0"/>
        <pt x="233" y="100" on="1"/>
        <pt x="233" y="-72" on="1"/>
        <pt x="233" y="-117" on="0"/>
        <pt x="259" y="-170" on="0"/>
        <pt x="293" y="-176" on="1"/>
        <pt x="293" y="-211" on="1"/>
        <pt x="240" y="-207" on="0"/>
        <pt x="168" y="-175" on="0"/>
        <pt x="123" y="-126" on="0"/>
        <pt x="103" y="-64" on="0"/>
        <pt x="103" y="-30" on="1"/>
        <pt x="103" y="110" on="1"/>
        <pt x="103" y="130" on="0"/>
        <pt x="93" y="168" on="0"/>
        <pt x="69" y="199" on="0"/>
        <pt x="31" y="220" on="0"/>
        <pt x="3" y="224" on="1"/>
        <pt x="3" y="256" on="1"/>
        <pt x="31" y="260" on="0"/>
        <pt x="69" y="281" on="0"/>
        <pt x="93" y="312" on="0"/>
        <pt x="103" y="350" on="0"/>
        <pt x="103" y="370" on="1"/>
        <pt x="103" y="510" on="1"/>
        <pt x="103" y="544" on="0"/>
        <pt x="123" y="606" on="0"/>
        <pt x="168" y="655" on="0"/>
        <pt x="240" y="687" on="0"/>
        <pt x="293" y="691" on="1"/>
        <pt x="293" y="656" on="1"/>
        <pt x="259" y="650" on="0"/>
        <pt x="233" y="597" on="0"/>
        <pt x="233" y="552" on="1"/>
        <pt x="233" y="380" on="1"/>
        <pt x="233" y="323" on="0"/>
        <pt x="176" y="257" on="0"/>
      </contour>
    </TTGlyph>
    <TTGlyph name="braceright" xMin="19" yMin="-211" xMax="309" yMax="691">
      <contour>
        <pt x="199" y="240" on="1"/>
        <pt x="136" y="257" on="0"/>
        <pt x="79" y="323" on="0"/>
        <pt x="79" y="380" on="1"/>
        <pt x="79" y="552" on="1"/>
        <pt x="79" y="597" on="0"/>
        <pt x="53" y="650" on="0"/>
        <pt x="19" y="656" on="1"/>
        <pt x="19" y="691" on="1"/>
        <pt x="71" y="687" on="0"/>
        <pt x="144" y="655" on="0"/>
        <pt x="189" y="606" on="0"/>
        <pt x="209" y="544" on="0"/>
        <pt x="209" y="510" on="1"/>
        <pt x="209" y="370" on="1"/>
        <pt x="209" y="350" on="0"/>
        <pt x="219" y="312" on="0"/>
        <pt x="243" y="281" on="0"/>
        <pt x="281" y="260" on="0"/>
        <pt x="309" y="256" on="1"/>
        <pt x="309" y="224" on="1"/>
        <pt x="281" y="220" on="0"/>
        <pt x="243" y="199" on="0"/>
        <pt x="219" y="168" on="0"/>
        <pt x="209" y="130" on="0"/>
        <pt x="209" y="110" on="1"/>
        <pt x="209" y="-30" on="1"/>
        <pt x="209" y="-64" on="0"/>
        <pt x="189" y="-126" on="0"/>
        <pt x="144" y="-175" on="0"/>
        <pt x="71" y="-207" on="0"/>
        <pt x="19" y="-211" on="1"/>
        <pt x="19" y="-176" on="1"/>
        <pt x="53" y="-170" on="0"/>
        <pt x="79" y="-117" on="0"/>
        <pt x="79" y="-72" on="1"/>
        <pt x="79" y="100" on="1"/>
        <pt x="79" y="157" on="0"/>
        <pt x="136" y="223" on="0"/>
      </contour>
    </TTGlyph>
    <TTGlyph name="bracketleft" xMin="66" yMin="-200" xMax="311" yMax="680">
      <contour>
        <pt x="311" y="-200" on="1"/>
        <pt x="66" y="-200" on="1"/>
        <pt x="66" y="680" on="1"/>
        <pt x="311" y="680" on="1"/>
        <pt x="311" y="635" on="1"/>
        <pt x="186" y="635" on="1"/>
        <pt x="186" y="-155" on="1"/>
        <pt x="311" y="-155" on="1"/>
      </contour>
    </TTGlyph>
    <TTGlyph name="bracketright" xMin="20" yMin="-200" xMax="265" yMax="680">
      <contour>
        <pt x="20" y="-155" on="1"/>
        <pt x="145" y="-155" on="1"/>
        <pt x="145" y="635" on="1"/>
        <pt x="20" y="635" on="1"/>
        <pt x="20" y="680" on="1"/>
        <pt x="265" y="680" on="1"/>
        <pt x="265" y="-200" on="1"/>
        <pt x="20" y="-200" on="1"/>
      </contour>
    </TTGlyph>
    <TTGlyph name="breve" xMin="20" yMin="510" xMax="302" yMax="625">
      <contour>
        <pt x="161" y="575" on="1"/>
        <pt x="203" y="575" on="0"/>
        <pt x="259" y="606" on="0"/>
        <pt x="274" y="625" on="1"/>
        <pt x="302" y="604" on="1"/>
        <pt x="283" y="562" on="0"/>
        <pt x="210" y="510" on="0"/>
        <pt x="161" y="510" on="1"/>
        <pt x="112" y="510" on="0"/>
        <pt x="39" y="562" on="0"/>
        <pt x="20" y="604" on="1"/>
        <pt x="48" y="625" on="1"/>
        <pt x="63" y="606" on="0"/>
        <pt x="119" y="575" on="0"/>
      </contour>
    </TTGlyph>
    <TTGlyph name="brokenbar" xMin="69" yMin="-190" xMax="199" yMax="680">
      <contour>
        <pt x="199" y="680" on="1"/>
        <pt x="199" y="327" on="1"/>
        <pt x="69" y="327" on="1"/>
        <pt x="69" y="680" on="1"/>
      </contour>
      <contour>
        <pt x="199" y="163" on="1"/>
        <pt x="199" y="-190" on="1"/>
        <pt x="69" y="-190" on="1"/>
        <pt x="69" y="163" on="1"/>
      </contour>
    </TTGlyph>
    <TTGlyph name="bullet" xMin="40" yMin="207" xMax="310" yMax="453">
      <contour>
        <pt x="175" y="453" on="1"/>
        <pt x="205" y="453" on="0"/>
        <pt x="254" y="435" on="0"/>
        <pt x="290" y="402" on="0"/>
        <pt x="310" y="357" on="0"/>
        <pt x="310" y="330" on="1"/>
        <pt x="310" y="303" on="0"/>
        <pt x="290" y="258" on="0"/>
        <pt x="254" y="225" on="0"/>
        <pt x="205" y="207" on="0"/>
        <pt x="175" y="207" on="1"/>
        <pt x="145" y="207" on="0"/>
        <pt x="96" y="225" on="0"/>
        <pt x="60" y="258" on="0"/>
        <pt x="40" y="303" on="0"/>
        <pt x="40" y="330" on="1"/>
        <pt x="40" y="357" on="0"/>
        <pt x="60" y="402" on="0"/>
        <pt x="96" y="435" on="0"/>
        <pt x="145" y="453" on="0"/>
      </contour>
    </TTGlyph>
    <TTGlyph name="c" xMin="36" yMin="-10" xMax="470" yMax="480">
      <contour>
        <pt x="291" y="435" on="1"/>
        <pt x="238" y="435" on="0"/>
        <pt x="171" y="337" on="0"/>
        <pt x="171" y="235" on="1"/>
        <pt x="171" y="35" on="0"/>
        <pt x="296" y="35" on="1"/>
        <pt x="348" y="35" on="0"/>
        <pt x="413" y="83" on="0"/>
        <pt x="439" y="118" on="1"/>
        <pt x="470" y="95" on="1"/>
        <pt x="459" y="78" on="0"/>
        <pt x="428" y="41" on="0"/>
        <pt x="382" y="10" on="0"/>
        <pt x="319" y="-10" on="0"/>
        <pt x="276" y="-10" on="1"/>
        <pt x="216" y="-10" on="0"/>
        <pt x="126" y="29" on="0"/>
        <pt x="66" y="96" on="0"/>
        <pt x="36" y="185" on="0"/>
        <pt x="36" y="235" on="1"/>
        <pt x="36" y="285" on="0"/>
        <pt x="66" y="374" on="0"/>
        <pt x="126" y="441" on="0"/>
        <pt x="216" y="480" on="0"/>
        <pt x="276" y="480" on="1"/>
        <pt x="333" y="480" on="0"/>
        <pt x="412" y="464" on="0"/>
        <pt x="431" y="445" on="1"/>
        <pt x="450" y="426" on="0"/>
        <pt x="456" y="362" on="0"/>
        <pt x="456" y="305" on="1"/>
        <pt x="426" y="305" on="1"/>
        <pt x="422" y="369" on="0"/>
        <pt x="351" y="435" on="0"/>
      </contour>
    </TTGlyph>
    <TTGlyph name="caron" xMin="20" yMin="520" xMax="310" yMax="645">
      <contour>
        <pt x="240" y="645" on="1"/>
        <pt x="310" y="645" on="1"/>
        <pt x="230" y="520" on="1"/>
        <pt x="100" y="520" on="1"/>
        <pt x="20" y="645" on="1"/>
        <pt x="90" y="645" on="1"/>
        <pt x="165" y="565" on="1"/>
      </contour>
    </TTGlyph>
    <TTGlyph name="ccedilla" xMin="37" yMin="-188" xMax="471" yMax="480">
      <contour>
        <pt x="292" y="435" on="1"/>
        <pt x="239" y="435" on="0"/>
        <pt x="172" y="337" on="0"/>
        <pt x="172" y="235" on="1"/>
        <pt x="172" y="35" on="0"/>
        <pt x="297" y="35" on="1"/>
        <pt x="349" y="35" on="0"/>
        <pt x="414" y="83" on="0"/>
        <pt x="440" y="118" on="1"/>
        <pt x="471" y="95" on="1"/>
        <pt x="460" y="79" on="0"/>
        <pt x="432" y="44" on="0"/>
        <pt x="391" y="14" on="0"/>
        <pt x="334" y="-7" on="0"/>
        <pt x="296" y="-9" on="1"/>
        <pt x="296" y="-32" on="1"/>
        <pt x="334" y="-32" on="0"/>
        <pt x="382" y="-74" on="0"/>
        <pt x="382" y="-110" on="1"/>
        <pt x="382" y="-145" on="0"/>
        <pt x="334" y="-188" on="0"/>
        <pt x="296" y="-188" on="1"/>
        <pt x="236" y="-188" on="1"/>
        <pt x="236" y="-142" on="1"/>
        <pt x="276" y="-142" on="1"/>
        <pt x="295" y="-142" on="0"/>
        <pt x="316" y="-123" on="0"/>
        <pt x="316" y="-110" on="1"/>
        <pt x="316" y="-96" on="0"/>
        <pt x="295" y="-77" on="0"/>
        <pt x="276" y="-77" on="1"/>
        <pt x="237" y="-77" on="1"/>
        <pt x="237" y="-7" on="1"/>
        <pt x="187" y="-1" on="0"/>
        <pt x="112" y="42" on="0"/>
        <pt x="62" y="106" on="0"/>
        <pt x="37" y="189" on="0"/>
        <pt x="37" y="235" on="1"/>
        <pt x="37" y="285" on="0"/>
        <pt x="67" y="374" on="0"/>
        <pt x="127" y="441" on="0"/>
        <pt x="217" y="480" on="0"/>
        <pt x="277" y="480" on="1"/>
        <pt x="334" y="480" on="0"/>
        <pt x="413" y="464" on="0"/>
        <pt x="432" y="445" on="1"/>
        <pt x="451" y="426" on="0"/>
        <pt x="457" y="362" on="0"/>
        <pt x="457" y="305" on="1"/>
        <pt x="427" y="305" on="1"/>
        <pt x="423" y="369" on="0"/>
        <pt x="352" y="435" on="0"/>
      </contour>
    </TTGlyph>
    <TTGlyph name="cedilla" xMin="40" yMin="-206" xMax="200" yMax="0">
      <contour>
        <pt x="45" y="0" on="1"/>
        <pt x="110" y="0" on="1"/>
        <pt x="110" y="-50" on="1"/>
        <pt x="152" y="-50" on="0"/>
        <pt x="200" y="-92" on="0"/>
        <pt x="200" y="-128" on="1"/>
        <pt x="200" y="-163" on="0"/>
        <pt x="152" y="-206" on="0"/>
        <pt x="110" y="-206" on="1"/>
        <pt x="40" y="-206" on="1"/>
        <pt x="40" y="-160" on="1"/>
        <pt x="90" y="-160" on="1"/>
        <pt x="109" y="-160" on="0"/>
        <pt x="130" y="-141" on="0"/>
        <pt x="130" y="-128" on="1"/>
        <pt x="130" y="-114" on="0"/>
        <pt x="109" y="-95" on="0"/>
        <pt x="90" y="-95" on="1"/>
        <pt x="45" y="-95" on="1"/>
      </contour>
    </TTGlyph>
    <TTGlyph name="cent" xMin="31" yMin="-50" xMax="465" yMax="520">
      <contour>
        <pt x="241" y="-8" on="1"/>
        <pt x="188" y="-4" on="0"/>
        <pt x="110" y="38" on="0"/>
        <pt x="57" y="103" on="0"/>
        <pt x="31" y="188" on="0"/>
        <pt x="31" y="235" on="1"/>
        <pt x="31" y="282" on="0"/>
        <pt x="57" y="366" on="0"/>
        <pt x="110" y="431" on="0"/>
        <pt x="188" y="473" on="0"/>
        <pt x="241" y="478" on="1"/>
        <pt x="241" y="520" on="1"/>
        <pt x="301" y="520" on="1"/>
        <pt x="301" y="479" on="1"/>
        <pt x="346" y="477" on="0"/>
        <pt x="409" y="461" on="0"/>
        <pt x="426" y="445" on="1"/>
        <pt x="445" y="426" on="0"/>
        <pt x="451" y="362" on="0"/>
        <pt x="451" y="305" on="1"/>
        <pt x="421" y="305" on="1"/>
        <pt x="417" y="365" on="0"/>
        <pt x="355" y="429" on="0"/>
        <pt x="301" y="434" on="1"/>
        <pt x="301" y="35" on="1"/>
        <pt x="325" y="36" on="0"/>
        <pt x="363" y="50" on="0"/>
        <pt x="394" y="72" on="0"/>
        <pt x="421" y="101" on="0"/>
        <pt x="434" y="118" on="1"/>
        <pt x="465" y="95" on="1"/>
        <pt x="455" y="80" on="0"/>
        <pt x="428" y="46" on="0"/>
        <pt x="389" y="17" on="0"/>
        <pt x="336" y="-5" on="0"/>
        <pt x="301" y="-8" on="1"/>
        <pt x="301" y="-50" on="1"/>
        <pt x="241" y="-50" on="1"/>
      </contour>
      <contour>
        <pt x="166" y="235" on="1"/>
        <pt x="166" y="79" on="0"/>
        <pt x="241" y="45" on="1"/>
        <pt x="241" y="424" on="1"/>
        <pt x="206" y="407" on="0"/>
        <pt x="166" y="313" on="0"/>
      </contour>
    </TTGlyph>
    <TTGlyph name="circumflex" xMin="20" yMin="660" xMax="310" yMax="785">
      <contour>
        <pt x="165" y="740" on="1"/>
        <pt x="80" y="660" on="1"/>
        <pt x="20" y="660" on="1"/>
        <pt x="100" y="785" on="1"/>
        <pt x="230" y="785" on="1"/>
        <pt x="310" y="660" on="1"/>
        <pt x="250" y="660" on="1"/>
      </contour>
    </TTGlyph>
    <TTGlyph name="circumflex.alt1" xMin="20" yMin="660" xMax="310" yMax="785">
      <contour>
        <pt x="165" y="740" on="1"/>
        <pt x="80" y="660" on="1"/>
        <pt x="20" y="660" on="1"/>
        <pt x="100" y="785" on="1"/>
        <pt x="230" y="785" on="1"/>
        <pt x="310" y="660" on="1"/>
        <pt x="250" y="660" on="1"/>
      </contour>
    </TTGlyph>
    <TTGlyph name="colon" xMin="58" yMin="-14" xMax="180" yMax="461">
      <contour>
        <pt x="180" y="47" on="1"/>
        <pt x="180" y="20" on="0"/>
        <pt x="148" y="-14" on="0"/>
        <pt x="119" y="-14" on="1"/>
        <pt x="90" y="-14" on="0"/>
        <pt x="58" y="20" on="0"/>
        <pt x="58" y="47" on="1"/>
        <pt x="58" y="74" on="0"/>
        <pt x="90" y="108" on="0"/>
        <pt x="119" y="108" on="1"/>
        <pt x="148" y="108" on="0"/>
        <pt x="180" y="74" on="0"/>
      </contour>
      <contour>
        <pt x="180" y="400" on="1"/>
        <pt x="180" y="373" on="0"/>
        <pt x="148" y="339" on="0"/>
        <pt x="119" y="339" on="1"/>
        <pt x="90" y="339" on="0"/>
        <pt x="58" y="373" on="0"/>
        <pt x="58" y="400" on="1"/>
        <pt x="58" y="427" on="0"/>
        <pt x="90" y="461" on="0"/>
        <pt x="119" y="461" on="1"/>
        <pt x="148" y="461" on="0"/>
        <pt x="180" y="427" on="0"/>
      </contour>
    </TTGlyph>
    <TTGlyph name="comma" xMin="45" yMin="-160" xMax="178" yMax="108">
      <contour>
        <pt x="112" y="-14" on="1"/>
        <pt x="83" y="-14" on="0"/>
        <pt x="51" y="20" on="0"/>
        <pt x="51" y="47" on="1"/>
        <pt x="51" y="74" on="0"/>
        <pt x="83" y="108" on="0"/>
        <pt x="112" y="108" on="1"/>
        <pt x="145" y="108" on="0"/>
        <pt x="178" y="60" on="0"/>
        <pt x="178" y="30" on="1"/>
        <pt x="178" y="-27" on="0"/>
        <pt x="127" y="-118" on="0"/>
        <pt x="63" y="-160" on="1"/>
        <pt x="45" y="-136" on="1"/>
        <pt x="57" y="-128" on="0"/>
        <pt x="86" y="-104" on="0"/>
        <pt x="111" y="-72" on="0"/>
        <pt x="127" y="-33" on="0"/>
        <pt x="127" y="-11" on="1"/>
      </contour>
    </TTGlyph>
    <TTGlyph name="copyright" xMin="33" yMin="-28" xMax="773" yMax="688">
      <contour>
        <pt x="403" y="688" on="1"/>
        <pt x="483" y="688" on="0"/>
        <pt x="619" y="634" on="0"/>
        <pt x="718" y="539" on="0"/>
        <pt x="773" y="408" on="0"/>
        <pt x="773" y="330" on="1"/>
        <pt x="773" y="252" on="0"/>
        <pt x="718" y="121" on="0"/>
        <pt x="619" y="26" on="0"/>
        <pt x="483" y="-28" on="0"/>
        <pt x="403" y="-28" on="1"/>
        <pt x="323" y="-28" on="0"/>
        <pt x="187" y="26" on="0"/>
        <pt x="88" y="121" on="0"/>
        <pt x="33" y="252" on="0"/>
        <pt x="33" y="330" on="1"/>
        <pt x="33" y="408" on="0"/>
        <pt x="88" y="539" on="0"/>
        <pt x="187" y="634" on="0"/>
        <pt x="323" y="688" on="0"/>
      </contour>
      <contour>
        <pt x="403" y="17" on="1"/>
        <pt x="469" y="17" on="0"/>
        <pt x="579" y="63" on="0"/>
        <pt x="659" y="146" on="0"/>
        <pt x="703" y="261" on="0"/>
        <pt x="703" y="330" on="1"/>
        <pt x="703" y="399" on="0"/>
        <pt x="659" y="514" on="0"/>
        <pt x="579" y="597" on="0"/>
        <pt x="469" y="643" on="0"/>
        <pt x="403" y="643" on="1"/>
        <pt x="337" y="643" on="0"/>
        <pt x="227" y="597" on="0"/>
        <pt x="147" y="514" on="0"/>
        <pt x="103" y="399" on="0"/>
        <pt x="103" y="330" on="1"/>
        <pt x="103" y="261" on="0"/>
        <pt x="147" y="146" on="0"/>
        <pt x="227" y="63" on="0"/>
        <pt x="337" y="17" on="0"/>
      </contour>
      <contour>
        <pt x="553" y="409" on="1"/>
        <pt x="541" y="473" on="0"/>
        <pt x="480" y="533" on="0"/>
        <pt x="423" y="533" on="1"/>
        <pt x="394" y="533" on="0"/>
        <pt x="344" y="512" on="0"/>
        <pt x="305" y="464" on="0"/>
        <pt x="283" y="385" on="0"/>
        <pt x="283" y="327" on="1"/>
        <pt x="283" y="291" on="0"/>
        <pt x="299" y="222" on="0"/>
        <pt x="333" y="167" on="0"/>
        <pt x="386" y="134" on="0"/>
        <pt x="423" y="134" on="1"/>
        <pt x="508" y="134" on="0"/>
        <pt x="567" y="230" on="1"/>
        <pt x="592" y="212" on="1"/>
        <pt x="560" y="152" on="0"/>
        <pt x="468" y="102" on="0"/>
        <pt x="403" y="102" on="1"/>
        <pt x="353" y="102" on="0"/>
        <pt x="274" y="137" on="0"/>
        <pt x="218" y="198" on="0"/>
        <pt x="188" y="280" on="0"/>
        <pt x="188" y="327" on="1"/>
        <pt x="188" y="377" on="0"/>
        <pt x="222" y="464" on="0"/>
        <pt x="280" y="528" on="0"/>
        <pt x="359" y="565" on="0"/>
        <pt x="403" y="565" on="1"/>
        <pt x="467" y="565" on="0"/>
        <pt x="546" y="533" on="0"/>
        <pt x="563" y="512" on="1"/>
        <pt x="579" y="493" on="0"/>
        <pt x="584" y="438" on="0"/>
        <pt x="584" y="409" on="1"/>
      </contour>
    </TTGlyph>
    <TTGlyph name="currency" xMin="36" yMin="0" xMax="576" yMax="660">
      <contour>
        <pt x="306" y="330" on="1"/>
        <pt x="330" y="330" on="0"/>
        <pt x="377" y="345" on="0"/>
        <pt x="414" y="379" on="0"/>
        <pt x="436" y="437" on="0"/>
        <pt x="436" y="480" on="1"/>
        <pt x="436" y="517" on="0"/>
        <pt x="412" y="571" on="0"/>
        <pt x="376" y="604" on="0"/>
        <pt x="332" y="620" on="0"/>
        <pt x="311" y="620" on="1"/>
        <pt x="292" y="620" on="0"/>
        <pt x="261" y="619" on="0"/>
        <pt x="246" y="615" on="1"/>
        <pt x="246" y="330" on="1"/>
      </contour>
      <contour>
        <pt x="496" y="190" on="1"/>
        <pt x="246" y="190" on="1"/>
        <pt x="246" y="0" on="1"/>
        <pt x="116" y="0" on="1"/>
        <pt x="116" y="190" on="1"/>
        <pt x="66" y="190" on="1"/>
        <pt x="66" y="235" on="1"/>
        <pt x="116" y="235" on="1"/>
        <pt x="116" y="285" on="1"/>
        <pt x="66" y="285" on="1"/>
        <pt x="66" y="330" on="1"/>
        <pt x="116" y="330" on="1"/>
        <pt x="116" y="535" on="1"/>
        <pt x="116" y="556" on="0"/>
        <pt x="111" y="590" on="0"/>
        <pt x="96" y="616" on="0"/>
        <pt x="68" y="630" on="0"/>
        <pt x="46" y="630" on="1"/>
        <pt x="36" y="630" on="1"/>
        <pt x="36" y="660" on="1"/>
        <pt x="311" y="660" on="1"/>
        <pt x="365" y="660" on="0"/>
        <pt x="462" y="639" on="0"/>
        <pt x="534" y="595" on="0"/>
        <pt x="576" y="527" on="0"/>
        <pt x="576" y="480" on="1"/>
        <pt x="576" y="429" on="0"/>
        <pt x="534" y="356" on="0"/>
        <pt x="461" y="308" on="0"/>
        <pt x="362" y="285" on="0"/>
        <pt x="306" y="285" on="1"/>
        <pt x="246" y="285" on="1"/>
        <pt x="246" y="235" on="1"/>
        <pt x="496" y="235" on="1"/>
      </contour>
    </TTGlyph>
    <TTGlyph name="d" xMin="37" yMin="-10" xMax="487" yMax="660">
      <contour>
        <pt x="357" y="405" on="1"/>
        <pt x="346" y="413" on="0"/>
        <pt x="333" y="420" on="1"/>
        <pt x="322" y="425" on="0"/>
        <pt x="291" y="435" on="0"/>
        <pt x="272" y="435" on="1"/>
        <pt x="244" y="435" on="0"/>
        <pt x="206" y="405" on="0"/>
        <pt x="182" y="351" on="0"/>
        <pt x="172" y="278" on="0"/>
        <pt x="172" y="235" on="1"/>
        <pt x="172" y="192" on="0"/>
        <pt x="182" y="119" on="0"/>
        <pt x="204" y="65" on="0"/>
        <pt x="241" y="35" on="0"/>
        <pt x="267" y="35" on="1"/>
        <pt x="290" y="35" on="0"/>
        <pt x="323" y="55" on="0"/>
        <pt x="334" y="67" on="1"/>
        <pt x="347" y="81" on="0"/>
        <pt x="357" y="100" on="1"/>
      </contour>
      <contour>
        <pt x="357" y="530" on="1"/>
        <pt x="357" y="575" on="0"/>
        <pt x="332" y="630" on="0"/>
        <pt x="287" y="630" on="1"/>
        <pt x="277" y="630" on="1"/>
        <pt x="277" y="660" on="1"/>
        <pt x="397" y="660" on="1"/>
        <pt x="423" y="660" on="0"/>
        <pt x="458" y="647" on="0"/>
        <pt x="479" y="617" on="0"/>
        <pt x="487" y="567" on="0"/>
        <pt x="487" y="530" on="1"/>
        <pt x="487" y="0" on="1"/>
        <pt x="402" y="0" on="1"/>
        <pt x="367" y="45" on="1"/>
        <pt x="362" y="45" on="1"/>
        <pt x="351" y="29" on="0"/>
        <pt x="334" y="17" on="1"/>
        <pt x="320" y="6" on="0"/>
        <pt x="277" y="-10" on="0"/>
        <pt x="247" y="-10" on="1"/>
        <pt x="194" y="-10" on="0"/>
        <pt x="116" y="28" on="0"/>
        <pt x="63" y="94" on="0"/>
        <pt x="37" y="184" on="0"/>
        <pt x="37" y="235" on="1"/>
        <pt x="37" y="286" on="0"/>
        <pt x="63" y="376" on="0"/>
        <pt x="117" y="442" on="0"/>
        <pt x="198" y="480" on="0"/>
        <pt x="252" y="480" on="1"/>
        <pt x="276" y="480" on="0"/>
        <pt x="315" y="470" on="0"/>
        <pt x="329" y="465" on="1"/>
        <pt x="345" y="458" on="0"/>
        <pt x="357" y="450" on="1"/>
      </contour>
    </TTGlyph>
    <TTGlyph name="dagger" xMin="25" yMin="-190" xMax="514" yMax="680">
      <contour>
        <pt x="25" y="475" on="1"/>
        <pt x="204" y="475" on="1"/>
        <pt x="204" y="680" on="1"/>
        <pt x="334" y="680" on="1"/>
        <pt x="334" y="475" on="1"/>
        <pt x="514" y="475" on="1"/>
        <pt x="514" y="405" on="1"/>
        <pt x="334" y="405" on="1"/>
        <pt x="334" y="-190" on="1"/>
        <pt x="204" y="-190" on="1"/>
        <pt x="204" y="405" on="1"/>
        <pt x="25" y="405" on="1"/>
      </contour>
    </TTGlyph>
    <TTGlyph name="daggerdbl" xMin="36" yMin="-190" xMax="525" yMax="680">
      <contour>
        <pt x="36" y="475" on="1"/>
        <pt x="215" y="475" on="1"/>
        <pt x="215" y="680" on="1"/>
        <pt x="345" y="680" on="1"/>
        <pt x="345" y="475" on="1"/>
        <pt x="525" y="475" on="1"/>
        <pt x="525" y="405" on="1"/>
        <pt x="345" y="405" on="1"/>
        <pt x="345" y="85" on="1"/>
        <pt x="525" y="85" on="1"/>
        <pt x="525" y="15" on="1"/>
        <pt x="345" y="15" on="1"/>
        <pt x="345" y="-190" on="1"/>
        <pt x="215" y="-190" on="1"/>
        <pt x="215" y="15" on="1"/>
        <pt x="36" y="15" on="1"/>
        <pt x="36" y="85" on="1"/>
        <pt x="215" y="85" on="1"/>
        <pt x="215" y="405" on="1"/>
        <pt x="36" y="405" on="1"/>
      </contour>
    </TTGlyph>
    <TTGlyph name="degree" xMin="38" yMin="360" xMax="378" yMax="680">
      <contour>
        <pt x="208" y="620" on="1"/>
        <pt x="170" y="620" on="0"/>
        <pt x="118" y="565" on="0"/>
        <pt x="118" y="520" on="1"/>
        <pt x="118" y="475" on="0"/>
        <pt x="170" y="420" on="0"/>
        <pt x="208" y="420" on="1"/>
        <pt x="246" y="420" on="0"/>
        <pt x="298" y="475" on="0"/>
        <pt x="298" y="520" on="1"/>
        <pt x="298" y="565" on="0"/>
        <pt x="246" y="620" on="0"/>
      </contour>
      <contour>
        <pt x="208" y="680" on="1"/>
        <pt x="249" y="680" on="0"/>
        <pt x="313" y="655" on="0"/>
        <pt x="356" y="612" on="0"/>
        <pt x="378" y="554" on="0"/>
        <pt x="378" y="520" on="1"/>
        <pt x="378" y="486" on="0"/>
        <pt x="356" y="428" on="0"/>
        <pt x="313" y="385" on="0"/>
        <pt x="249" y="360" on="0"/>
        <pt x="208" y="360" on="1"/>
        <pt x="167" y="360" on="0"/>
        <pt x="103" y="385" on="0"/>
        <pt x="60" y="428" on="0"/>
        <pt x="38" y="486" on="0"/>
        <pt x="38" y="520" on="1"/>
        <pt x="38" y="554" on="0"/>
        <pt x="60" y="612" on="0"/>
        <pt x="103" y="655" on="0"/>
        <pt x="167" y="680" on="0"/>
      </contour>
    </TTGlyph>
    <TTGlyph name="dieresis" xMin="0" yMin="690" xMax="282" yMax="802">
      <contour>
        <pt x="112" y="746" on="1"/>
        <pt x="112" y="723" on="0"/>
        <pt x="82" y="690" on="0"/>
        <pt x="56" y="690" on="1"/>
        <pt x="30" y="690" on="0"/>
        <pt x="0" y="723" on="0"/>
        <pt x="0" y="746" on="1"/>
        <pt x="0" y="769" on="0"/>
        <pt x="30" y="802" on="0"/>
        <pt x="56" y="802" on="1"/>
        <pt x="82" y="802" on="0"/>
        <pt x="112" y="769" on="0"/>
      </contour>
      <contour>
        <pt x="282" y="746" on="1"/>
        <pt x="282" y="723" on="0"/>
        <pt x="252" y="690" on="0"/>
        <pt x="226" y="690" on="1"/>
        <pt x="200" y="690" on="0"/>
        <pt x="170" y="723" on="0"/>
        <pt x="170" y="746" on="1"/>
        <pt x="170" y="769" on="0"/>
        <pt x="200" y="802" on="0"/>
        <pt x="226" y="802" on="1"/>
        <pt x="252" y="802" on="0"/>
        <pt x="282" y="769" on="0"/>
      </contour>
    </TTGlyph>
    <TTGlyph name="dieresis.alt1" xMin="20" yMin="535" xMax="312" yMax="647">
      <contour>
        <pt x="132" y="591" on="1"/>
        <pt x="132" y="568" on="0"/>
        <pt x="102" y="535" on="0"/>
        <pt x="76" y="535" on="1"/>
        <pt x="50" y="535" on="0"/>
        <pt x="20" y="568" on="0"/>
        <pt x="20" y="591" on="1"/>
        <pt x="20" y="614" on="0"/>
        <pt x="50" y="647" on="0"/>
        <pt x="76" y="647" on="1"/>
        <pt x="102" y="647" on="0"/>
        <pt x="132" y="614" on="0"/>
      </contour>
      <contour>
        <pt x="312" y="591" on="1"/>
        <pt x="312" y="568" on="0"/>
        <pt x="282" y="535" on="0"/>
        <pt x="256" y="535" on="1"/>
        <pt x="230" y="535" on="0"/>
        <pt x="200" y="568" on="0"/>
        <pt x="200" y="591" on="1"/>
        <pt x="200" y="614" on="0"/>
        <pt x="230" y="647" on="0"/>
        <pt x="256" y="647" on="1"/>
        <pt x="282" y="647" on="0"/>
        <pt x="312" y="614" on="0"/>
      </contour>
    </TTGlyph>
    <TTGlyph name="dieresis.alt2" xMin="20" yMin="730" xMax="312" yMax="842">
      <contour>
        <pt x="132" y="786" on="1"/>
        <pt x="132" y="763" on="0"/>
        <pt x="102" y="730" on="0"/>
        <pt x="76" y="730" on="1"/>
        <pt x="50" y="730" on="0"/>
        <pt x="20" y="763" on="0"/>
        <pt x="20" y="786" on="1"/>
        <pt x="20" y="809" on="0"/>
        <pt x="50" y="842" on="0"/>
        <pt x="76" y="842" on="1"/>
        <pt x="102" y="842" on="0"/>
        <pt x="132" y="809" on="0"/>
      </contour>
      <contour>
        <pt x="312" y="786" on="1"/>
        <pt x="312" y="763" on="0"/>
        <pt x="282" y="730" on="0"/>
        <pt x="256" y="730" on="1"/>
        <pt x="230" y="730" on="0"/>
        <pt x="200" y="763" on="0"/>
        <pt x="200" y="786" on="1"/>
        <pt x="200" y="809" on="0"/>
        <pt x="230" y="842" on="0"/>
        <pt x="256" y="842" on="1"/>
        <pt x="282" y="842" on="0"/>
        <pt x="312" y="809" on="0"/>
      </contour>
    </TTGlyph>
</ttFont>
